G04 #@! TF.GenerationSoftware,KiCad,Pcbnew,(5.1.5)-3*
G04 #@! TF.CreationDate,2020-07-13T19:53:19+01:00*
G04 #@! TF.ProjectId,GATE2TRIG,47415445-3254-4524-9947-2e6b69636164,rev?*
G04 #@! TF.SameCoordinates,Original*
G04 #@! TF.FileFunction,Legend,Top*
G04 #@! TF.FilePolarity,Positive*
%FSLAX46Y46*%
G04 Gerber Fmt 4.6, Leading zero omitted, Abs format (unit mm)*
G04 Created by KiCad (PCBNEW (5.1.5)-3) date 2020-07-13 19:53:19*
%MOMM*%
%LPD*%
G04 APERTURE LIST*
%ADD10C,0.120000*%
%ADD11C,0.100000*%
%ADD12C,0.150000*%
%ADD13C,0.129000*%
G04 APERTURE END LIST*
D10*
X71820000Y-29185000D02*
X76890000Y-29185000D01*
X71820000Y-38955000D02*
X76890000Y-38955000D01*
X76890000Y-38955000D02*
X76890000Y-29185000D01*
X71820000Y-38955000D02*
X71820000Y-29185000D01*
D11*
X76585000Y-30575000D02*
X74416000Y-30574000D01*
X76585000Y-30575000D02*
X74416000Y-30574000D01*
X71940000Y-29305000D02*
X71940000Y-38835000D01*
X76770000Y-29305000D02*
X71940000Y-29305000D01*
X76770000Y-38835000D02*
X76770000Y-29305000D01*
X71940000Y-38835000D02*
X76770000Y-38835000D01*
X76595000Y-30575000D02*
G75*
G03X76595000Y-30575000I-1095000J0D01*
G01*
D10*
X64887400Y-118672500D02*
X64872400Y-118672500D01*
X67012400Y-118672500D02*
X66997400Y-118672500D01*
X64887400Y-114132500D02*
X64872400Y-114132500D01*
X67012400Y-114132500D02*
X66997400Y-114132500D01*
X64872400Y-114132500D02*
X64872400Y-118672500D01*
X67012400Y-114132500D02*
X67012400Y-118672500D01*
D11*
X66892400Y-118552500D02*
X66892400Y-114252500D01*
X64992400Y-118552500D02*
X66892400Y-118552500D01*
X64992400Y-114252500D02*
X64992400Y-118552500D01*
X66892400Y-114252500D02*
X64992400Y-114252500D01*
X64948700Y-156846000D02*
X64948700Y-158746000D01*
X64948700Y-158746000D02*
X69248700Y-158746000D01*
X69248700Y-158746000D02*
X69248700Y-156846000D01*
X69248700Y-156846000D02*
X64948700Y-156846000D01*
D10*
X64828700Y-156726000D02*
X69368700Y-156726000D01*
X64828700Y-158866000D02*
X69368700Y-158866000D01*
X64828700Y-156726000D02*
X64828700Y-156741000D01*
X64828700Y-158851000D02*
X64828700Y-158866000D01*
X69368700Y-156726000D02*
X69368700Y-156741000D01*
X69368700Y-158851000D02*
X69368700Y-158866000D01*
X64465700Y-30570100D02*
X64450700Y-30570100D01*
X66590700Y-30570100D02*
X66575700Y-30570100D01*
X64465700Y-26030100D02*
X64450700Y-26030100D01*
X66590700Y-26030100D02*
X66575700Y-26030100D01*
X64450700Y-26030100D02*
X64450700Y-30570100D01*
X66590700Y-26030100D02*
X66590700Y-30570100D01*
D11*
X66470700Y-30450100D02*
X66470700Y-26150100D01*
X64570700Y-30450100D02*
X66470700Y-30450100D01*
X64570700Y-26150100D02*
X64570700Y-30450100D01*
X66470700Y-26150100D02*
X64570700Y-26150100D01*
X66150700Y-70219100D02*
X64250700Y-70219100D01*
X64250700Y-70219100D02*
X64250700Y-74519100D01*
X64250700Y-74519100D02*
X66150700Y-74519100D01*
X66150700Y-74519100D02*
X66150700Y-70219100D01*
D10*
X66270700Y-70099100D02*
X66270700Y-74639100D01*
X64130700Y-70099100D02*
X64130700Y-74639100D01*
X66270700Y-70099100D02*
X66255700Y-70099100D01*
X64145700Y-70099100D02*
X64130700Y-70099100D01*
X66270700Y-74639100D02*
X66255700Y-74639100D01*
X64145700Y-74639100D02*
X64130700Y-74639100D01*
D11*
X65481700Y-37348200D02*
X65481700Y-34648200D01*
X65481700Y-34648200D02*
X60281700Y-34648200D01*
X60281700Y-34648200D02*
X60281700Y-37348200D01*
X60281700Y-37348200D02*
X65481700Y-37348200D01*
X67961700Y-35998200D02*
X65481700Y-35998200D01*
X57801700Y-35998200D02*
X60281700Y-35998200D01*
X64701700Y-37348200D02*
X64701700Y-34648200D01*
X64601700Y-37348200D02*
X64601700Y-34648200D01*
X64801700Y-37348200D02*
X64801700Y-34648200D01*
D10*
X65601700Y-37468200D02*
X65601700Y-34528200D01*
X65601700Y-34528200D02*
X60161700Y-34528200D01*
X60161700Y-34528200D02*
X60161700Y-37468200D01*
X60161700Y-37468200D02*
X65601700Y-37468200D01*
X66621700Y-35998200D02*
X65601700Y-35998200D01*
X59141700Y-35998200D02*
X60161700Y-35998200D01*
X64701700Y-37468200D02*
X64701700Y-34528200D01*
X64581700Y-37468200D02*
X64581700Y-34528200D01*
X64821700Y-37468200D02*
X64821700Y-34528200D01*
X67227100Y-125736000D02*
X67227100Y-122796000D01*
X66987100Y-125736000D02*
X66987100Y-122796000D01*
X67107100Y-125736000D02*
X67107100Y-122796000D01*
X61547100Y-124266000D02*
X62567100Y-124266000D01*
X69027100Y-124266000D02*
X68007100Y-124266000D01*
X62567100Y-125736000D02*
X68007100Y-125736000D01*
X62567100Y-122796000D02*
X62567100Y-125736000D01*
X68007100Y-122796000D02*
X62567100Y-122796000D01*
X68007100Y-125736000D02*
X68007100Y-122796000D01*
D11*
X67207100Y-125616000D02*
X67207100Y-122916000D01*
X67007100Y-125616000D02*
X67007100Y-122916000D01*
X67107100Y-125616000D02*
X67107100Y-122916000D01*
X60207100Y-124266000D02*
X62687100Y-124266000D01*
X70367100Y-124266000D02*
X67887100Y-124266000D01*
X62687100Y-125616000D02*
X67887100Y-125616000D01*
X62687100Y-122916000D02*
X62687100Y-125616000D01*
X67887100Y-122916000D02*
X62687100Y-122916000D01*
X67887100Y-125616000D02*
X67887100Y-122916000D01*
D10*
X66449800Y-169492000D02*
X66449800Y-166552000D01*
X66209800Y-169492000D02*
X66209800Y-166552000D01*
X66329800Y-169492000D02*
X66329800Y-166552000D01*
X60769800Y-168022000D02*
X61789800Y-168022000D01*
X68249800Y-168022000D02*
X67229800Y-168022000D01*
X61789800Y-169492000D02*
X67229800Y-169492000D01*
X61789800Y-166552000D02*
X61789800Y-169492000D01*
X67229800Y-166552000D02*
X61789800Y-166552000D01*
X67229800Y-169492000D02*
X67229800Y-166552000D01*
D11*
X66429800Y-169372000D02*
X66429800Y-166672000D01*
X66229800Y-169372000D02*
X66229800Y-166672000D01*
X66329800Y-169372000D02*
X66329800Y-166672000D01*
X59429800Y-168022000D02*
X61909800Y-168022000D01*
X69589800Y-168022000D02*
X67109800Y-168022000D01*
X61909800Y-169372000D02*
X67109800Y-169372000D01*
X61909800Y-166672000D02*
X61909800Y-169372000D01*
X67109800Y-166672000D02*
X61909800Y-166672000D01*
X67109800Y-169372000D02*
X67109800Y-166672000D01*
X64524100Y-81114900D02*
X64524100Y-78414900D01*
X64524100Y-78414900D02*
X59324100Y-78414900D01*
X59324100Y-78414900D02*
X59324100Y-81114900D01*
X59324100Y-81114900D02*
X64524100Y-81114900D01*
X67004100Y-79764900D02*
X64524100Y-79764900D01*
X56844100Y-79764900D02*
X59324100Y-79764900D01*
X63744100Y-81114900D02*
X63744100Y-78414900D01*
X63644100Y-81114900D02*
X63644100Y-78414900D01*
X63844100Y-81114900D02*
X63844100Y-78414900D01*
D10*
X64644100Y-81234900D02*
X64644100Y-78294900D01*
X64644100Y-78294900D02*
X59204100Y-78294900D01*
X59204100Y-78294900D02*
X59204100Y-81234900D01*
X59204100Y-81234900D02*
X64644100Y-81234900D01*
X65664100Y-79764900D02*
X64644100Y-79764900D01*
X58184100Y-79764900D02*
X59204100Y-79764900D01*
X63744100Y-81234900D02*
X63744100Y-78294900D01*
X63624100Y-81234900D02*
X63624100Y-78294900D01*
X63864100Y-81234900D02*
X63864100Y-78294900D01*
X46856000Y-105460000D02*
X62604000Y-105460000D01*
X62604000Y-105460000D02*
X62610000Y-119170000D01*
X62604000Y-119176000D02*
X60064000Y-121208000D01*
X60064000Y-121208000D02*
X46856000Y-121208000D01*
X46856000Y-121208000D02*
X46856000Y-105460000D01*
X46856000Y-33208000D02*
X46856000Y-17460000D01*
X60064000Y-33208000D02*
X46856000Y-33208000D01*
X62604000Y-31176000D02*
X60064000Y-33208000D01*
X62604000Y-17460000D02*
X62610000Y-31170000D01*
X46856000Y-17460000D02*
X62604000Y-17460000D01*
X46856000Y-165208000D02*
X46856000Y-149460000D01*
X60064000Y-165208000D02*
X46856000Y-165208000D01*
X62604000Y-163176000D02*
X60064000Y-165208000D01*
X62604000Y-149460000D02*
X62610000Y-163170000D01*
X46856000Y-149460000D02*
X62604000Y-149460000D01*
X71856000Y-99208000D02*
X71856000Y-83460000D01*
X85064000Y-99208000D02*
X71856000Y-99208000D01*
X87604000Y-97176000D02*
X85064000Y-99208000D01*
X87604000Y-83460000D02*
X87610000Y-97170000D01*
X71856000Y-83460000D02*
X87604000Y-83460000D01*
X46856000Y-77208000D02*
X46856000Y-61460000D01*
X60064000Y-77208000D02*
X46856000Y-77208000D01*
X62604000Y-75176000D02*
X60064000Y-77208000D01*
X62604000Y-61460000D02*
X62610000Y-75170000D01*
X46856000Y-61460000D02*
X62604000Y-61460000D01*
X71856000Y-39460000D02*
X87604000Y-39460000D01*
X87604000Y-39460000D02*
X87610000Y-53170000D01*
X87604000Y-53176000D02*
X85064000Y-55208000D01*
X85064000Y-55208000D02*
X71856000Y-55208000D01*
X71856000Y-55208000D02*
X71856000Y-39460000D01*
X71856000Y-127460000D02*
X87604000Y-127460000D01*
X87604000Y-127460000D02*
X87610000Y-141170000D01*
X87604000Y-141176000D02*
X85064000Y-143208000D01*
X85064000Y-143208000D02*
X71856000Y-143208000D01*
X71856000Y-143208000D02*
X71856000Y-127460000D01*
X71856000Y-171460000D02*
X87604000Y-171460000D01*
X87604000Y-171460000D02*
X87610000Y-185170000D01*
X87604000Y-185176000D02*
X85064000Y-187208000D01*
X85064000Y-187208000D02*
X71856000Y-187208000D01*
X71856000Y-187208000D02*
X71856000Y-171460000D01*
X46856000Y-55208000D02*
X46856000Y-39460000D01*
X60064000Y-55208000D02*
X46856000Y-55208000D01*
X62604000Y-53176000D02*
X60064000Y-55208000D01*
X62604000Y-39460000D02*
X62610000Y-53170000D01*
X46856000Y-39460000D02*
X62604000Y-39460000D01*
X46856000Y-99208000D02*
X46856000Y-83460000D01*
X60064000Y-99208000D02*
X46856000Y-99208000D01*
X62604000Y-97176000D02*
X60064000Y-99208000D01*
X62604000Y-83460000D02*
X62610000Y-97170000D01*
X46856000Y-83460000D02*
X62604000Y-83460000D01*
X46856000Y-127460000D02*
X62604000Y-127460000D01*
X62604000Y-127460000D02*
X62610000Y-141170000D01*
X62604000Y-141176000D02*
X60064000Y-143208000D01*
X60064000Y-143208000D02*
X46856000Y-143208000D01*
X46856000Y-143208000D02*
X46856000Y-127460000D01*
X46856000Y-171460000D02*
X62604000Y-171460000D01*
X62604000Y-171460000D02*
X62610000Y-185170000D01*
X62604000Y-185176000D02*
X60064000Y-187208000D01*
X60064000Y-187208000D02*
X46856000Y-187208000D01*
X46856000Y-187208000D02*
X46856000Y-171460000D01*
X74826200Y-17126000D02*
X74056200Y-17126000D01*
X66746200Y-17126000D02*
X67516200Y-17126000D01*
X74056200Y-15756000D02*
X67516200Y-15756000D01*
X74056200Y-18496000D02*
X74056200Y-15756000D01*
X67516200Y-18496000D02*
X74056200Y-18496000D01*
X67516200Y-15756000D02*
X67516200Y-18496000D01*
D11*
X75866200Y-17126000D02*
X73936200Y-17126000D01*
X65706200Y-17126000D02*
X67636200Y-17126000D01*
X73936200Y-15876000D02*
X67636200Y-15876000D01*
X73936200Y-18376000D02*
X73936200Y-15876000D01*
X67636200Y-18376000D02*
X73936200Y-18376000D01*
X67636200Y-15876000D02*
X67636200Y-18376000D01*
X74340000Y-108647600D02*
X74340000Y-106147600D01*
X74340000Y-106147600D02*
X68040000Y-106147600D01*
X68040000Y-106147600D02*
X68040000Y-108647600D01*
X68040000Y-108647600D02*
X74340000Y-108647600D01*
X76270000Y-107397600D02*
X74340000Y-107397600D01*
X66110000Y-107397600D02*
X68040000Y-107397600D01*
D10*
X74460000Y-108767600D02*
X74460000Y-106027600D01*
X74460000Y-106027600D02*
X67920000Y-106027600D01*
X67920000Y-106027600D02*
X67920000Y-108767600D01*
X67920000Y-108767600D02*
X74460000Y-108767600D01*
X75230000Y-107397600D02*
X74460000Y-107397600D01*
X67150000Y-107397600D02*
X67920000Y-107397600D01*
X65737800Y-151065000D02*
X66507800Y-151065000D01*
X73817800Y-151065000D02*
X73047800Y-151065000D01*
X66507800Y-152435000D02*
X73047800Y-152435000D01*
X66507800Y-149695000D02*
X66507800Y-152435000D01*
X73047800Y-149695000D02*
X66507800Y-149695000D01*
X73047800Y-152435000D02*
X73047800Y-149695000D01*
D11*
X64697800Y-151065000D02*
X66627800Y-151065000D01*
X74857800Y-151065000D02*
X72927800Y-151065000D01*
X66627800Y-152315000D02*
X72927800Y-152315000D01*
X66627800Y-149815000D02*
X66627800Y-152315000D01*
X72927800Y-149815000D02*
X66627800Y-149815000D01*
X72927800Y-152315000D02*
X72927800Y-149815000D01*
D10*
X68093800Y-41884500D02*
X68093800Y-42654500D01*
X68093800Y-49964500D02*
X68093800Y-49194500D01*
X66723800Y-42654500D02*
X66723800Y-49194500D01*
X69463800Y-42654500D02*
X66723800Y-42654500D01*
X69463800Y-49194500D02*
X69463800Y-42654500D01*
X66723800Y-49194500D02*
X69463800Y-49194500D01*
D11*
X68093800Y-40844500D02*
X68093800Y-42774500D01*
X68093800Y-51004500D02*
X68093800Y-49074500D01*
X66843800Y-42774500D02*
X66843800Y-49074500D01*
X69343800Y-42774500D02*
X66843800Y-42774500D01*
X69343800Y-49074500D02*
X69343800Y-42774500D01*
X66843800Y-49074500D02*
X69343800Y-49074500D01*
D10*
X68375700Y-64917500D02*
X68375700Y-64147500D01*
X68375700Y-56837500D02*
X68375700Y-57607500D01*
X69745700Y-64147500D02*
X69745700Y-57607500D01*
X67005700Y-64147500D02*
X69745700Y-64147500D01*
X67005700Y-57607500D02*
X67005700Y-64147500D01*
X69745700Y-57607500D02*
X67005700Y-57607500D01*
D11*
X68375700Y-65957500D02*
X68375700Y-64027500D01*
X68375700Y-55797500D02*
X68375700Y-57727500D01*
X69625700Y-64027500D02*
X69625700Y-57727500D01*
X67125700Y-64027500D02*
X69625700Y-64027500D01*
X67125700Y-57727500D02*
X67125700Y-64027500D01*
X69625700Y-57727500D02*
X67125700Y-57727500D01*
D10*
X74291400Y-115237000D02*
X74291400Y-116007000D01*
X74291400Y-123317000D02*
X74291400Y-122547000D01*
X72921400Y-116007000D02*
X72921400Y-122547000D01*
X75661400Y-116007000D02*
X72921400Y-116007000D01*
X75661400Y-122547000D02*
X75661400Y-116007000D01*
X72921400Y-122547000D02*
X75661400Y-122547000D01*
D11*
X74291400Y-114197000D02*
X74291400Y-116127000D01*
X74291400Y-124357000D02*
X74291400Y-122427000D01*
X73041400Y-116127000D02*
X73041400Y-122427000D01*
X75541400Y-116127000D02*
X73041400Y-116127000D01*
X75541400Y-122427000D02*
X75541400Y-116127000D01*
X73041400Y-122427000D02*
X75541400Y-122427000D01*
X72477500Y-166377000D02*
X74977500Y-166377000D01*
X74977500Y-166377000D02*
X74977500Y-160077000D01*
X74977500Y-160077000D02*
X72477500Y-160077000D01*
X72477500Y-160077000D02*
X72477500Y-166377000D01*
X73727500Y-168307000D02*
X73727500Y-166377000D01*
X73727500Y-158147000D02*
X73727500Y-160077000D01*
D10*
X72357500Y-166497000D02*
X75097500Y-166497000D01*
X75097500Y-166497000D02*
X75097500Y-159957000D01*
X75097500Y-159957000D02*
X72357500Y-159957000D01*
X72357500Y-159957000D02*
X72357500Y-166497000D01*
X73727500Y-167267000D02*
X73727500Y-166497000D01*
X73727500Y-159187000D02*
X73727500Y-159957000D01*
D11*
X87972100Y-58453900D02*
X85472100Y-58453900D01*
X85472100Y-58453900D02*
X85472100Y-64753900D01*
X85472100Y-64753900D02*
X87972100Y-64753900D01*
X87972100Y-64753900D02*
X87972100Y-58453900D01*
X86722100Y-56523900D02*
X86722100Y-58453900D01*
X86722100Y-66683900D02*
X86722100Y-64753900D01*
D10*
X88092100Y-58333900D02*
X85352100Y-58333900D01*
X85352100Y-58333900D02*
X85352100Y-64873900D01*
X85352100Y-64873900D02*
X88092100Y-64873900D01*
X88092100Y-64873900D02*
X88092100Y-58333900D01*
X86722100Y-57563900D02*
X86722100Y-58333900D01*
X86722100Y-65643900D02*
X86722100Y-64873900D01*
D11*
X68388700Y-86584400D02*
X65888700Y-86584400D01*
X65888700Y-86584400D02*
X65888700Y-92884400D01*
X65888700Y-92884400D02*
X68388700Y-92884400D01*
X68388700Y-92884400D02*
X68388700Y-86584400D01*
X67138700Y-84654400D02*
X67138700Y-86584400D01*
X67138700Y-94814400D02*
X67138700Y-92884400D01*
D10*
X68508700Y-86464400D02*
X65768700Y-86464400D01*
X65768700Y-86464400D02*
X65768700Y-93004400D01*
X65768700Y-93004400D02*
X68508700Y-93004400D01*
X68508700Y-93004400D02*
X68508700Y-86464400D01*
X67138700Y-85694400D02*
X67138700Y-86464400D01*
X67138700Y-93774400D02*
X67138700Y-93004400D01*
D11*
X79541200Y-122427000D02*
X82041200Y-122427000D01*
X82041200Y-122427000D02*
X82041200Y-116127000D01*
X82041200Y-116127000D02*
X79541200Y-116127000D01*
X79541200Y-116127000D02*
X79541200Y-122427000D01*
X80791200Y-124357000D02*
X80791200Y-122427000D01*
X80791200Y-114197000D02*
X80791200Y-116127000D01*
D10*
X79421200Y-122547000D02*
X82161200Y-122547000D01*
X82161200Y-122547000D02*
X82161200Y-116007000D01*
X82161200Y-116007000D02*
X79421200Y-116007000D01*
X79421200Y-116007000D02*
X79421200Y-122547000D01*
X80791200Y-123317000D02*
X80791200Y-122547000D01*
X80791200Y-115237000D02*
X80791200Y-116007000D01*
X80539800Y-166700000D02*
X80539800Y-165930000D01*
X80539800Y-158620000D02*
X80539800Y-159390000D01*
X81909800Y-165930000D02*
X81909800Y-159390000D01*
X79169800Y-165930000D02*
X81909800Y-165930000D01*
X79169800Y-159390000D02*
X79169800Y-165930000D01*
X81909800Y-159390000D02*
X79169800Y-159390000D01*
D11*
X80539800Y-167740000D02*
X80539800Y-165810000D01*
X80539800Y-157580000D02*
X80539800Y-159510000D01*
X81789800Y-165810000D02*
X81789800Y-159510000D01*
X79289800Y-165810000D02*
X81789800Y-165810000D01*
X79289800Y-159510000D02*
X79289800Y-165810000D01*
X81789800Y-159510000D02*
X79289800Y-159510000D01*
X86500000Y-36790000D02*
X86500000Y-34290000D01*
X86500000Y-34290000D02*
X80200000Y-34290000D01*
X80200000Y-34290000D02*
X80200000Y-36790000D01*
X80200000Y-36790000D02*
X86500000Y-36790000D01*
X88430000Y-35540000D02*
X86500000Y-35540000D01*
X78270000Y-35540000D02*
X80200000Y-35540000D01*
D10*
X86620000Y-36910000D02*
X86620000Y-34170000D01*
X86620000Y-34170000D02*
X80080000Y-34170000D01*
X80080000Y-34170000D02*
X80080000Y-36910000D01*
X80080000Y-36910000D02*
X86620000Y-36910000D01*
X87390000Y-35540000D02*
X86620000Y-35540000D01*
X79310000Y-35540000D02*
X80080000Y-35540000D01*
D11*
X80700000Y-30450000D02*
X80700000Y-32950000D01*
X80700000Y-32950000D02*
X87000000Y-32950000D01*
X87000000Y-32950000D02*
X87000000Y-30450000D01*
X87000000Y-30450000D02*
X80700000Y-30450000D01*
X78770000Y-31700000D02*
X80700000Y-31700000D01*
X88930000Y-31700000D02*
X87000000Y-31700000D01*
D10*
X80580000Y-30330000D02*
X80580000Y-33070000D01*
X80580000Y-33070000D02*
X87120000Y-33070000D01*
X87120000Y-33070000D02*
X87120000Y-30330000D01*
X87120000Y-30330000D02*
X80580000Y-30330000D01*
X79810000Y-31700000D02*
X80580000Y-31700000D01*
X87890000Y-31700000D02*
X87120000Y-31700000D01*
X71007100Y-79359900D02*
X71007100Y-78589900D01*
X71007100Y-71279900D02*
X71007100Y-72049900D01*
X72377100Y-78589900D02*
X72377100Y-72049900D01*
X69637100Y-78589900D02*
X72377100Y-78589900D01*
X69637100Y-72049900D02*
X69637100Y-78589900D01*
X72377100Y-72049900D02*
X69637100Y-72049900D01*
D11*
X71007100Y-80399900D02*
X71007100Y-78469900D01*
X71007100Y-70239900D02*
X71007100Y-72169900D01*
X72257100Y-78469900D02*
X72257100Y-72169900D01*
X69757100Y-78469900D02*
X72257100Y-78469900D01*
X69757100Y-72169900D02*
X69757100Y-78469900D01*
X72257100Y-72169900D02*
X69757100Y-72169900D01*
X80760340Y-15842960D02*
X80760340Y-18342960D01*
X80760340Y-18342960D02*
X87060340Y-18342960D01*
X87060340Y-18342960D02*
X87060340Y-15842960D01*
X87060340Y-15842960D02*
X80760340Y-15842960D01*
X78830340Y-17092960D02*
X80760340Y-17092960D01*
X88990340Y-17092960D02*
X87060340Y-17092960D01*
D10*
X80640340Y-15722960D02*
X80640340Y-18462960D01*
X80640340Y-18462960D02*
X87180340Y-18462960D01*
X87180340Y-18462960D02*
X87180340Y-15722960D01*
X87180340Y-15722960D02*
X80640340Y-15722960D01*
X79870340Y-17092960D02*
X80640340Y-17092960D01*
X87950340Y-17092960D02*
X87180340Y-17092960D01*
X87204700Y-79972100D02*
X87204700Y-79202100D01*
X87204700Y-71892100D02*
X87204700Y-72662100D01*
X88574700Y-79202100D02*
X88574700Y-72662100D01*
X85834700Y-79202100D02*
X88574700Y-79202100D01*
X85834700Y-72662100D02*
X85834700Y-79202100D01*
X88574700Y-72662100D02*
X85834700Y-72662100D01*
D11*
X87204700Y-81012100D02*
X87204700Y-79082100D01*
X87204700Y-70852100D02*
X87204700Y-72782100D01*
X88454700Y-79082100D02*
X88454700Y-72782100D01*
X85954700Y-79082100D02*
X88454700Y-79082100D01*
X85954700Y-72782100D02*
X85954700Y-79082100D01*
X88454700Y-72782100D02*
X85954700Y-72782100D01*
X88401400Y-116111900D02*
X85901400Y-116111900D01*
X85901400Y-116111900D02*
X85901400Y-122411900D01*
X85901400Y-122411900D02*
X88401400Y-122411900D01*
X88401400Y-122411900D02*
X88401400Y-116111900D01*
X87151400Y-114181900D02*
X87151400Y-116111900D01*
X87151400Y-124341900D02*
X87151400Y-122411900D01*
D10*
X88521400Y-115991900D02*
X85781400Y-115991900D01*
X85781400Y-115991900D02*
X85781400Y-122531900D01*
X85781400Y-122531900D02*
X88521400Y-122531900D01*
X88521400Y-122531900D02*
X88521400Y-115991900D01*
X87151400Y-115221900D02*
X87151400Y-115991900D01*
X87151400Y-123301900D02*
X87151400Y-122531900D01*
X86724700Y-166505000D02*
X86724700Y-165735000D01*
X86724700Y-158425000D02*
X86724700Y-159195000D01*
X88094700Y-165735000D02*
X88094700Y-159195000D01*
X85354700Y-165735000D02*
X88094700Y-165735000D01*
X85354700Y-159195000D02*
X85354700Y-165735000D01*
X88094700Y-159195000D02*
X85354700Y-159195000D01*
D11*
X86724700Y-167545000D02*
X86724700Y-165615000D01*
X86724700Y-157385000D02*
X86724700Y-159315000D01*
X87974700Y-165615000D02*
X87974700Y-159315000D01*
X85474700Y-165615000D02*
X87974700Y-165615000D01*
X85474700Y-159315000D02*
X85474700Y-165615000D01*
X87974700Y-159315000D02*
X85474700Y-159315000D01*
D10*
X80066600Y-60413600D02*
G75*
G02X78066600Y-60413600I-1000000J0D01*
G01*
D11*
X76891600Y-60473600D02*
X82241600Y-60473600D01*
X82241600Y-60473600D02*
X82241600Y-78253600D01*
X82241600Y-78253600D02*
X75891600Y-78253600D01*
X75891600Y-78253600D02*
X75891600Y-61473600D01*
X75891600Y-61473600D02*
X76891600Y-60473600D01*
D10*
X78066600Y-60413600D02*
X76416600Y-60413600D01*
X76416600Y-60413600D02*
X76416600Y-78313600D01*
X76416600Y-78313600D02*
X81716600Y-78313600D01*
X81716600Y-78313600D02*
X81716600Y-60413600D01*
X81716600Y-60413600D02*
X80066600Y-60413600D01*
D12*
X93372380Y-34155238D02*
X92896190Y-34488571D01*
X93372380Y-34726666D02*
X92372380Y-34726666D01*
X92372380Y-34345714D01*
X92420000Y-34250476D01*
X92467619Y-34202857D01*
X92562857Y-34155238D01*
X92705714Y-34155238D01*
X92800952Y-34202857D01*
X92848571Y-34250476D01*
X92896190Y-34345714D01*
X92896190Y-34726666D01*
X92372380Y-33869523D02*
X93372380Y-33536190D01*
X92372380Y-33202857D01*
X93372380Y-32345714D02*
X93372380Y-32917142D01*
X93372380Y-32631428D02*
X92372380Y-32631428D01*
X92515238Y-32726666D01*
X92610476Y-32821904D01*
X92658095Y-32917142D01*
X72257619Y-38159047D02*
X72210000Y-38111428D01*
X72162380Y-38016190D01*
X72162380Y-37778095D01*
X72210000Y-37682857D01*
X72257619Y-37635238D01*
X72352857Y-37587619D01*
X72448095Y-37587619D01*
X72590952Y-37635238D01*
X73162380Y-38206666D01*
X73162380Y-37587619D01*
X72162380Y-36968571D02*
X72162380Y-36873333D01*
X72210000Y-36778095D01*
X72257619Y-36730476D01*
X72352857Y-36682857D01*
X72543333Y-36635238D01*
X72781428Y-36635238D01*
X72971904Y-36682857D01*
X73067142Y-36730476D01*
X73114761Y-36778095D01*
X73162380Y-36873333D01*
X73162380Y-36968571D01*
X73114761Y-37063809D01*
X73067142Y-37111428D01*
X72971904Y-37159047D01*
X72781428Y-37206666D01*
X72543333Y-37206666D01*
X72352857Y-37159047D01*
X72257619Y-37111428D01*
X72210000Y-37063809D01*
X72162380Y-36968571D01*
X73162380Y-36206666D02*
X72162380Y-36206666D01*
X73162380Y-35635238D02*
X72590952Y-36063809D01*
X72162380Y-35635238D02*
X72733809Y-36206666D01*
X72162380Y-34540000D02*
X72162380Y-33920952D01*
X72543333Y-34254285D01*
X72543333Y-34111428D01*
X72590952Y-34016190D01*
X72638571Y-33968571D01*
X72733809Y-33920952D01*
X72971904Y-33920952D01*
X73067142Y-33968571D01*
X73114761Y-34016190D01*
X73162380Y-34111428D01*
X73162380Y-34397142D01*
X73114761Y-34492380D01*
X73067142Y-34540000D01*
X72257619Y-33540000D02*
X72210000Y-33492380D01*
X72162380Y-33397142D01*
X72162380Y-33159047D01*
X72210000Y-33063809D01*
X72257619Y-33016190D01*
X72352857Y-32968571D01*
X72448095Y-32968571D01*
X72590952Y-33016190D01*
X73162380Y-33587619D01*
X73162380Y-32968571D01*
X73162380Y-32492380D02*
X73162380Y-32301904D01*
X73114761Y-32206666D01*
X73067142Y-32159047D01*
X72924285Y-32063809D01*
X72733809Y-32016190D01*
X72352857Y-32016190D01*
X72257619Y-32063809D01*
X72210000Y-32111428D01*
X72162380Y-32206666D01*
X72162380Y-32397142D01*
X72210000Y-32492380D01*
X72257619Y-32540000D01*
X72352857Y-32587619D01*
X72590952Y-32587619D01*
X72686190Y-32540000D01*
X72733809Y-32492380D01*
X72781428Y-32397142D01*
X72781428Y-32206666D01*
X72733809Y-32111428D01*
X72686190Y-32063809D01*
X72590952Y-32016190D01*
X72162380Y-31159047D02*
X72162380Y-31349523D01*
X72210000Y-31444761D01*
X72257619Y-31492380D01*
X72400476Y-31587619D01*
X72590952Y-31635238D01*
X72971904Y-31635238D01*
X73067142Y-31587619D01*
X73114761Y-31540000D01*
X73162380Y-31444761D01*
X73162380Y-31254285D01*
X73114761Y-31159047D01*
X73067142Y-31111428D01*
X72971904Y-31063809D01*
X72733809Y-31063809D01*
X72638571Y-31111428D01*
X72590952Y-31159047D01*
X72543333Y-31254285D01*
X72543333Y-31444761D01*
X72590952Y-31540000D01*
X72638571Y-31587619D01*
X72733809Y-31635238D01*
X72162380Y-30730476D02*
X73162380Y-30492380D01*
X72448095Y-30301904D01*
X73162380Y-30111428D01*
X72162380Y-29873333D01*
X93182380Y-36145238D02*
X92706190Y-36478571D01*
X93182380Y-36716666D02*
X92182380Y-36716666D01*
X92182380Y-36335714D01*
X92230000Y-36240476D01*
X92277619Y-36192857D01*
X92372857Y-36145238D01*
X92515714Y-36145238D01*
X92610952Y-36192857D01*
X92658571Y-36240476D01*
X92706190Y-36335714D01*
X92706190Y-36716666D01*
X92182380Y-35859523D02*
X93182380Y-35526190D01*
X92182380Y-35192857D01*
X93182380Y-34335714D02*
X93182380Y-34907142D01*
X93182380Y-34621428D02*
X92182380Y-34621428D01*
X92325238Y-34716666D01*
X92420476Y-34811904D01*
X92468095Y-34907142D01*
X68499542Y-116569166D02*
X68547161Y-116616785D01*
X68594780Y-116759642D01*
X68594780Y-116854880D01*
X68547161Y-116997738D01*
X68451923Y-117092976D01*
X68356685Y-117140595D01*
X68166209Y-117188214D01*
X68023352Y-117188214D01*
X67832876Y-117140595D01*
X67737638Y-117092976D01*
X67642400Y-116997738D01*
X67594780Y-116854880D01*
X67594780Y-116759642D01*
X67642400Y-116616785D01*
X67690019Y-116569166D01*
X68594780Y-115616785D02*
X68594780Y-116188214D01*
X68594780Y-115902500D02*
X67594780Y-115902500D01*
X67737638Y-115997738D01*
X67832876Y-116092976D01*
X67880495Y-116188214D01*
X66382380Y-117478571D02*
X66382380Y-118050000D01*
X66382380Y-117764285D02*
X65382380Y-117764285D01*
X65525238Y-117859523D01*
X65620476Y-117954761D01*
X65668095Y-118050000D01*
X65382380Y-116859523D02*
X65382380Y-116764285D01*
X65430000Y-116669047D01*
X65477619Y-116621428D01*
X65572857Y-116573809D01*
X65763333Y-116526190D01*
X66001428Y-116526190D01*
X66191904Y-116573809D01*
X66287142Y-116621428D01*
X66334761Y-116669047D01*
X66382380Y-116764285D01*
X66382380Y-116859523D01*
X66334761Y-116954761D01*
X66287142Y-117002380D01*
X66191904Y-117050000D01*
X66001428Y-117097619D01*
X65763333Y-117097619D01*
X65572857Y-117050000D01*
X65477619Y-117002380D01*
X65430000Y-116954761D01*
X65382380Y-116859523D01*
X65715714Y-116097619D02*
X66382380Y-116097619D01*
X65810952Y-116097619D02*
X65763333Y-116050000D01*
X65715714Y-115954761D01*
X65715714Y-115811904D01*
X65763333Y-115716666D01*
X65858571Y-115669047D01*
X66382380Y-115669047D01*
X65715714Y-115335714D02*
X65715714Y-114954761D01*
X66382380Y-115192857D02*
X65525238Y-115192857D01*
X65430000Y-115145238D01*
X65382380Y-115050000D01*
X65382380Y-114954761D01*
D13*
X68397142Y-116573333D02*
X68438095Y-116614285D01*
X68479047Y-116737142D01*
X68479047Y-116819047D01*
X68438095Y-116941904D01*
X68356190Y-117023809D01*
X68274285Y-117064761D01*
X68110476Y-117105714D01*
X67987619Y-117105714D01*
X67823809Y-117064761D01*
X67741904Y-117023809D01*
X67660000Y-116941904D01*
X67619047Y-116819047D01*
X67619047Y-116737142D01*
X67660000Y-116614285D01*
X67700952Y-116573333D01*
X68479047Y-115754285D02*
X68479047Y-116245714D01*
X68479047Y-116000000D02*
X67619047Y-116000000D01*
X67741904Y-116081904D01*
X67823809Y-116163809D01*
X67864761Y-116245714D01*
D12*
X66932033Y-155953142D02*
X66884414Y-156000761D01*
X66741557Y-156048380D01*
X66646319Y-156048380D01*
X66503461Y-156000761D01*
X66408223Y-155905523D01*
X66360604Y-155810285D01*
X66312985Y-155619809D01*
X66312985Y-155476952D01*
X66360604Y-155286476D01*
X66408223Y-155191238D01*
X66503461Y-155096000D01*
X66646319Y-155048380D01*
X66741557Y-155048380D01*
X66884414Y-155096000D01*
X66932033Y-155143619D01*
X67312985Y-155143619D02*
X67360604Y-155096000D01*
X67455842Y-155048380D01*
X67693938Y-155048380D01*
X67789176Y-155096000D01*
X67836795Y-155143619D01*
X67884414Y-155238857D01*
X67884414Y-155334095D01*
X67836795Y-155476952D01*
X67265366Y-156048380D01*
X67884414Y-156048380D01*
X66271428Y-158082380D02*
X65700000Y-158082380D01*
X65985714Y-158082380D02*
X65985714Y-157082380D01*
X65890476Y-157225238D01*
X65795238Y-157320476D01*
X65700000Y-157368095D01*
X66890476Y-157082380D02*
X66985714Y-157082380D01*
X67080952Y-157130000D01*
X67128571Y-157177619D01*
X67176190Y-157272857D01*
X67223809Y-157463333D01*
X67223809Y-157701428D01*
X67176190Y-157891904D01*
X67128571Y-157987142D01*
X67080952Y-158034761D01*
X66985714Y-158082380D01*
X66890476Y-158082380D01*
X66795238Y-158034761D01*
X66747619Y-157987142D01*
X66700000Y-157891904D01*
X66652380Y-157701428D01*
X66652380Y-157463333D01*
X66700000Y-157272857D01*
X66747619Y-157177619D01*
X66795238Y-157130000D01*
X66890476Y-157082380D01*
X67652380Y-157415714D02*
X67652380Y-158082380D01*
X67652380Y-157510952D02*
X67700000Y-157463333D01*
X67795238Y-157415714D01*
X67938095Y-157415714D01*
X68033333Y-157463333D01*
X68080952Y-157558571D01*
X68080952Y-158082380D01*
X68414285Y-157415714D02*
X68795238Y-157415714D01*
X68557142Y-158082380D02*
X68557142Y-157225238D01*
X68604761Y-157130000D01*
X68700000Y-157082380D01*
X68795238Y-157082380D01*
D13*
X66856666Y-155967142D02*
X66815714Y-156008095D01*
X66692857Y-156049047D01*
X66610952Y-156049047D01*
X66488095Y-156008095D01*
X66406190Y-155926190D01*
X66365238Y-155844285D01*
X66324285Y-155680476D01*
X66324285Y-155557619D01*
X66365238Y-155393809D01*
X66406190Y-155311904D01*
X66488095Y-155230000D01*
X66610952Y-155189047D01*
X66692857Y-155189047D01*
X66815714Y-155230000D01*
X66856666Y-155270952D01*
X67184285Y-155270952D02*
X67225238Y-155230000D01*
X67307142Y-155189047D01*
X67511904Y-155189047D01*
X67593809Y-155230000D01*
X67634761Y-155270952D01*
X67675714Y-155352857D01*
X67675714Y-155434761D01*
X67634761Y-155557619D01*
X67143333Y-156049047D01*
X67675714Y-156049047D01*
D12*
X68077842Y-28466766D02*
X68125461Y-28514385D01*
X68173080Y-28657242D01*
X68173080Y-28752480D01*
X68125461Y-28895338D01*
X68030223Y-28990576D01*
X67934985Y-29038195D01*
X67744509Y-29085814D01*
X67601652Y-29085814D01*
X67411176Y-29038195D01*
X67315938Y-28990576D01*
X67220700Y-28895338D01*
X67173080Y-28752480D01*
X67173080Y-28657242D01*
X67220700Y-28514385D01*
X67268319Y-28466766D01*
X67173080Y-28133433D02*
X67173080Y-27514385D01*
X67554033Y-27847719D01*
X67554033Y-27704861D01*
X67601652Y-27609623D01*
X67649271Y-27562004D01*
X67744509Y-27514385D01*
X67982604Y-27514385D01*
X68077842Y-27562004D01*
X68125461Y-27609623D01*
X68173080Y-27704861D01*
X68173080Y-27990576D01*
X68125461Y-28085814D01*
X68077842Y-28133433D01*
X66012380Y-29558571D02*
X66012380Y-30130000D01*
X66012380Y-29844285D02*
X65012380Y-29844285D01*
X65155238Y-29939523D01*
X65250476Y-30034761D01*
X65298095Y-30130000D01*
X65012380Y-28939523D02*
X65012380Y-28844285D01*
X65060000Y-28749047D01*
X65107619Y-28701428D01*
X65202857Y-28653809D01*
X65393333Y-28606190D01*
X65631428Y-28606190D01*
X65821904Y-28653809D01*
X65917142Y-28701428D01*
X65964761Y-28749047D01*
X66012380Y-28844285D01*
X66012380Y-28939523D01*
X65964761Y-29034761D01*
X65917142Y-29082380D01*
X65821904Y-29130000D01*
X65631428Y-29177619D01*
X65393333Y-29177619D01*
X65202857Y-29130000D01*
X65107619Y-29082380D01*
X65060000Y-29034761D01*
X65012380Y-28939523D01*
X65345714Y-28177619D02*
X66012380Y-28177619D01*
X65440952Y-28177619D02*
X65393333Y-28130000D01*
X65345714Y-28034761D01*
X65345714Y-27891904D01*
X65393333Y-27796666D01*
X65488571Y-27749047D01*
X66012380Y-27749047D01*
X65345714Y-27415714D02*
X65345714Y-27034761D01*
X66012380Y-27272857D02*
X65155238Y-27272857D01*
X65060000Y-27225238D01*
X65012380Y-27130000D01*
X65012380Y-27034761D01*
D13*
X68127142Y-28513333D02*
X68168095Y-28554285D01*
X68209047Y-28677142D01*
X68209047Y-28759047D01*
X68168095Y-28881904D01*
X68086190Y-28963809D01*
X68004285Y-29004761D01*
X67840476Y-29045714D01*
X67717619Y-29045714D01*
X67553809Y-29004761D01*
X67471904Y-28963809D01*
X67390000Y-28881904D01*
X67349047Y-28759047D01*
X67349047Y-28677142D01*
X67390000Y-28554285D01*
X67430952Y-28513333D01*
X67349047Y-28226666D02*
X67349047Y-27694285D01*
X67676666Y-27980952D01*
X67676666Y-27858095D01*
X67717619Y-27776190D01*
X67758571Y-27735238D01*
X67840476Y-27694285D01*
X68045238Y-27694285D01*
X68127142Y-27735238D01*
X68168095Y-27776190D01*
X68209047Y-27858095D01*
X68209047Y-28103809D01*
X68168095Y-28185714D01*
X68127142Y-28226666D01*
D12*
X67757842Y-72535766D02*
X67805461Y-72583385D01*
X67853080Y-72726242D01*
X67853080Y-72821480D01*
X67805461Y-72964338D01*
X67710223Y-73059576D01*
X67614985Y-73107195D01*
X67424509Y-73154814D01*
X67281652Y-73154814D01*
X67091176Y-73107195D01*
X66995938Y-73059576D01*
X66900700Y-72964338D01*
X66853080Y-72821480D01*
X66853080Y-72726242D01*
X66900700Y-72583385D01*
X66948319Y-72535766D01*
X67186414Y-71678623D02*
X67853080Y-71678623D01*
X66805461Y-71916719D02*
X67519747Y-72154814D01*
X67519747Y-71535766D01*
X65882380Y-73128571D02*
X65882380Y-73700000D01*
X65882380Y-73414285D02*
X64882380Y-73414285D01*
X65025238Y-73509523D01*
X65120476Y-73604761D01*
X65168095Y-73700000D01*
X64882380Y-72509523D02*
X64882380Y-72414285D01*
X64930000Y-72319047D01*
X64977619Y-72271428D01*
X65072857Y-72223809D01*
X65263333Y-72176190D01*
X65501428Y-72176190D01*
X65691904Y-72223809D01*
X65787142Y-72271428D01*
X65834761Y-72319047D01*
X65882380Y-72414285D01*
X65882380Y-72509523D01*
X65834761Y-72604761D01*
X65787142Y-72652380D01*
X65691904Y-72700000D01*
X65501428Y-72747619D01*
X65263333Y-72747619D01*
X65072857Y-72700000D01*
X64977619Y-72652380D01*
X64930000Y-72604761D01*
X64882380Y-72509523D01*
X65215714Y-71747619D02*
X65882380Y-71747619D01*
X65310952Y-71747619D02*
X65263333Y-71700000D01*
X65215714Y-71604761D01*
X65215714Y-71461904D01*
X65263333Y-71366666D01*
X65358571Y-71319047D01*
X65882380Y-71319047D01*
X65215714Y-70985714D02*
X65215714Y-70604761D01*
X65882380Y-70842857D02*
X65025238Y-70842857D01*
X64930000Y-70795238D01*
X64882380Y-70700000D01*
X64882380Y-70604761D01*
D13*
X67737142Y-72533333D02*
X67778095Y-72574285D01*
X67819047Y-72697142D01*
X67819047Y-72779047D01*
X67778095Y-72901904D01*
X67696190Y-72983809D01*
X67614285Y-73024761D01*
X67450476Y-73065714D01*
X67327619Y-73065714D01*
X67163809Y-73024761D01*
X67081904Y-72983809D01*
X67000000Y-72901904D01*
X66959047Y-72779047D01*
X66959047Y-72697142D01*
X67000000Y-72574285D01*
X67040952Y-72533333D01*
X67245714Y-71796190D02*
X67819047Y-71796190D01*
X66918095Y-72000952D02*
X67532380Y-72205714D01*
X67532380Y-71673333D01*
D12*
X62143604Y-38920580D02*
X62143604Y-37920580D01*
X62381700Y-37920580D01*
X62524557Y-37968200D01*
X62619795Y-38063438D01*
X62667414Y-38158676D01*
X62715033Y-38349152D01*
X62715033Y-38492009D01*
X62667414Y-38682485D01*
X62619795Y-38777723D01*
X62524557Y-38872961D01*
X62381700Y-38920580D01*
X62143604Y-38920580D01*
X63667414Y-38920580D02*
X63095985Y-38920580D01*
X63381700Y-38920580D02*
X63381700Y-37920580D01*
X63286461Y-38063438D01*
X63191223Y-38158676D01*
X63095985Y-38206295D01*
X60477142Y-36492380D02*
X59905714Y-36492380D01*
X60191428Y-36492380D02*
X60191428Y-35492380D01*
X60096190Y-35635238D01*
X60000952Y-35730476D01*
X59905714Y-35778095D01*
X60905714Y-36492380D02*
X60905714Y-35492380D01*
X61477142Y-36492380D01*
X61477142Y-35492380D01*
X62381904Y-35825714D02*
X62381904Y-36492380D01*
X62143809Y-35444761D02*
X61905714Y-36159047D01*
X62524761Y-36159047D01*
X63429523Y-36492380D02*
X62858095Y-36492380D01*
X63143809Y-36492380D02*
X63143809Y-35492380D01*
X63048571Y-35635238D01*
X62953333Y-35730476D01*
X62858095Y-35778095D01*
X64286666Y-35825714D02*
X64286666Y-36492380D01*
X64048571Y-35444761D02*
X63810476Y-36159047D01*
X64429523Y-36159047D01*
X64953333Y-35920952D02*
X64858095Y-35873333D01*
X64810476Y-35825714D01*
X64762857Y-35730476D01*
X64762857Y-35682857D01*
X64810476Y-35587619D01*
X64858095Y-35540000D01*
X64953333Y-35492380D01*
X65143809Y-35492380D01*
X65239047Y-35540000D01*
X65286666Y-35587619D01*
X65334285Y-35682857D01*
X65334285Y-35730476D01*
X65286666Y-35825714D01*
X65239047Y-35873333D01*
X65143809Y-35920952D01*
X64953333Y-35920952D01*
X64858095Y-35968571D01*
X64810476Y-36016190D01*
X64762857Y-36111428D01*
X64762857Y-36301904D01*
X64810476Y-36397142D01*
X64858095Y-36444761D01*
X64953333Y-36492380D01*
X65143809Y-36492380D01*
X65239047Y-36444761D01*
X65286666Y-36397142D01*
X65334285Y-36301904D01*
X65334285Y-36111428D01*
X65286666Y-36016190D01*
X65239047Y-35968571D01*
X65143809Y-35920952D01*
X62201904Y-39012380D02*
X62201904Y-38012380D01*
X62440000Y-38012380D01*
X62582857Y-38060000D01*
X62678095Y-38155238D01*
X62725714Y-38250476D01*
X62773333Y-38440952D01*
X62773333Y-38583809D01*
X62725714Y-38774285D01*
X62678095Y-38869523D01*
X62582857Y-38964761D01*
X62440000Y-39012380D01*
X62201904Y-39012380D01*
X63725714Y-39012380D02*
X63154285Y-39012380D01*
X63440000Y-39012380D02*
X63440000Y-38012380D01*
X63344761Y-38155238D01*
X63249523Y-38250476D01*
X63154285Y-38298095D01*
X67699795Y-38550580D02*
X67699795Y-37550580D01*
X68271223Y-38550580D02*
X67842652Y-37979152D01*
X68271223Y-37550580D02*
X67699795Y-38122009D01*
X67699795Y-38550580D02*
X67699795Y-37550580D01*
X68271223Y-38550580D02*
X67842652Y-37979152D01*
X68271223Y-37550580D02*
X67699795Y-38122009D01*
X64549004Y-127188380D02*
X64549004Y-126188380D01*
X64787100Y-126188380D01*
X64929957Y-126236000D01*
X65025195Y-126331238D01*
X65072814Y-126426476D01*
X65120433Y-126616952D01*
X65120433Y-126759809D01*
X65072814Y-126950285D01*
X65025195Y-127045523D01*
X64929957Y-127140761D01*
X64787100Y-127188380D01*
X64549004Y-127188380D01*
X65501385Y-126283619D02*
X65549004Y-126236000D01*
X65644242Y-126188380D01*
X65882338Y-126188380D01*
X65977576Y-126236000D01*
X66025195Y-126283619D01*
X66072814Y-126378857D01*
X66072814Y-126474095D01*
X66025195Y-126616952D01*
X65453766Y-127188380D01*
X66072814Y-127188380D01*
X62827142Y-124782380D02*
X62255714Y-124782380D01*
X62541428Y-124782380D02*
X62541428Y-123782380D01*
X62446190Y-123925238D01*
X62350952Y-124020476D01*
X62255714Y-124068095D01*
X63255714Y-124782380D02*
X63255714Y-123782380D01*
X63827142Y-124782380D01*
X63827142Y-123782380D01*
X64731904Y-124115714D02*
X64731904Y-124782380D01*
X64493809Y-123734761D02*
X64255714Y-124449047D01*
X64874761Y-124449047D01*
X65779523Y-124782380D02*
X65208095Y-124782380D01*
X65493809Y-124782380D02*
X65493809Y-123782380D01*
X65398571Y-123925238D01*
X65303333Y-124020476D01*
X65208095Y-124068095D01*
X66636666Y-124115714D02*
X66636666Y-124782380D01*
X66398571Y-123734761D02*
X66160476Y-124449047D01*
X66779523Y-124449047D01*
X67303333Y-124210952D02*
X67208095Y-124163333D01*
X67160476Y-124115714D01*
X67112857Y-124020476D01*
X67112857Y-123972857D01*
X67160476Y-123877619D01*
X67208095Y-123830000D01*
X67303333Y-123782380D01*
X67493809Y-123782380D01*
X67589047Y-123830000D01*
X67636666Y-123877619D01*
X67684285Y-123972857D01*
X67684285Y-124020476D01*
X67636666Y-124115714D01*
X67589047Y-124163333D01*
X67493809Y-124210952D01*
X67303333Y-124210952D01*
X67208095Y-124258571D01*
X67160476Y-124306190D01*
X67112857Y-124401428D01*
X67112857Y-124591904D01*
X67160476Y-124687142D01*
X67208095Y-124734761D01*
X67303333Y-124782380D01*
X67493809Y-124782380D01*
X67589047Y-124734761D01*
X67636666Y-124687142D01*
X67684285Y-124591904D01*
X67684285Y-124401428D01*
X67636666Y-124306190D01*
X67589047Y-124258571D01*
X67493809Y-124210952D01*
X70105195Y-126818380D02*
X70105195Y-125818380D01*
X70676623Y-126818380D02*
X70248052Y-126246952D01*
X70676623Y-125818380D02*
X70105195Y-126389809D01*
X70105195Y-126818380D02*
X70105195Y-125818380D01*
X70676623Y-126818380D02*
X70248052Y-126246952D01*
X70676623Y-125818380D02*
X70105195Y-126389809D01*
X64551904Y-127272380D02*
X64551904Y-126272380D01*
X64790000Y-126272380D01*
X64932857Y-126320000D01*
X65028095Y-126415238D01*
X65075714Y-126510476D01*
X65123333Y-126700952D01*
X65123333Y-126843809D01*
X65075714Y-127034285D01*
X65028095Y-127129523D01*
X64932857Y-127224761D01*
X64790000Y-127272380D01*
X64551904Y-127272380D01*
X65504285Y-126367619D02*
X65551904Y-126320000D01*
X65647142Y-126272380D01*
X65885238Y-126272380D01*
X65980476Y-126320000D01*
X66028095Y-126367619D01*
X66075714Y-126462857D01*
X66075714Y-126558095D01*
X66028095Y-126700952D01*
X65456666Y-127272380D01*
X66075714Y-127272380D01*
X63771704Y-170944380D02*
X63771704Y-169944380D01*
X64009800Y-169944380D01*
X64152657Y-169992000D01*
X64247895Y-170087238D01*
X64295514Y-170182476D01*
X64343133Y-170372952D01*
X64343133Y-170515809D01*
X64295514Y-170706285D01*
X64247895Y-170801523D01*
X64152657Y-170896761D01*
X64009800Y-170944380D01*
X63771704Y-170944380D01*
X64676466Y-169944380D02*
X65295514Y-169944380D01*
X64962180Y-170325333D01*
X65105038Y-170325333D01*
X65200276Y-170372952D01*
X65247895Y-170420571D01*
X65295514Y-170515809D01*
X65295514Y-170753904D01*
X65247895Y-170849142D01*
X65200276Y-170896761D01*
X65105038Y-170944380D01*
X64819323Y-170944380D01*
X64724085Y-170896761D01*
X64676466Y-170849142D01*
X62307142Y-168612380D02*
X61735714Y-168612380D01*
X62021428Y-168612380D02*
X62021428Y-167612380D01*
X61926190Y-167755238D01*
X61830952Y-167850476D01*
X61735714Y-167898095D01*
X62735714Y-168612380D02*
X62735714Y-167612380D01*
X63307142Y-168612380D01*
X63307142Y-167612380D01*
X64211904Y-167945714D02*
X64211904Y-168612380D01*
X63973809Y-167564761D02*
X63735714Y-168279047D01*
X64354761Y-168279047D01*
X65259523Y-168612380D02*
X64688095Y-168612380D01*
X64973809Y-168612380D02*
X64973809Y-167612380D01*
X64878571Y-167755238D01*
X64783333Y-167850476D01*
X64688095Y-167898095D01*
X66116666Y-167945714D02*
X66116666Y-168612380D01*
X65878571Y-167564761D02*
X65640476Y-168279047D01*
X66259523Y-168279047D01*
X66783333Y-168040952D02*
X66688095Y-167993333D01*
X66640476Y-167945714D01*
X66592857Y-167850476D01*
X66592857Y-167802857D01*
X66640476Y-167707619D01*
X66688095Y-167660000D01*
X66783333Y-167612380D01*
X66973809Y-167612380D01*
X67069047Y-167660000D01*
X67116666Y-167707619D01*
X67164285Y-167802857D01*
X67164285Y-167850476D01*
X67116666Y-167945714D01*
X67069047Y-167993333D01*
X66973809Y-168040952D01*
X66783333Y-168040952D01*
X66688095Y-168088571D01*
X66640476Y-168136190D01*
X66592857Y-168231428D01*
X66592857Y-168421904D01*
X66640476Y-168517142D01*
X66688095Y-168564761D01*
X66783333Y-168612380D01*
X66973809Y-168612380D01*
X67069047Y-168564761D01*
X67116666Y-168517142D01*
X67164285Y-168421904D01*
X67164285Y-168231428D01*
X67116666Y-168136190D01*
X67069047Y-168088571D01*
X66973809Y-168040952D01*
X69327895Y-170574380D02*
X69327895Y-169574380D01*
X69899323Y-170574380D02*
X69470752Y-170002952D01*
X69899323Y-169574380D02*
X69327895Y-170145809D01*
X69327895Y-170574380D02*
X69327895Y-169574380D01*
X69899323Y-170574380D02*
X69470752Y-170002952D01*
X69899323Y-169574380D02*
X69327895Y-170145809D01*
X63781904Y-170972380D02*
X63781904Y-169972380D01*
X64020000Y-169972380D01*
X64162857Y-170020000D01*
X64258095Y-170115238D01*
X64305714Y-170210476D01*
X64353333Y-170400952D01*
X64353333Y-170543809D01*
X64305714Y-170734285D01*
X64258095Y-170829523D01*
X64162857Y-170924761D01*
X64020000Y-170972380D01*
X63781904Y-170972380D01*
X64686666Y-169972380D02*
X65305714Y-169972380D01*
X64972380Y-170353333D01*
X65115238Y-170353333D01*
X65210476Y-170400952D01*
X65258095Y-170448571D01*
X65305714Y-170543809D01*
X65305714Y-170781904D01*
X65258095Y-170877142D01*
X65210476Y-170924761D01*
X65115238Y-170972380D01*
X64829523Y-170972380D01*
X64734285Y-170924761D01*
X64686666Y-170877142D01*
X61186004Y-82687280D02*
X61186004Y-81687280D01*
X61424100Y-81687280D01*
X61566957Y-81734900D01*
X61662195Y-81830138D01*
X61709814Y-81925376D01*
X61757433Y-82115852D01*
X61757433Y-82258709D01*
X61709814Y-82449185D01*
X61662195Y-82544423D01*
X61566957Y-82639661D01*
X61424100Y-82687280D01*
X61186004Y-82687280D01*
X62614576Y-82020614D02*
X62614576Y-82687280D01*
X62376480Y-81639661D02*
X62138385Y-82353947D01*
X62757433Y-82353947D01*
X59567142Y-80232380D02*
X58995714Y-80232380D01*
X59281428Y-80232380D02*
X59281428Y-79232380D01*
X59186190Y-79375238D01*
X59090952Y-79470476D01*
X58995714Y-79518095D01*
X59995714Y-80232380D02*
X59995714Y-79232380D01*
X60567142Y-80232380D01*
X60567142Y-79232380D01*
X61471904Y-79565714D02*
X61471904Y-80232380D01*
X61233809Y-79184761D02*
X60995714Y-79899047D01*
X61614761Y-79899047D01*
X62519523Y-80232380D02*
X61948095Y-80232380D01*
X62233809Y-80232380D02*
X62233809Y-79232380D01*
X62138571Y-79375238D01*
X62043333Y-79470476D01*
X61948095Y-79518095D01*
X63376666Y-79565714D02*
X63376666Y-80232380D01*
X63138571Y-79184761D02*
X62900476Y-79899047D01*
X63519523Y-79899047D01*
X64043333Y-79660952D02*
X63948095Y-79613333D01*
X63900476Y-79565714D01*
X63852857Y-79470476D01*
X63852857Y-79422857D01*
X63900476Y-79327619D01*
X63948095Y-79280000D01*
X64043333Y-79232380D01*
X64233809Y-79232380D01*
X64329047Y-79280000D01*
X64376666Y-79327619D01*
X64424285Y-79422857D01*
X64424285Y-79470476D01*
X64376666Y-79565714D01*
X64329047Y-79613333D01*
X64233809Y-79660952D01*
X64043333Y-79660952D01*
X63948095Y-79708571D01*
X63900476Y-79756190D01*
X63852857Y-79851428D01*
X63852857Y-80041904D01*
X63900476Y-80137142D01*
X63948095Y-80184761D01*
X64043333Y-80232380D01*
X64233809Y-80232380D01*
X64329047Y-80184761D01*
X64376666Y-80137142D01*
X64424285Y-80041904D01*
X64424285Y-79851428D01*
X64376666Y-79756190D01*
X64329047Y-79708571D01*
X64233809Y-79660952D01*
X61151904Y-82712380D02*
X61151904Y-81712380D01*
X61390000Y-81712380D01*
X61532857Y-81760000D01*
X61628095Y-81855238D01*
X61675714Y-81950476D01*
X61723333Y-82140952D01*
X61723333Y-82283809D01*
X61675714Y-82474285D01*
X61628095Y-82569523D01*
X61532857Y-82664761D01*
X61390000Y-82712380D01*
X61151904Y-82712380D01*
X62580476Y-82045714D02*
X62580476Y-82712380D01*
X62342380Y-81664761D02*
X62104285Y-82379047D01*
X62723333Y-82379047D01*
X66742195Y-82317280D02*
X66742195Y-81317280D01*
X67313623Y-82317280D02*
X66885052Y-81745852D01*
X67313623Y-81317280D02*
X66742195Y-81888709D01*
X66742195Y-82317280D02*
X66742195Y-81317280D01*
X67313623Y-82317280D02*
X66885052Y-81745852D01*
X67313623Y-81317280D02*
X66742195Y-81888709D01*
X54396666Y-110246380D02*
X54396666Y-110960666D01*
X54349047Y-111103523D01*
X54253809Y-111198761D01*
X54110952Y-111246380D01*
X54015714Y-111246380D01*
X55396666Y-111246380D02*
X54825238Y-111246380D01*
X55110952Y-111246380D02*
X55110952Y-110246380D01*
X55015714Y-110389238D01*
X54920476Y-110484476D01*
X54825238Y-110532095D01*
X51358491Y-112920800D02*
X51263253Y-112873180D01*
X51120396Y-112873180D01*
X50977539Y-112920800D01*
X50882300Y-113016038D01*
X50834681Y-113111276D01*
X50787062Y-113301752D01*
X50787062Y-113444609D01*
X50834681Y-113635085D01*
X50882300Y-113730323D01*
X50977539Y-113825561D01*
X51120396Y-113873180D01*
X51215634Y-113873180D01*
X51358491Y-113825561D01*
X51406110Y-113777942D01*
X51406110Y-113444609D01*
X51215634Y-113444609D01*
X52263253Y-113873180D02*
X52263253Y-113349371D01*
X52215634Y-113254133D01*
X52120396Y-113206514D01*
X51929920Y-113206514D01*
X51834681Y-113254133D01*
X52263253Y-113825561D02*
X52168015Y-113873180D01*
X51929920Y-113873180D01*
X51834681Y-113825561D01*
X51787062Y-113730323D01*
X51787062Y-113635085D01*
X51834681Y-113539847D01*
X51929920Y-113492228D01*
X52168015Y-113492228D01*
X52263253Y-113444609D01*
X52596586Y-113206514D02*
X52977539Y-113206514D01*
X52739443Y-112873180D02*
X52739443Y-113730323D01*
X52787062Y-113825561D01*
X52882300Y-113873180D01*
X52977539Y-113873180D01*
X53691824Y-113825561D02*
X53596586Y-113873180D01*
X53406110Y-113873180D01*
X53310872Y-113825561D01*
X53263253Y-113730323D01*
X53263253Y-113349371D01*
X53310872Y-113254133D01*
X53406110Y-113206514D01*
X53596586Y-113206514D01*
X53691824Y-113254133D01*
X53739443Y-113349371D01*
X53739443Y-113444609D01*
X53263253Y-113539847D01*
X54072777Y-112873180D02*
X54691824Y-112873180D01*
X54358491Y-113254133D01*
X54501348Y-113254133D01*
X54596586Y-113301752D01*
X54644205Y-113349371D01*
X54691824Y-113444609D01*
X54691824Y-113682704D01*
X54644205Y-113777942D01*
X54596586Y-113825561D01*
X54501348Y-113873180D01*
X54215634Y-113873180D01*
X54120396Y-113825561D01*
X54072777Y-113777942D01*
X55120396Y-113873180D02*
X55120396Y-113206514D01*
X55120396Y-112873180D02*
X55072777Y-112920800D01*
X55120396Y-112968419D01*
X55168015Y-112920800D01*
X55120396Y-112873180D01*
X55120396Y-112968419D01*
X55596586Y-113206514D02*
X55596586Y-113873180D01*
X55596586Y-113301752D02*
X55644205Y-113254133D01*
X55739443Y-113206514D01*
X55882300Y-113206514D01*
X55977539Y-113254133D01*
X56025158Y-113349371D01*
X56025158Y-113873180D01*
X54396666Y-22246380D02*
X54396666Y-22960666D01*
X54349047Y-23103523D01*
X54253809Y-23198761D01*
X54110952Y-23246380D01*
X54015714Y-23246380D01*
X54825238Y-22341619D02*
X54872857Y-22294000D01*
X54968095Y-22246380D01*
X55206190Y-22246380D01*
X55301428Y-22294000D01*
X55349047Y-22341619D01*
X55396666Y-22436857D01*
X55396666Y-22532095D01*
X55349047Y-22674952D01*
X54777619Y-23246380D01*
X55396666Y-23246380D01*
X52912571Y-24326000D02*
X52817333Y-24278380D01*
X52674476Y-24278380D01*
X52531619Y-24326000D01*
X52436380Y-24421238D01*
X52388761Y-24516476D01*
X52341142Y-24706952D01*
X52341142Y-24849809D01*
X52388761Y-25040285D01*
X52436380Y-25135523D01*
X52531619Y-25230761D01*
X52674476Y-25278380D01*
X52769714Y-25278380D01*
X52912571Y-25230761D01*
X52960190Y-25183142D01*
X52960190Y-24849809D01*
X52769714Y-24849809D01*
X53817333Y-25278380D02*
X53817333Y-24754571D01*
X53769714Y-24659333D01*
X53674476Y-24611714D01*
X53484000Y-24611714D01*
X53388761Y-24659333D01*
X53817333Y-25230761D02*
X53722095Y-25278380D01*
X53484000Y-25278380D01*
X53388761Y-25230761D01*
X53341142Y-25135523D01*
X53341142Y-25040285D01*
X53388761Y-24945047D01*
X53484000Y-24897428D01*
X53722095Y-24897428D01*
X53817333Y-24849809D01*
X54150666Y-24611714D02*
X54531619Y-24611714D01*
X54293523Y-24278380D02*
X54293523Y-25135523D01*
X54341142Y-25230761D01*
X54436380Y-25278380D01*
X54531619Y-25278380D01*
X55245904Y-25230761D02*
X55150666Y-25278380D01*
X54960190Y-25278380D01*
X54864952Y-25230761D01*
X54817333Y-25135523D01*
X54817333Y-24754571D01*
X54864952Y-24659333D01*
X54960190Y-24611714D01*
X55150666Y-24611714D01*
X55245904Y-24659333D01*
X55293523Y-24754571D01*
X55293523Y-24849809D01*
X54817333Y-24945047D01*
X56245904Y-25278380D02*
X55674476Y-25278380D01*
X55960190Y-25278380D02*
X55960190Y-24278380D01*
X55864952Y-24421238D01*
X55769714Y-24516476D01*
X55674476Y-24564095D01*
X56674476Y-25278380D02*
X56674476Y-24611714D01*
X56674476Y-24278380D02*
X56626857Y-24326000D01*
X56674476Y-24373619D01*
X56722095Y-24326000D01*
X56674476Y-24278380D01*
X56674476Y-24373619D01*
X57150666Y-24611714D02*
X57150666Y-25278380D01*
X57150666Y-24706952D02*
X57198285Y-24659333D01*
X57293523Y-24611714D01*
X57436380Y-24611714D01*
X57531619Y-24659333D01*
X57579238Y-24754571D01*
X57579238Y-25278380D01*
X54396666Y-154246380D02*
X54396666Y-154960666D01*
X54349047Y-155103523D01*
X54253809Y-155198761D01*
X54110952Y-155246380D01*
X54015714Y-155246380D01*
X54777619Y-154246380D02*
X55396666Y-154246380D01*
X55063333Y-154627333D01*
X55206190Y-154627333D01*
X55301428Y-154674952D01*
X55349047Y-154722571D01*
X55396666Y-154817809D01*
X55396666Y-155055904D01*
X55349047Y-155151142D01*
X55301428Y-155198761D01*
X55206190Y-155246380D01*
X54920476Y-155246380D01*
X54825238Y-155198761D01*
X54777619Y-155151142D01*
X52912571Y-156326000D02*
X52817333Y-156278380D01*
X52674476Y-156278380D01*
X52531619Y-156326000D01*
X52436380Y-156421238D01*
X52388761Y-156516476D01*
X52341142Y-156706952D01*
X52341142Y-156849809D01*
X52388761Y-157040285D01*
X52436380Y-157135523D01*
X52531619Y-157230761D01*
X52674476Y-157278380D01*
X52769714Y-157278380D01*
X52912571Y-157230761D01*
X52960190Y-157183142D01*
X52960190Y-156849809D01*
X52769714Y-156849809D01*
X53817333Y-157278380D02*
X53817333Y-156754571D01*
X53769714Y-156659333D01*
X53674476Y-156611714D01*
X53484000Y-156611714D01*
X53388761Y-156659333D01*
X53817333Y-157230761D02*
X53722095Y-157278380D01*
X53484000Y-157278380D01*
X53388761Y-157230761D01*
X53341142Y-157135523D01*
X53341142Y-157040285D01*
X53388761Y-156945047D01*
X53484000Y-156897428D01*
X53722095Y-156897428D01*
X53817333Y-156849809D01*
X54150666Y-156611714D02*
X54531619Y-156611714D01*
X54293523Y-156278380D02*
X54293523Y-157135523D01*
X54341142Y-157230761D01*
X54436380Y-157278380D01*
X54531619Y-157278380D01*
X55245904Y-157230761D02*
X55150666Y-157278380D01*
X54960190Y-157278380D01*
X54864952Y-157230761D01*
X54817333Y-157135523D01*
X54817333Y-156754571D01*
X54864952Y-156659333D01*
X54960190Y-156611714D01*
X55150666Y-156611714D01*
X55245904Y-156659333D01*
X55293523Y-156754571D01*
X55293523Y-156849809D01*
X54817333Y-156945047D01*
X56150666Y-156611714D02*
X56150666Y-157278380D01*
X55912571Y-156230761D02*
X55674476Y-156945047D01*
X56293523Y-156945047D01*
X56674476Y-157278380D02*
X56674476Y-156611714D01*
X56674476Y-156278380D02*
X56626857Y-156326000D01*
X56674476Y-156373619D01*
X56722095Y-156326000D01*
X56674476Y-156278380D01*
X56674476Y-156373619D01*
X57150666Y-156611714D02*
X57150666Y-157278380D01*
X57150666Y-156706952D02*
X57198285Y-156659333D01*
X57293523Y-156611714D01*
X57436380Y-156611714D01*
X57531619Y-156659333D01*
X57579238Y-156754571D01*
X57579238Y-157278380D01*
X79396666Y-88246380D02*
X79396666Y-88960666D01*
X79349047Y-89103523D01*
X79253809Y-89198761D01*
X79110952Y-89246380D01*
X79015714Y-89246380D01*
X80301428Y-88579714D02*
X80301428Y-89246380D01*
X80063333Y-88198761D02*
X79825238Y-88913047D01*
X80444285Y-88913047D01*
X79155012Y-89919240D02*
X79726440Y-89919240D01*
X79440726Y-90919240D02*
X79440726Y-89919240D01*
X80631202Y-90919240D02*
X80297869Y-90443050D01*
X80059774Y-90919240D02*
X80059774Y-89919240D01*
X80440726Y-89919240D01*
X80535964Y-89966860D01*
X80583583Y-90014479D01*
X80631202Y-90109717D01*
X80631202Y-90252574D01*
X80583583Y-90347812D01*
X80535964Y-90395431D01*
X80440726Y-90443050D01*
X80059774Y-90443050D01*
X81059774Y-90919240D02*
X81059774Y-89919240D01*
X82059774Y-89966860D02*
X81964536Y-89919240D01*
X81821679Y-89919240D01*
X81678821Y-89966860D01*
X81583583Y-90062098D01*
X81535964Y-90157336D01*
X81488345Y-90347812D01*
X81488345Y-90490669D01*
X81535964Y-90681145D01*
X81583583Y-90776383D01*
X81678821Y-90871621D01*
X81821679Y-90919240D01*
X81916917Y-90919240D01*
X82059774Y-90871621D01*
X82107393Y-90824002D01*
X82107393Y-90490669D01*
X81916917Y-90490669D01*
X82535964Y-90538288D02*
X83297869Y-90538288D01*
X83726440Y-90014479D02*
X83774060Y-89966860D01*
X83869298Y-89919240D01*
X84107393Y-89919240D01*
X84202631Y-89966860D01*
X84250250Y-90014479D01*
X84297869Y-90109717D01*
X84297869Y-90204955D01*
X84250250Y-90347812D01*
X83678821Y-90919240D01*
X84297869Y-90919240D01*
X54396666Y-66246380D02*
X54396666Y-66960666D01*
X54349047Y-67103523D01*
X54253809Y-67198761D01*
X54110952Y-67246380D01*
X54015714Y-67246380D01*
X55349047Y-66246380D02*
X54872857Y-66246380D01*
X54825238Y-66722571D01*
X54872857Y-66674952D01*
X54968095Y-66627333D01*
X55206190Y-66627333D01*
X55301428Y-66674952D01*
X55349047Y-66722571D01*
X55396666Y-66817809D01*
X55396666Y-67055904D01*
X55349047Y-67151142D01*
X55301428Y-67198761D01*
X55206190Y-67246380D01*
X54968095Y-67246380D01*
X54872857Y-67198761D01*
X54825238Y-67151142D01*
X52912571Y-68326000D02*
X52817333Y-68278380D01*
X52674476Y-68278380D01*
X52531619Y-68326000D01*
X52436380Y-68421238D01*
X52388761Y-68516476D01*
X52341142Y-68706952D01*
X52341142Y-68849809D01*
X52388761Y-69040285D01*
X52436380Y-69135523D01*
X52531619Y-69230761D01*
X52674476Y-69278380D01*
X52769714Y-69278380D01*
X52912571Y-69230761D01*
X52960190Y-69183142D01*
X52960190Y-68849809D01*
X52769714Y-68849809D01*
X53817333Y-69278380D02*
X53817333Y-68754571D01*
X53769714Y-68659333D01*
X53674476Y-68611714D01*
X53484000Y-68611714D01*
X53388761Y-68659333D01*
X53817333Y-69230761D02*
X53722095Y-69278380D01*
X53484000Y-69278380D01*
X53388761Y-69230761D01*
X53341142Y-69135523D01*
X53341142Y-69040285D01*
X53388761Y-68945047D01*
X53484000Y-68897428D01*
X53722095Y-68897428D01*
X53817333Y-68849809D01*
X54150666Y-68611714D02*
X54531619Y-68611714D01*
X54293523Y-68278380D02*
X54293523Y-69135523D01*
X54341142Y-69230761D01*
X54436380Y-69278380D01*
X54531619Y-69278380D01*
X55245904Y-69230761D02*
X55150666Y-69278380D01*
X54960190Y-69278380D01*
X54864952Y-69230761D01*
X54817333Y-69135523D01*
X54817333Y-68754571D01*
X54864952Y-68659333D01*
X54960190Y-68611714D01*
X55150666Y-68611714D01*
X55245904Y-68659333D01*
X55293523Y-68754571D01*
X55293523Y-68849809D01*
X54817333Y-68945047D01*
X55674476Y-68373619D02*
X55722095Y-68326000D01*
X55817333Y-68278380D01*
X56055428Y-68278380D01*
X56150666Y-68326000D01*
X56198285Y-68373619D01*
X56245904Y-68468857D01*
X56245904Y-68564095D01*
X56198285Y-68706952D01*
X55626857Y-69278380D01*
X56245904Y-69278380D01*
X56674476Y-69278380D02*
X56674476Y-68611714D01*
X56674476Y-68278380D02*
X56626857Y-68326000D01*
X56674476Y-68373619D01*
X56722095Y-68326000D01*
X56674476Y-68278380D01*
X56674476Y-68373619D01*
X57150666Y-68611714D02*
X57150666Y-69278380D01*
X57150666Y-68706952D02*
X57198285Y-68659333D01*
X57293523Y-68611714D01*
X57436380Y-68611714D01*
X57531619Y-68659333D01*
X57579238Y-68754571D01*
X57579238Y-69278380D01*
X79396666Y-44246380D02*
X79396666Y-44960666D01*
X79349047Y-45103523D01*
X79253809Y-45198761D01*
X79110952Y-45246380D01*
X79015714Y-45246380D01*
X79777619Y-44246380D02*
X80444285Y-44246380D01*
X80015714Y-45246380D01*
X77364952Y-46278380D02*
X77936380Y-46278380D01*
X77650666Y-47278380D02*
X77650666Y-46278380D01*
X78841142Y-47278380D02*
X78507809Y-46802190D01*
X78269714Y-47278380D02*
X78269714Y-46278380D01*
X78650666Y-46278380D01*
X78745904Y-46326000D01*
X78793523Y-46373619D01*
X78841142Y-46468857D01*
X78841142Y-46611714D01*
X78793523Y-46706952D01*
X78745904Y-46754571D01*
X78650666Y-46802190D01*
X78269714Y-46802190D01*
X79269714Y-47278380D02*
X79269714Y-46278380D01*
X80269714Y-46326000D02*
X80174476Y-46278380D01*
X80031619Y-46278380D01*
X79888761Y-46326000D01*
X79793523Y-46421238D01*
X79745904Y-46516476D01*
X79698285Y-46706952D01*
X79698285Y-46849809D01*
X79745904Y-47040285D01*
X79793523Y-47135523D01*
X79888761Y-47230761D01*
X80031619Y-47278380D01*
X80126857Y-47278380D01*
X80269714Y-47230761D01*
X80317333Y-47183142D01*
X80317333Y-46849809D01*
X80126857Y-46849809D01*
X80745904Y-46897428D02*
X81507809Y-46897428D01*
X82507809Y-47278380D02*
X81936380Y-47278380D01*
X82222095Y-47278380D02*
X82222095Y-46278380D01*
X82126857Y-46421238D01*
X82031619Y-46516476D01*
X81936380Y-46564095D01*
X79396666Y-132246380D02*
X79396666Y-132960666D01*
X79349047Y-133103523D01*
X79253809Y-133198761D01*
X79110952Y-133246380D01*
X79015714Y-133246380D01*
X80015714Y-132674952D02*
X79920476Y-132627333D01*
X79872857Y-132579714D01*
X79825238Y-132484476D01*
X79825238Y-132436857D01*
X79872857Y-132341619D01*
X79920476Y-132294000D01*
X80015714Y-132246380D01*
X80206190Y-132246380D01*
X80301428Y-132294000D01*
X80349047Y-132341619D01*
X80396666Y-132436857D01*
X80396666Y-132484476D01*
X80349047Y-132579714D01*
X80301428Y-132627333D01*
X80206190Y-132674952D01*
X80015714Y-132674952D01*
X79920476Y-132722571D01*
X79872857Y-132770190D01*
X79825238Y-132865428D01*
X79825238Y-133055904D01*
X79872857Y-133151142D01*
X79920476Y-133198761D01*
X80015714Y-133246380D01*
X80206190Y-133246380D01*
X80301428Y-133198761D01*
X80349047Y-133151142D01*
X80396666Y-133055904D01*
X80396666Y-132865428D01*
X80349047Y-132770190D01*
X80301428Y-132722571D01*
X80206190Y-132674952D01*
X78032472Y-134060980D02*
X78603900Y-134060980D01*
X78318186Y-135060980D02*
X78318186Y-134060980D01*
X79508662Y-135060980D02*
X79175329Y-134584790D01*
X78937234Y-135060980D02*
X78937234Y-134060980D01*
X79318186Y-134060980D01*
X79413424Y-134108600D01*
X79461043Y-134156219D01*
X79508662Y-134251457D01*
X79508662Y-134394314D01*
X79461043Y-134489552D01*
X79413424Y-134537171D01*
X79318186Y-134584790D01*
X78937234Y-134584790D01*
X79937234Y-135060980D02*
X79937234Y-134060980D01*
X80937234Y-134108600D02*
X80841996Y-134060980D01*
X80699139Y-134060980D01*
X80556281Y-134108600D01*
X80461043Y-134203838D01*
X80413424Y-134299076D01*
X80365805Y-134489552D01*
X80365805Y-134632409D01*
X80413424Y-134822885D01*
X80461043Y-134918123D01*
X80556281Y-135013361D01*
X80699139Y-135060980D01*
X80794377Y-135060980D01*
X80937234Y-135013361D01*
X80984853Y-134965742D01*
X80984853Y-134632409D01*
X80794377Y-134632409D01*
X81413424Y-134680028D02*
X82175329Y-134680028D01*
X82556281Y-134060980D02*
X83175329Y-134060980D01*
X82841996Y-134441933D01*
X82984853Y-134441933D01*
X83080091Y-134489552D01*
X83127710Y-134537171D01*
X83175329Y-134632409D01*
X83175329Y-134870504D01*
X83127710Y-134965742D01*
X83080091Y-135013361D01*
X82984853Y-135060980D01*
X82699139Y-135060980D01*
X82603900Y-135013361D01*
X82556281Y-134965742D01*
X79396666Y-176246380D02*
X79396666Y-176960666D01*
X79349047Y-177103523D01*
X79253809Y-177198761D01*
X79110952Y-177246380D01*
X79015714Y-177246380D01*
X79920476Y-177246380D02*
X80110952Y-177246380D01*
X80206190Y-177198761D01*
X80253809Y-177151142D01*
X80349047Y-177008285D01*
X80396666Y-176817809D01*
X80396666Y-176436857D01*
X80349047Y-176341619D01*
X80301428Y-176294000D01*
X80206190Y-176246380D01*
X80015714Y-176246380D01*
X79920476Y-176294000D01*
X79872857Y-176341619D01*
X79825238Y-176436857D01*
X79825238Y-176674952D01*
X79872857Y-176770190D01*
X79920476Y-176817809D01*
X80015714Y-176865428D01*
X80206190Y-176865428D01*
X80301428Y-176817809D01*
X80349047Y-176770190D01*
X80396666Y-176674952D01*
X77301792Y-178399300D02*
X77873220Y-178399300D01*
X77587506Y-179399300D02*
X77587506Y-178399300D01*
X78777982Y-179399300D02*
X78444649Y-178923110D01*
X78206554Y-179399300D02*
X78206554Y-178399300D01*
X78587506Y-178399300D01*
X78682744Y-178446920D01*
X78730363Y-178494539D01*
X78777982Y-178589777D01*
X78777982Y-178732634D01*
X78730363Y-178827872D01*
X78682744Y-178875491D01*
X78587506Y-178923110D01*
X78206554Y-178923110D01*
X79206554Y-179399300D02*
X79206554Y-178399300D01*
X80206554Y-178446920D02*
X80111316Y-178399300D01*
X79968459Y-178399300D01*
X79825601Y-178446920D01*
X79730363Y-178542158D01*
X79682744Y-178637396D01*
X79635125Y-178827872D01*
X79635125Y-178970729D01*
X79682744Y-179161205D01*
X79730363Y-179256443D01*
X79825601Y-179351681D01*
X79968459Y-179399300D01*
X80063697Y-179399300D01*
X80206554Y-179351681D01*
X80254173Y-179304062D01*
X80254173Y-178970729D01*
X80063697Y-178970729D01*
X80682744Y-179018348D02*
X81444649Y-179018348D01*
X82349411Y-178732634D02*
X82349411Y-179399300D01*
X82111316Y-178351681D02*
X81873220Y-179065967D01*
X82492268Y-179065967D01*
X53920476Y-44246380D02*
X53920476Y-44960666D01*
X53872857Y-45103523D01*
X53777619Y-45198761D01*
X53634761Y-45246380D01*
X53539523Y-45246380D01*
X54920476Y-45246380D02*
X54349047Y-45246380D01*
X54634761Y-45246380D02*
X54634761Y-44246380D01*
X54539523Y-44389238D01*
X54444285Y-44484476D01*
X54349047Y-44532095D01*
X55539523Y-44246380D02*
X55634761Y-44246380D01*
X55730000Y-44294000D01*
X55777619Y-44341619D01*
X55825238Y-44436857D01*
X55872857Y-44627333D01*
X55872857Y-44865428D01*
X55825238Y-45055904D01*
X55777619Y-45151142D01*
X55730000Y-45198761D01*
X55634761Y-45246380D01*
X55539523Y-45246380D01*
X55444285Y-45198761D01*
X55396666Y-45151142D01*
X55349047Y-45055904D01*
X55301428Y-44865428D01*
X55301428Y-44627333D01*
X55349047Y-44436857D01*
X55396666Y-44341619D01*
X55444285Y-44294000D01*
X55539523Y-44246380D01*
X52984000Y-46326000D02*
X52888761Y-46278380D01*
X52745904Y-46278380D01*
X52603047Y-46326000D01*
X52507809Y-46421238D01*
X52460190Y-46516476D01*
X52412571Y-46706952D01*
X52412571Y-46849809D01*
X52460190Y-47040285D01*
X52507809Y-47135523D01*
X52603047Y-47230761D01*
X52745904Y-47278380D01*
X52841142Y-47278380D01*
X52984000Y-47230761D01*
X53031619Y-47183142D01*
X53031619Y-46849809D01*
X52841142Y-46849809D01*
X53888761Y-47278380D02*
X53888761Y-46754571D01*
X53841142Y-46659333D01*
X53745904Y-46611714D01*
X53555428Y-46611714D01*
X53460190Y-46659333D01*
X53888761Y-47230761D02*
X53793523Y-47278380D01*
X53555428Y-47278380D01*
X53460190Y-47230761D01*
X53412571Y-47135523D01*
X53412571Y-47040285D01*
X53460190Y-46945047D01*
X53555428Y-46897428D01*
X53793523Y-46897428D01*
X53888761Y-46849809D01*
X54222095Y-46611714D02*
X54603047Y-46611714D01*
X54364952Y-46278380D02*
X54364952Y-47135523D01*
X54412571Y-47230761D01*
X54507809Y-47278380D01*
X54603047Y-47278380D01*
X55317333Y-47230761D02*
X55222095Y-47278380D01*
X55031619Y-47278380D01*
X54936380Y-47230761D01*
X54888761Y-47135523D01*
X54888761Y-46754571D01*
X54936380Y-46659333D01*
X55031619Y-46611714D01*
X55222095Y-46611714D01*
X55317333Y-46659333D01*
X55364952Y-46754571D01*
X55364952Y-46849809D01*
X54888761Y-46945047D01*
X55793523Y-46897428D02*
X56555428Y-46897428D01*
X57555428Y-47278380D02*
X56984000Y-47278380D01*
X57269714Y-47278380D02*
X57269714Y-46278380D01*
X57174476Y-46421238D01*
X57079238Y-46516476D01*
X56984000Y-46564095D01*
X53920476Y-88246380D02*
X53920476Y-88960666D01*
X53872857Y-89103523D01*
X53777619Y-89198761D01*
X53634761Y-89246380D01*
X53539523Y-89246380D01*
X54920476Y-89246380D02*
X54349047Y-89246380D01*
X54634761Y-89246380D02*
X54634761Y-88246380D01*
X54539523Y-88389238D01*
X54444285Y-88484476D01*
X54349047Y-88532095D01*
X55872857Y-89246380D02*
X55301428Y-89246380D01*
X55587142Y-89246380D02*
X55587142Y-88246380D01*
X55491904Y-88389238D01*
X55396666Y-88484476D01*
X55301428Y-88532095D01*
X55334720Y-89444760D02*
X55239481Y-89397140D01*
X55096624Y-89397140D01*
X54953767Y-89444760D01*
X54858529Y-89539998D01*
X54810910Y-89635236D01*
X54763291Y-89825712D01*
X54763291Y-89968569D01*
X54810910Y-90159045D01*
X54858529Y-90254283D01*
X54953767Y-90349521D01*
X55096624Y-90397140D01*
X55191862Y-90397140D01*
X55334720Y-90349521D01*
X55382339Y-90301902D01*
X55382339Y-89968569D01*
X55191862Y-89968569D01*
X56239481Y-90397140D02*
X56239481Y-89873331D01*
X56191862Y-89778093D01*
X56096624Y-89730474D01*
X55906148Y-89730474D01*
X55810910Y-89778093D01*
X56239481Y-90349521D02*
X56144243Y-90397140D01*
X55906148Y-90397140D01*
X55810910Y-90349521D01*
X55763291Y-90254283D01*
X55763291Y-90159045D01*
X55810910Y-90063807D01*
X55906148Y-90016188D01*
X56144243Y-90016188D01*
X56239481Y-89968569D01*
X56572815Y-89730474D02*
X56953767Y-89730474D01*
X56715672Y-89397140D02*
X56715672Y-90254283D01*
X56763291Y-90349521D01*
X56858529Y-90397140D01*
X56953767Y-90397140D01*
X57668053Y-90349521D02*
X57572815Y-90397140D01*
X57382339Y-90397140D01*
X57287100Y-90349521D01*
X57239481Y-90254283D01*
X57239481Y-89873331D01*
X57287100Y-89778093D01*
X57382339Y-89730474D01*
X57572815Y-89730474D01*
X57668053Y-89778093D01*
X57715672Y-89873331D01*
X57715672Y-89968569D01*
X57239481Y-90063807D01*
X58144243Y-90016188D02*
X58906148Y-90016188D01*
X59334720Y-89492379D02*
X59382339Y-89444760D01*
X59477577Y-89397140D01*
X59715672Y-89397140D01*
X59810910Y-89444760D01*
X59858529Y-89492379D01*
X59906148Y-89587617D01*
X59906148Y-89682855D01*
X59858529Y-89825712D01*
X59287100Y-90397140D01*
X59906148Y-90397140D01*
X56208456Y-132246380D02*
X56208456Y-132960666D01*
X56160837Y-133103523D01*
X56065599Y-133198761D01*
X55922741Y-133246380D01*
X55827503Y-133246380D01*
X57208456Y-133246380D02*
X56637027Y-133246380D01*
X56922741Y-133246380D02*
X56922741Y-132246380D01*
X56827503Y-132389238D01*
X56732265Y-132484476D01*
X56637027Y-132532095D01*
X57589408Y-132341619D02*
X57637027Y-132294000D01*
X57732265Y-132246380D01*
X57970360Y-132246380D01*
X58065599Y-132294000D01*
X58113218Y-132341619D01*
X58160837Y-132436857D01*
X58160837Y-132532095D01*
X58113218Y-132674952D01*
X57541789Y-133246380D01*
X58160837Y-133246380D01*
X52984000Y-134441800D02*
X52888761Y-134394180D01*
X52745904Y-134394180D01*
X52603047Y-134441800D01*
X52507809Y-134537038D01*
X52460190Y-134632276D01*
X52412571Y-134822752D01*
X52412571Y-134965609D01*
X52460190Y-135156085D01*
X52507809Y-135251323D01*
X52603047Y-135346561D01*
X52745904Y-135394180D01*
X52841142Y-135394180D01*
X52984000Y-135346561D01*
X53031619Y-135298942D01*
X53031619Y-134965609D01*
X52841142Y-134965609D01*
X53888761Y-135394180D02*
X53888761Y-134870371D01*
X53841142Y-134775133D01*
X53745904Y-134727514D01*
X53555428Y-134727514D01*
X53460190Y-134775133D01*
X53888761Y-135346561D02*
X53793523Y-135394180D01*
X53555428Y-135394180D01*
X53460190Y-135346561D01*
X53412571Y-135251323D01*
X53412571Y-135156085D01*
X53460190Y-135060847D01*
X53555428Y-135013228D01*
X53793523Y-135013228D01*
X53888761Y-134965609D01*
X54222095Y-134727514D02*
X54603047Y-134727514D01*
X54364952Y-134394180D02*
X54364952Y-135251323D01*
X54412571Y-135346561D01*
X54507809Y-135394180D01*
X54603047Y-135394180D01*
X55317333Y-135346561D02*
X55222095Y-135394180D01*
X55031619Y-135394180D01*
X54936380Y-135346561D01*
X54888761Y-135251323D01*
X54888761Y-134870371D01*
X54936380Y-134775133D01*
X55031619Y-134727514D01*
X55222095Y-134727514D01*
X55317333Y-134775133D01*
X55364952Y-134870371D01*
X55364952Y-134965609D01*
X54888761Y-135060847D01*
X55793523Y-135013228D02*
X56555428Y-135013228D01*
X56936380Y-134394180D02*
X57555428Y-134394180D01*
X57222095Y-134775133D01*
X57364952Y-134775133D01*
X57460190Y-134822752D01*
X57507809Y-134870371D01*
X57555428Y-134965609D01*
X57555428Y-135203704D01*
X57507809Y-135298942D01*
X57460190Y-135346561D01*
X57364952Y-135394180D01*
X57079238Y-135394180D01*
X56984000Y-135346561D01*
X56936380Y-135298942D01*
X53920476Y-176246380D02*
X53920476Y-176960666D01*
X53872857Y-177103523D01*
X53777619Y-177198761D01*
X53634761Y-177246380D01*
X53539523Y-177246380D01*
X54920476Y-177246380D02*
X54349047Y-177246380D01*
X54634761Y-177246380D02*
X54634761Y-176246380D01*
X54539523Y-176389238D01*
X54444285Y-176484476D01*
X54349047Y-176532095D01*
X55253809Y-176246380D02*
X55872857Y-176246380D01*
X55539523Y-176627333D01*
X55682380Y-176627333D01*
X55777619Y-176674952D01*
X55825238Y-176722571D01*
X55872857Y-176817809D01*
X55872857Y-177055904D01*
X55825238Y-177151142D01*
X55777619Y-177198761D01*
X55682380Y-177246380D01*
X55396666Y-177246380D01*
X55301428Y-177198761D01*
X55253809Y-177151142D01*
X53688500Y-179915040D02*
X53593261Y-179867420D01*
X53450404Y-179867420D01*
X53307547Y-179915040D01*
X53212309Y-180010278D01*
X53164690Y-180105516D01*
X53117071Y-180295992D01*
X53117071Y-180438849D01*
X53164690Y-180629325D01*
X53212309Y-180724563D01*
X53307547Y-180819801D01*
X53450404Y-180867420D01*
X53545642Y-180867420D01*
X53688500Y-180819801D01*
X53736119Y-180772182D01*
X53736119Y-180438849D01*
X53545642Y-180438849D01*
X54593261Y-180867420D02*
X54593261Y-180343611D01*
X54545642Y-180248373D01*
X54450404Y-180200754D01*
X54259928Y-180200754D01*
X54164690Y-180248373D01*
X54593261Y-180819801D02*
X54498023Y-180867420D01*
X54259928Y-180867420D01*
X54164690Y-180819801D01*
X54117071Y-180724563D01*
X54117071Y-180629325D01*
X54164690Y-180534087D01*
X54259928Y-180486468D01*
X54498023Y-180486468D01*
X54593261Y-180438849D01*
X54926595Y-180200754D02*
X55307547Y-180200754D01*
X55069452Y-179867420D02*
X55069452Y-180724563D01*
X55117071Y-180819801D01*
X55212309Y-180867420D01*
X55307547Y-180867420D01*
X56021833Y-180819801D02*
X55926595Y-180867420D01*
X55736119Y-180867420D01*
X55640880Y-180819801D01*
X55593261Y-180724563D01*
X55593261Y-180343611D01*
X55640880Y-180248373D01*
X55736119Y-180200754D01*
X55926595Y-180200754D01*
X56021833Y-180248373D01*
X56069452Y-180343611D01*
X56069452Y-180438849D01*
X55593261Y-180534087D01*
X56498023Y-180486468D02*
X57259928Y-180486468D01*
X58164690Y-180200754D02*
X58164690Y-180867420D01*
X57926595Y-179819801D02*
X57688500Y-180534087D01*
X58307547Y-180534087D01*
X65493333Y-20332380D02*
X65160000Y-19856190D01*
X64921904Y-20332380D02*
X64921904Y-19332380D01*
X65302857Y-19332380D01*
X65398095Y-19380000D01*
X65445714Y-19427619D01*
X65493333Y-19522857D01*
X65493333Y-19665714D01*
X65445714Y-19760952D01*
X65398095Y-19808571D01*
X65302857Y-19856190D01*
X64921904Y-19856190D01*
X66445714Y-20332380D02*
X65874285Y-20332380D01*
X66160000Y-20332380D02*
X66160000Y-19332380D01*
X66064761Y-19475238D01*
X65969523Y-19570476D01*
X65874285Y-19618095D01*
X69568095Y-16757619D02*
X69615714Y-16710000D01*
X69710952Y-16662380D01*
X69949047Y-16662380D01*
X70044285Y-16710000D01*
X70091904Y-16757619D01*
X70139523Y-16852857D01*
X70139523Y-16948095D01*
X70091904Y-17090952D01*
X69520476Y-17662380D01*
X70139523Y-17662380D01*
X70758571Y-16662380D02*
X70853809Y-16662380D01*
X70949047Y-16710000D01*
X70996666Y-16757619D01*
X71044285Y-16852857D01*
X71091904Y-17043333D01*
X71091904Y-17281428D01*
X71044285Y-17471904D01*
X70996666Y-17567142D01*
X70949047Y-17614761D01*
X70853809Y-17662380D01*
X70758571Y-17662380D01*
X70663333Y-17614761D01*
X70615714Y-17567142D01*
X70568095Y-17471904D01*
X70520476Y-17281428D01*
X70520476Y-17043333D01*
X70568095Y-16852857D01*
X70615714Y-16757619D01*
X70663333Y-16710000D01*
X70758571Y-16662380D01*
X71520476Y-17662380D02*
X71520476Y-16662380D01*
X72091904Y-17662380D02*
X71663333Y-17090952D01*
X72091904Y-16662380D02*
X71520476Y-17233809D01*
X65543333Y-20332380D02*
X65210000Y-19856190D01*
X64971904Y-20332380D02*
X64971904Y-19332380D01*
X65352857Y-19332380D01*
X65448095Y-19380000D01*
X65495714Y-19427619D01*
X65543333Y-19522857D01*
X65543333Y-19665714D01*
X65495714Y-19760952D01*
X65448095Y-19808571D01*
X65352857Y-19856190D01*
X64971904Y-19856190D01*
X66495714Y-20332380D02*
X65924285Y-20332380D01*
X66210000Y-20332380D02*
X66210000Y-19332380D01*
X66114761Y-19475238D01*
X66019523Y-19570476D01*
X65924285Y-19618095D01*
X71023333Y-110219980D02*
X70690000Y-109743790D01*
X70451904Y-110219980D02*
X70451904Y-109219980D01*
X70832857Y-109219980D01*
X70928095Y-109267600D01*
X70975714Y-109315219D01*
X71023333Y-109410457D01*
X71023333Y-109553314D01*
X70975714Y-109648552D01*
X70928095Y-109696171D01*
X70832857Y-109743790D01*
X70451904Y-109743790D01*
X71404285Y-109315219D02*
X71451904Y-109267600D01*
X71547142Y-109219980D01*
X71785238Y-109219980D01*
X71880476Y-109267600D01*
X71928095Y-109315219D01*
X71975714Y-109410457D01*
X71975714Y-109505695D01*
X71928095Y-109648552D01*
X71356666Y-110219980D01*
X71975714Y-110219980D01*
X69923333Y-108012380D02*
X69351904Y-108012380D01*
X69637619Y-108012380D02*
X69637619Y-107012380D01*
X69542380Y-107155238D01*
X69447142Y-107250476D01*
X69351904Y-107298095D01*
X70542380Y-107012380D02*
X70637619Y-107012380D01*
X70732857Y-107060000D01*
X70780476Y-107107619D01*
X70828095Y-107202857D01*
X70875714Y-107393333D01*
X70875714Y-107631428D01*
X70828095Y-107821904D01*
X70780476Y-107917142D01*
X70732857Y-107964761D01*
X70637619Y-108012380D01*
X70542380Y-108012380D01*
X70447142Y-107964761D01*
X70399523Y-107917142D01*
X70351904Y-107821904D01*
X70304285Y-107631428D01*
X70304285Y-107393333D01*
X70351904Y-107202857D01*
X70399523Y-107107619D01*
X70447142Y-107060000D01*
X70542380Y-107012380D01*
X71494761Y-107012380D02*
X71590000Y-107012380D01*
X71685238Y-107060000D01*
X71732857Y-107107619D01*
X71780476Y-107202857D01*
X71828095Y-107393333D01*
X71828095Y-107631428D01*
X71780476Y-107821904D01*
X71732857Y-107917142D01*
X71685238Y-107964761D01*
X71590000Y-108012380D01*
X71494761Y-108012380D01*
X71399523Y-107964761D01*
X71351904Y-107917142D01*
X71304285Y-107821904D01*
X71256666Y-107631428D01*
X71256666Y-107393333D01*
X71304285Y-107202857D01*
X71351904Y-107107619D01*
X71399523Y-107060000D01*
X71494761Y-107012380D01*
X72256666Y-108012380D02*
X72256666Y-107012380D01*
X72828095Y-108012380D02*
X72399523Y-107440952D01*
X72828095Y-107012380D02*
X72256666Y-107583809D01*
X71113333Y-110182380D02*
X70780000Y-109706190D01*
X70541904Y-110182380D02*
X70541904Y-109182380D01*
X70922857Y-109182380D01*
X71018095Y-109230000D01*
X71065714Y-109277619D01*
X71113333Y-109372857D01*
X71113333Y-109515714D01*
X71065714Y-109610952D01*
X71018095Y-109658571D01*
X70922857Y-109706190D01*
X70541904Y-109706190D01*
X71494285Y-109277619D02*
X71541904Y-109230000D01*
X71637142Y-109182380D01*
X71875238Y-109182380D01*
X71970476Y-109230000D01*
X72018095Y-109277619D01*
X72065714Y-109372857D01*
X72065714Y-109468095D01*
X72018095Y-109610952D01*
X71446666Y-110182380D01*
X72065714Y-110182380D01*
X69611133Y-153887380D02*
X69277800Y-153411190D01*
X69039704Y-153887380D02*
X69039704Y-152887380D01*
X69420657Y-152887380D01*
X69515895Y-152935000D01*
X69563514Y-152982619D01*
X69611133Y-153077857D01*
X69611133Y-153220714D01*
X69563514Y-153315952D01*
X69515895Y-153363571D01*
X69420657Y-153411190D01*
X69039704Y-153411190D01*
X69944466Y-152887380D02*
X70563514Y-152887380D01*
X70230180Y-153268333D01*
X70373038Y-153268333D01*
X70468276Y-153315952D01*
X70515895Y-153363571D01*
X70563514Y-153458809D01*
X70563514Y-153696904D01*
X70515895Y-153792142D01*
X70468276Y-153839761D01*
X70373038Y-153887380D01*
X70087323Y-153887380D01*
X69992085Y-153839761D01*
X69944466Y-153792142D01*
X68583333Y-151322380D02*
X68011904Y-151322380D01*
X68297619Y-151322380D02*
X68297619Y-150322380D01*
X68202380Y-150465238D01*
X68107142Y-150560476D01*
X68011904Y-150608095D01*
X69202380Y-150322380D02*
X69297619Y-150322380D01*
X69392857Y-150370000D01*
X69440476Y-150417619D01*
X69488095Y-150512857D01*
X69535714Y-150703333D01*
X69535714Y-150941428D01*
X69488095Y-151131904D01*
X69440476Y-151227142D01*
X69392857Y-151274761D01*
X69297619Y-151322380D01*
X69202380Y-151322380D01*
X69107142Y-151274761D01*
X69059523Y-151227142D01*
X69011904Y-151131904D01*
X68964285Y-150941428D01*
X68964285Y-150703333D01*
X69011904Y-150512857D01*
X69059523Y-150417619D01*
X69107142Y-150370000D01*
X69202380Y-150322380D01*
X70154761Y-150322380D02*
X70250000Y-150322380D01*
X70345238Y-150370000D01*
X70392857Y-150417619D01*
X70440476Y-150512857D01*
X70488095Y-150703333D01*
X70488095Y-150941428D01*
X70440476Y-151131904D01*
X70392857Y-151227142D01*
X70345238Y-151274761D01*
X70250000Y-151322380D01*
X70154761Y-151322380D01*
X70059523Y-151274761D01*
X70011904Y-151227142D01*
X69964285Y-151131904D01*
X69916666Y-150941428D01*
X69916666Y-150703333D01*
X69964285Y-150512857D01*
X70011904Y-150417619D01*
X70059523Y-150370000D01*
X70154761Y-150322380D01*
X70916666Y-151322380D02*
X70916666Y-150322380D01*
X71488095Y-151322380D02*
X71059523Y-150750952D01*
X71488095Y-150322380D02*
X70916666Y-150893809D01*
X69703333Y-153942380D02*
X69370000Y-153466190D01*
X69131904Y-153942380D02*
X69131904Y-152942380D01*
X69512857Y-152942380D01*
X69608095Y-152990000D01*
X69655714Y-153037619D01*
X69703333Y-153132857D01*
X69703333Y-153275714D01*
X69655714Y-153370952D01*
X69608095Y-153418571D01*
X69512857Y-153466190D01*
X69131904Y-153466190D01*
X70036666Y-152942380D02*
X70655714Y-152942380D01*
X70322380Y-153323333D01*
X70465238Y-153323333D01*
X70560476Y-153370952D01*
X70608095Y-153418571D01*
X70655714Y-153513809D01*
X70655714Y-153751904D01*
X70608095Y-153847142D01*
X70560476Y-153894761D01*
X70465238Y-153942380D01*
X70179523Y-153942380D01*
X70084285Y-153894761D01*
X70036666Y-153847142D01*
X66176180Y-46091166D02*
X65699990Y-46424500D01*
X66176180Y-46662595D02*
X65176180Y-46662595D01*
X65176180Y-46281642D01*
X65223800Y-46186404D01*
X65271419Y-46138785D01*
X65366657Y-46091166D01*
X65509514Y-46091166D01*
X65604752Y-46138785D01*
X65652371Y-46186404D01*
X65699990Y-46281642D01*
X65699990Y-46662595D01*
X65509514Y-45234023D02*
X66176180Y-45234023D01*
X65128561Y-45472119D02*
X65842847Y-45710214D01*
X65842847Y-45091166D01*
X68802380Y-46766666D02*
X68802380Y-47338095D01*
X68802380Y-47052380D02*
X67802380Y-47052380D01*
X67945238Y-47147619D01*
X68040476Y-47242857D01*
X68088095Y-47338095D01*
X67802380Y-46147619D02*
X67802380Y-46052380D01*
X67850000Y-45957142D01*
X67897619Y-45909523D01*
X67992857Y-45861904D01*
X68183333Y-45814285D01*
X68421428Y-45814285D01*
X68611904Y-45861904D01*
X68707142Y-45909523D01*
X68754761Y-45957142D01*
X68802380Y-46052380D01*
X68802380Y-46147619D01*
X68754761Y-46242857D01*
X68707142Y-46290476D01*
X68611904Y-46338095D01*
X68421428Y-46385714D01*
X68183333Y-46385714D01*
X67992857Y-46338095D01*
X67897619Y-46290476D01*
X67850000Y-46242857D01*
X67802380Y-46147619D01*
X67802380Y-45195238D02*
X67802380Y-45100000D01*
X67850000Y-45004761D01*
X67897619Y-44957142D01*
X67992857Y-44909523D01*
X68183333Y-44861904D01*
X68421428Y-44861904D01*
X68611904Y-44909523D01*
X68707142Y-44957142D01*
X68754761Y-45004761D01*
X68802380Y-45100000D01*
X68802380Y-45195238D01*
X68754761Y-45290476D01*
X68707142Y-45338095D01*
X68611904Y-45385714D01*
X68421428Y-45433333D01*
X68183333Y-45433333D01*
X67992857Y-45385714D01*
X67897619Y-45338095D01*
X67850000Y-45290476D01*
X67802380Y-45195238D01*
X68802380Y-44433333D02*
X67802380Y-44433333D01*
X68802380Y-43861904D02*
X68230952Y-44290476D01*
X67802380Y-43861904D02*
X68373809Y-44433333D01*
X66122380Y-46086666D02*
X65646190Y-46420000D01*
X66122380Y-46658095D02*
X65122380Y-46658095D01*
X65122380Y-46277142D01*
X65170000Y-46181904D01*
X65217619Y-46134285D01*
X65312857Y-46086666D01*
X65455714Y-46086666D01*
X65550952Y-46134285D01*
X65598571Y-46181904D01*
X65646190Y-46277142D01*
X65646190Y-46658095D01*
X65455714Y-45229523D02*
X66122380Y-45229523D01*
X65074761Y-45467619D02*
X65789047Y-45705714D01*
X65789047Y-45086666D01*
X71198080Y-61044166D02*
X70721890Y-61377500D01*
X71198080Y-61615595D02*
X70198080Y-61615595D01*
X70198080Y-61234642D01*
X70245700Y-61139404D01*
X70293319Y-61091785D01*
X70388557Y-61044166D01*
X70531414Y-61044166D01*
X70626652Y-61091785D01*
X70674271Y-61139404D01*
X70721890Y-61234642D01*
X70721890Y-61615595D01*
X70198080Y-60139404D02*
X70198080Y-60615595D01*
X70674271Y-60663214D01*
X70626652Y-60615595D01*
X70579033Y-60520357D01*
X70579033Y-60282261D01*
X70626652Y-60187023D01*
X70674271Y-60139404D01*
X70769509Y-60091785D01*
X71007604Y-60091785D01*
X71102842Y-60139404D01*
X71150461Y-60187023D01*
X71198080Y-60282261D01*
X71198080Y-60520357D01*
X71150461Y-60615595D01*
X71102842Y-60663214D01*
X68872380Y-62036666D02*
X68872380Y-62608095D01*
X68872380Y-62322380D02*
X67872380Y-62322380D01*
X68015238Y-62417619D01*
X68110476Y-62512857D01*
X68158095Y-62608095D01*
X67872380Y-61417619D02*
X67872380Y-61322380D01*
X67920000Y-61227142D01*
X67967619Y-61179523D01*
X68062857Y-61131904D01*
X68253333Y-61084285D01*
X68491428Y-61084285D01*
X68681904Y-61131904D01*
X68777142Y-61179523D01*
X68824761Y-61227142D01*
X68872380Y-61322380D01*
X68872380Y-61417619D01*
X68824761Y-61512857D01*
X68777142Y-61560476D01*
X68681904Y-61608095D01*
X68491428Y-61655714D01*
X68253333Y-61655714D01*
X68062857Y-61608095D01*
X67967619Y-61560476D01*
X67920000Y-61512857D01*
X67872380Y-61417619D01*
X67872380Y-60465238D02*
X67872380Y-60370000D01*
X67920000Y-60274761D01*
X67967619Y-60227142D01*
X68062857Y-60179523D01*
X68253333Y-60131904D01*
X68491428Y-60131904D01*
X68681904Y-60179523D01*
X68777142Y-60227142D01*
X68824761Y-60274761D01*
X68872380Y-60370000D01*
X68872380Y-60465238D01*
X68824761Y-60560476D01*
X68777142Y-60608095D01*
X68681904Y-60655714D01*
X68491428Y-60703333D01*
X68253333Y-60703333D01*
X68062857Y-60655714D01*
X67967619Y-60608095D01*
X67920000Y-60560476D01*
X67872380Y-60465238D01*
X68872380Y-59703333D02*
X67872380Y-59703333D01*
X68872380Y-59131904D02*
X68300952Y-59560476D01*
X67872380Y-59131904D02*
X68443809Y-59703333D01*
X71232380Y-60986666D02*
X70756190Y-61320000D01*
X71232380Y-61558095D02*
X70232380Y-61558095D01*
X70232380Y-61177142D01*
X70280000Y-61081904D01*
X70327619Y-61034285D01*
X70422857Y-60986666D01*
X70565714Y-60986666D01*
X70660952Y-61034285D01*
X70708571Y-61081904D01*
X70756190Y-61177142D01*
X70756190Y-61558095D01*
X70232380Y-60081904D02*
X70232380Y-60558095D01*
X70708571Y-60605714D01*
X70660952Y-60558095D01*
X70613333Y-60462857D01*
X70613333Y-60224761D01*
X70660952Y-60129523D01*
X70708571Y-60081904D01*
X70803809Y-60034285D01*
X71041904Y-60034285D01*
X71137142Y-60081904D01*
X71184761Y-60129523D01*
X71232380Y-60224761D01*
X71232380Y-60462857D01*
X71184761Y-60558095D01*
X71137142Y-60605714D01*
X72373780Y-119443666D02*
X71897590Y-119777000D01*
X72373780Y-120015095D02*
X71373780Y-120015095D01*
X71373780Y-119634142D01*
X71421400Y-119538904D01*
X71469019Y-119491285D01*
X71564257Y-119443666D01*
X71707114Y-119443666D01*
X71802352Y-119491285D01*
X71849971Y-119538904D01*
X71897590Y-119634142D01*
X71897590Y-120015095D01*
X71373780Y-118586523D02*
X71373780Y-118777000D01*
X71421400Y-118872238D01*
X71469019Y-118919857D01*
X71611876Y-119015095D01*
X71802352Y-119062714D01*
X72183304Y-119062714D01*
X72278542Y-119015095D01*
X72326161Y-118967476D01*
X72373780Y-118872238D01*
X72373780Y-118681761D01*
X72326161Y-118586523D01*
X72278542Y-118538904D01*
X72183304Y-118491285D01*
X71945209Y-118491285D01*
X71849971Y-118538904D01*
X71802352Y-118586523D01*
X71754733Y-118681761D01*
X71754733Y-118872238D01*
X71802352Y-118967476D01*
X71849971Y-119015095D01*
X71945209Y-119062714D01*
X74065714Y-119825714D02*
X74732380Y-119825714D01*
X73684761Y-120063809D02*
X74399047Y-120301904D01*
X74399047Y-119682857D01*
X73732380Y-119397142D02*
X73732380Y-118730476D01*
X74732380Y-119159047D01*
X74732380Y-118349523D02*
X73732380Y-118349523D01*
X74732380Y-117778095D02*
X74160952Y-118206666D01*
X73732380Y-117778095D02*
X74303809Y-118349523D01*
X72502380Y-119336666D02*
X72026190Y-119670000D01*
X72502380Y-119908095D02*
X71502380Y-119908095D01*
X71502380Y-119527142D01*
X71550000Y-119431904D01*
X71597619Y-119384285D01*
X71692857Y-119336666D01*
X71835714Y-119336666D01*
X71930952Y-119384285D01*
X71978571Y-119431904D01*
X72026190Y-119527142D01*
X72026190Y-119908095D01*
X71502380Y-118479523D02*
X71502380Y-118670000D01*
X71550000Y-118765238D01*
X71597619Y-118812857D01*
X71740476Y-118908095D01*
X71930952Y-118955714D01*
X72311904Y-118955714D01*
X72407142Y-118908095D01*
X72454761Y-118860476D01*
X72502380Y-118765238D01*
X72502380Y-118574761D01*
X72454761Y-118479523D01*
X72407142Y-118431904D01*
X72311904Y-118384285D01*
X72073809Y-118384285D01*
X71978571Y-118431904D01*
X71930952Y-118479523D01*
X71883333Y-118574761D01*
X71883333Y-118765238D01*
X71930952Y-118860476D01*
X71978571Y-118908095D01*
X72073809Y-118955714D01*
X71809880Y-163393666D02*
X71333690Y-163727000D01*
X71809880Y-163965095D02*
X70809880Y-163965095D01*
X70809880Y-163584142D01*
X70857500Y-163488904D01*
X70905119Y-163441285D01*
X71000357Y-163393666D01*
X71143214Y-163393666D01*
X71238452Y-163441285D01*
X71286071Y-163488904D01*
X71333690Y-163584142D01*
X71333690Y-163965095D01*
X70809880Y-163060333D02*
X70809880Y-162393666D01*
X71809880Y-162822238D01*
X73615714Y-163835714D02*
X74282380Y-163835714D01*
X73234761Y-164073809D02*
X73949047Y-164311904D01*
X73949047Y-163692857D01*
X73282380Y-163407142D02*
X73282380Y-162740476D01*
X74282380Y-163169047D01*
X74282380Y-162359523D02*
X73282380Y-162359523D01*
X74282380Y-161788095D02*
X73710952Y-162216666D01*
X73282380Y-161788095D02*
X73853809Y-162359523D01*
X71982380Y-163286666D02*
X71506190Y-163620000D01*
X71982380Y-163858095D02*
X70982380Y-163858095D01*
X70982380Y-163477142D01*
X71030000Y-163381904D01*
X71077619Y-163334285D01*
X71172857Y-163286666D01*
X71315714Y-163286666D01*
X71410952Y-163334285D01*
X71458571Y-163381904D01*
X71506190Y-163477142D01*
X71506190Y-163858095D01*
X70982380Y-162953333D02*
X70982380Y-162286666D01*
X71982380Y-162715238D01*
X89544480Y-61770566D02*
X89068290Y-62103900D01*
X89544480Y-62341995D02*
X88544480Y-62341995D01*
X88544480Y-61961042D01*
X88592100Y-61865804D01*
X88639719Y-61818185D01*
X88734957Y-61770566D01*
X88877814Y-61770566D01*
X88973052Y-61818185D01*
X89020671Y-61865804D01*
X89068290Y-61961042D01*
X89068290Y-62341995D01*
X88973052Y-61199138D02*
X88925433Y-61294376D01*
X88877814Y-61341995D01*
X88782576Y-61389614D01*
X88734957Y-61389614D01*
X88639719Y-61341995D01*
X88592100Y-61294376D01*
X88544480Y-61199138D01*
X88544480Y-61008661D01*
X88592100Y-60913423D01*
X88639719Y-60865804D01*
X88734957Y-60818185D01*
X88782576Y-60818185D01*
X88877814Y-60865804D01*
X88925433Y-60913423D01*
X88973052Y-61008661D01*
X88973052Y-61199138D01*
X89020671Y-61294376D01*
X89068290Y-61341995D01*
X89163528Y-61389614D01*
X89354004Y-61389614D01*
X89449242Y-61341995D01*
X89496861Y-61294376D01*
X89544480Y-61199138D01*
X89544480Y-61008661D01*
X89496861Y-60913423D01*
X89449242Y-60865804D01*
X89354004Y-60818185D01*
X89163528Y-60818185D01*
X89068290Y-60865804D01*
X89020671Y-60913423D01*
X88973052Y-61008661D01*
X86615714Y-62465714D02*
X87282380Y-62465714D01*
X86234761Y-62703809D02*
X86949047Y-62941904D01*
X86949047Y-62322857D01*
X86282380Y-62037142D02*
X86282380Y-61370476D01*
X87282380Y-61799047D01*
X87282380Y-60989523D02*
X86282380Y-60989523D01*
X87282380Y-60418095D02*
X86710952Y-60846666D01*
X86282380Y-60418095D02*
X86853809Y-60989523D01*
X89582380Y-61786666D02*
X89106190Y-62120000D01*
X89582380Y-62358095D02*
X88582380Y-62358095D01*
X88582380Y-61977142D01*
X88630000Y-61881904D01*
X88677619Y-61834285D01*
X88772857Y-61786666D01*
X88915714Y-61786666D01*
X89010952Y-61834285D01*
X89058571Y-61881904D01*
X89106190Y-61977142D01*
X89106190Y-62358095D01*
X89010952Y-61215238D02*
X88963333Y-61310476D01*
X88915714Y-61358095D01*
X88820476Y-61405714D01*
X88772857Y-61405714D01*
X88677619Y-61358095D01*
X88630000Y-61310476D01*
X88582380Y-61215238D01*
X88582380Y-61024761D01*
X88630000Y-60929523D01*
X88677619Y-60881904D01*
X88772857Y-60834285D01*
X88820476Y-60834285D01*
X88915714Y-60881904D01*
X88963333Y-60929523D01*
X89010952Y-61024761D01*
X89010952Y-61215238D01*
X89058571Y-61310476D01*
X89106190Y-61358095D01*
X89201428Y-61405714D01*
X89391904Y-61405714D01*
X89487142Y-61358095D01*
X89534761Y-61310476D01*
X89582380Y-61215238D01*
X89582380Y-61024761D01*
X89534761Y-60929523D01*
X89487142Y-60881904D01*
X89391904Y-60834285D01*
X89201428Y-60834285D01*
X89106190Y-60881904D01*
X89058571Y-60929523D01*
X89010952Y-61024761D01*
X69961080Y-89901066D02*
X69484890Y-90234400D01*
X69961080Y-90472495D02*
X68961080Y-90472495D01*
X68961080Y-90091542D01*
X69008700Y-89996304D01*
X69056319Y-89948685D01*
X69151557Y-89901066D01*
X69294414Y-89901066D01*
X69389652Y-89948685D01*
X69437271Y-89996304D01*
X69484890Y-90091542D01*
X69484890Y-90472495D01*
X69961080Y-89424876D02*
X69961080Y-89234400D01*
X69913461Y-89139161D01*
X69865842Y-89091542D01*
X69722985Y-88996304D01*
X69532509Y-88948685D01*
X69151557Y-88948685D01*
X69056319Y-88996304D01*
X69008700Y-89043923D01*
X68961080Y-89139161D01*
X68961080Y-89329638D01*
X69008700Y-89424876D01*
X69056319Y-89472495D01*
X69151557Y-89520114D01*
X69389652Y-89520114D01*
X69484890Y-89472495D01*
X69532509Y-89424876D01*
X69580128Y-89329638D01*
X69580128Y-89139161D01*
X69532509Y-89043923D01*
X69484890Y-88996304D01*
X69389652Y-88948685D01*
X67075714Y-90615714D02*
X67742380Y-90615714D01*
X66694761Y-90853809D02*
X67409047Y-91091904D01*
X67409047Y-90472857D01*
X66742380Y-90187142D02*
X66742380Y-89520476D01*
X67742380Y-89949047D01*
X67742380Y-89139523D02*
X66742380Y-89139523D01*
X67742380Y-88568095D02*
X67170952Y-88996666D01*
X66742380Y-88568095D02*
X67313809Y-89139523D01*
X69872380Y-89826666D02*
X69396190Y-90160000D01*
X69872380Y-90398095D02*
X68872380Y-90398095D01*
X68872380Y-90017142D01*
X68920000Y-89921904D01*
X68967619Y-89874285D01*
X69062857Y-89826666D01*
X69205714Y-89826666D01*
X69300952Y-89874285D01*
X69348571Y-89921904D01*
X69396190Y-90017142D01*
X69396190Y-90398095D01*
X69872380Y-89350476D02*
X69872380Y-89160000D01*
X69824761Y-89064761D01*
X69777142Y-89017142D01*
X69634285Y-88921904D01*
X69443809Y-88874285D01*
X69062857Y-88874285D01*
X68967619Y-88921904D01*
X68920000Y-88969523D01*
X68872380Y-89064761D01*
X68872380Y-89255238D01*
X68920000Y-89350476D01*
X68967619Y-89398095D01*
X69062857Y-89445714D01*
X69300952Y-89445714D01*
X69396190Y-89398095D01*
X69443809Y-89350476D01*
X69491428Y-89255238D01*
X69491428Y-89064761D01*
X69443809Y-88969523D01*
X69396190Y-88921904D01*
X69300952Y-88874285D01*
X78873580Y-119919857D02*
X78397390Y-120253190D01*
X78873580Y-120491285D02*
X77873580Y-120491285D01*
X77873580Y-120110333D01*
X77921200Y-120015095D01*
X77968819Y-119967476D01*
X78064057Y-119919857D01*
X78206914Y-119919857D01*
X78302152Y-119967476D01*
X78349771Y-120015095D01*
X78397390Y-120110333D01*
X78397390Y-120491285D01*
X78873580Y-118967476D02*
X78873580Y-119538904D01*
X78873580Y-119253190D02*
X77873580Y-119253190D01*
X78016438Y-119348428D01*
X78111676Y-119443666D01*
X78159295Y-119538904D01*
X77873580Y-118348428D02*
X77873580Y-118253190D01*
X77921200Y-118157952D01*
X77968819Y-118110333D01*
X78064057Y-118062714D01*
X78254533Y-118015095D01*
X78492628Y-118015095D01*
X78683104Y-118062714D01*
X78778342Y-118110333D01*
X78825961Y-118157952D01*
X78873580Y-118253190D01*
X78873580Y-118348428D01*
X78825961Y-118443666D01*
X78778342Y-118491285D01*
X78683104Y-118538904D01*
X78492628Y-118586523D01*
X78254533Y-118586523D01*
X78064057Y-118538904D01*
X77968819Y-118491285D01*
X77921200Y-118443666D01*
X77873580Y-118348428D01*
X81302380Y-120206666D02*
X81302380Y-120778095D01*
X81302380Y-120492380D02*
X80302380Y-120492380D01*
X80445238Y-120587619D01*
X80540476Y-120682857D01*
X80588095Y-120778095D01*
X80302380Y-119587619D02*
X80302380Y-119492380D01*
X80350000Y-119397142D01*
X80397619Y-119349523D01*
X80492857Y-119301904D01*
X80683333Y-119254285D01*
X80921428Y-119254285D01*
X81111904Y-119301904D01*
X81207142Y-119349523D01*
X81254761Y-119397142D01*
X81302380Y-119492380D01*
X81302380Y-119587619D01*
X81254761Y-119682857D01*
X81207142Y-119730476D01*
X81111904Y-119778095D01*
X80921428Y-119825714D01*
X80683333Y-119825714D01*
X80492857Y-119778095D01*
X80397619Y-119730476D01*
X80350000Y-119682857D01*
X80302380Y-119587619D01*
X80302380Y-118635238D02*
X80302380Y-118540000D01*
X80350000Y-118444761D01*
X80397619Y-118397142D01*
X80492857Y-118349523D01*
X80683333Y-118301904D01*
X80921428Y-118301904D01*
X81111904Y-118349523D01*
X81207142Y-118397142D01*
X81254761Y-118444761D01*
X81302380Y-118540000D01*
X81302380Y-118635238D01*
X81254761Y-118730476D01*
X81207142Y-118778095D01*
X81111904Y-118825714D01*
X80921428Y-118873333D01*
X80683333Y-118873333D01*
X80492857Y-118825714D01*
X80397619Y-118778095D01*
X80350000Y-118730476D01*
X80302380Y-118635238D01*
X81302380Y-117873333D02*
X80302380Y-117873333D01*
X81302380Y-117301904D02*
X80730952Y-117730476D01*
X80302380Y-117301904D02*
X80873809Y-117873333D01*
X78872380Y-120002857D02*
X78396190Y-120336190D01*
X78872380Y-120574285D02*
X77872380Y-120574285D01*
X77872380Y-120193333D01*
X77920000Y-120098095D01*
X77967619Y-120050476D01*
X78062857Y-120002857D01*
X78205714Y-120002857D01*
X78300952Y-120050476D01*
X78348571Y-120098095D01*
X78396190Y-120193333D01*
X78396190Y-120574285D01*
X78872380Y-119050476D02*
X78872380Y-119621904D01*
X78872380Y-119336190D02*
X77872380Y-119336190D01*
X78015238Y-119431428D01*
X78110476Y-119526666D01*
X78158095Y-119621904D01*
X77872380Y-118431428D02*
X77872380Y-118336190D01*
X77920000Y-118240952D01*
X77967619Y-118193333D01*
X78062857Y-118145714D01*
X78253333Y-118098095D01*
X78491428Y-118098095D01*
X78681904Y-118145714D01*
X78777142Y-118193333D01*
X78824761Y-118240952D01*
X78872380Y-118336190D01*
X78872380Y-118431428D01*
X78824761Y-118526666D01*
X78777142Y-118574285D01*
X78681904Y-118621904D01*
X78491428Y-118669523D01*
X78253333Y-118669523D01*
X78062857Y-118621904D01*
X77967619Y-118574285D01*
X77920000Y-118526666D01*
X77872380Y-118431428D01*
X83362180Y-163302857D02*
X82885990Y-163636190D01*
X83362180Y-163874285D02*
X82362180Y-163874285D01*
X82362180Y-163493333D01*
X82409800Y-163398095D01*
X82457419Y-163350476D01*
X82552657Y-163302857D01*
X82695514Y-163302857D01*
X82790752Y-163350476D01*
X82838371Y-163398095D01*
X82885990Y-163493333D01*
X82885990Y-163874285D01*
X83362180Y-162350476D02*
X83362180Y-162921904D01*
X83362180Y-162636190D02*
X82362180Y-162636190D01*
X82505038Y-162731428D01*
X82600276Y-162826666D01*
X82647895Y-162921904D01*
X83362180Y-161398095D02*
X83362180Y-161969523D01*
X83362180Y-161683809D02*
X82362180Y-161683809D01*
X82505038Y-161779047D01*
X82600276Y-161874285D01*
X82647895Y-161969523D01*
X81042380Y-163896666D02*
X81042380Y-164468095D01*
X81042380Y-164182380D02*
X80042380Y-164182380D01*
X80185238Y-164277619D01*
X80280476Y-164372857D01*
X80328095Y-164468095D01*
X80042380Y-163277619D02*
X80042380Y-163182380D01*
X80090000Y-163087142D01*
X80137619Y-163039523D01*
X80232857Y-162991904D01*
X80423333Y-162944285D01*
X80661428Y-162944285D01*
X80851904Y-162991904D01*
X80947142Y-163039523D01*
X80994761Y-163087142D01*
X81042380Y-163182380D01*
X81042380Y-163277619D01*
X80994761Y-163372857D01*
X80947142Y-163420476D01*
X80851904Y-163468095D01*
X80661428Y-163515714D01*
X80423333Y-163515714D01*
X80232857Y-163468095D01*
X80137619Y-163420476D01*
X80090000Y-163372857D01*
X80042380Y-163277619D01*
X80042380Y-162325238D02*
X80042380Y-162230000D01*
X80090000Y-162134761D01*
X80137619Y-162087142D01*
X80232857Y-162039523D01*
X80423333Y-161991904D01*
X80661428Y-161991904D01*
X80851904Y-162039523D01*
X80947142Y-162087142D01*
X80994761Y-162134761D01*
X81042380Y-162230000D01*
X81042380Y-162325238D01*
X80994761Y-162420476D01*
X80947142Y-162468095D01*
X80851904Y-162515714D01*
X80661428Y-162563333D01*
X80423333Y-162563333D01*
X80232857Y-162515714D01*
X80137619Y-162468095D01*
X80090000Y-162420476D01*
X80042380Y-162325238D01*
X81042380Y-161563333D02*
X80042380Y-161563333D01*
X81042380Y-160991904D02*
X80470952Y-161420476D01*
X80042380Y-160991904D02*
X80613809Y-161563333D01*
X83462380Y-163252857D02*
X82986190Y-163586190D01*
X83462380Y-163824285D02*
X82462380Y-163824285D01*
X82462380Y-163443333D01*
X82510000Y-163348095D01*
X82557619Y-163300476D01*
X82652857Y-163252857D01*
X82795714Y-163252857D01*
X82890952Y-163300476D01*
X82938571Y-163348095D01*
X82986190Y-163443333D01*
X82986190Y-163824285D01*
X83462380Y-162300476D02*
X83462380Y-162871904D01*
X83462380Y-162586190D02*
X82462380Y-162586190D01*
X82605238Y-162681428D01*
X82700476Y-162776666D01*
X82748095Y-162871904D01*
X83462380Y-161348095D02*
X83462380Y-161919523D01*
X83462380Y-161633809D02*
X82462380Y-161633809D01*
X82605238Y-161729047D01*
X82700476Y-161824285D01*
X82748095Y-161919523D01*
X82707142Y-38362380D02*
X82373809Y-37886190D01*
X82135714Y-38362380D02*
X82135714Y-37362380D01*
X82516666Y-37362380D01*
X82611904Y-37410000D01*
X82659523Y-37457619D01*
X82707142Y-37552857D01*
X82707142Y-37695714D01*
X82659523Y-37790952D01*
X82611904Y-37838571D01*
X82516666Y-37886190D01*
X82135714Y-37886190D01*
X83659523Y-38362380D02*
X83088095Y-38362380D01*
X83373809Y-38362380D02*
X83373809Y-37362380D01*
X83278571Y-37505238D01*
X83183333Y-37600476D01*
X83088095Y-37648095D01*
X84040476Y-37457619D02*
X84088095Y-37410000D01*
X84183333Y-37362380D01*
X84421428Y-37362380D01*
X84516666Y-37410000D01*
X84564285Y-37457619D01*
X84611904Y-37552857D01*
X84611904Y-37648095D01*
X84564285Y-37790952D01*
X83992857Y-38362380D01*
X84611904Y-38362380D01*
X83155714Y-35962380D02*
X82584285Y-35962380D01*
X82870000Y-35962380D02*
X82870000Y-34962380D01*
X82774761Y-35105238D01*
X82679523Y-35200476D01*
X82584285Y-35248095D01*
X83584285Y-35962380D02*
X83584285Y-34962380D01*
X84155714Y-35962380D02*
X83727142Y-35390952D01*
X84155714Y-34962380D02*
X83584285Y-35533809D01*
X82677142Y-38332380D02*
X82343809Y-37856190D01*
X82105714Y-38332380D02*
X82105714Y-37332380D01*
X82486666Y-37332380D01*
X82581904Y-37380000D01*
X82629523Y-37427619D01*
X82677142Y-37522857D01*
X82677142Y-37665714D01*
X82629523Y-37760952D01*
X82581904Y-37808571D01*
X82486666Y-37856190D01*
X82105714Y-37856190D01*
X83629523Y-38332380D02*
X83058095Y-38332380D01*
X83343809Y-38332380D02*
X83343809Y-37332380D01*
X83248571Y-37475238D01*
X83153333Y-37570476D01*
X83058095Y-37618095D01*
X84010476Y-37427619D02*
X84058095Y-37380000D01*
X84153333Y-37332380D01*
X84391428Y-37332380D01*
X84486666Y-37380000D01*
X84534285Y-37427619D01*
X84581904Y-37522857D01*
X84581904Y-37618095D01*
X84534285Y-37760952D01*
X83962857Y-38332380D01*
X84581904Y-38332380D01*
X83497142Y-30092380D02*
X83163809Y-29616190D01*
X82925714Y-30092380D02*
X82925714Y-29092380D01*
X83306666Y-29092380D01*
X83401904Y-29140000D01*
X83449523Y-29187619D01*
X83497142Y-29282857D01*
X83497142Y-29425714D01*
X83449523Y-29520952D01*
X83401904Y-29568571D01*
X83306666Y-29616190D01*
X82925714Y-29616190D01*
X84449523Y-30092380D02*
X83878095Y-30092380D01*
X84163809Y-30092380D02*
X84163809Y-29092380D01*
X84068571Y-29235238D01*
X83973333Y-29330476D01*
X83878095Y-29378095D01*
X84782857Y-29092380D02*
X85401904Y-29092380D01*
X85068571Y-29473333D01*
X85211428Y-29473333D01*
X85306666Y-29520952D01*
X85354285Y-29568571D01*
X85401904Y-29663809D01*
X85401904Y-29901904D01*
X85354285Y-29997142D01*
X85306666Y-30044761D01*
X85211428Y-30092380D01*
X84925714Y-30092380D01*
X84830476Y-30044761D01*
X84782857Y-29997142D01*
X82883333Y-32242380D02*
X82311904Y-32242380D01*
X82597619Y-32242380D02*
X82597619Y-31242380D01*
X82502380Y-31385238D01*
X82407142Y-31480476D01*
X82311904Y-31528095D01*
X83502380Y-31242380D02*
X83597619Y-31242380D01*
X83692857Y-31290000D01*
X83740476Y-31337619D01*
X83788095Y-31432857D01*
X83835714Y-31623333D01*
X83835714Y-31861428D01*
X83788095Y-32051904D01*
X83740476Y-32147142D01*
X83692857Y-32194761D01*
X83597619Y-32242380D01*
X83502380Y-32242380D01*
X83407142Y-32194761D01*
X83359523Y-32147142D01*
X83311904Y-32051904D01*
X83264285Y-31861428D01*
X83264285Y-31623333D01*
X83311904Y-31432857D01*
X83359523Y-31337619D01*
X83407142Y-31290000D01*
X83502380Y-31242380D01*
X84454761Y-31242380D02*
X84550000Y-31242380D01*
X84645238Y-31290000D01*
X84692857Y-31337619D01*
X84740476Y-31432857D01*
X84788095Y-31623333D01*
X84788095Y-31861428D01*
X84740476Y-32051904D01*
X84692857Y-32147142D01*
X84645238Y-32194761D01*
X84550000Y-32242380D01*
X84454761Y-32242380D01*
X84359523Y-32194761D01*
X84311904Y-32147142D01*
X84264285Y-32051904D01*
X84216666Y-31861428D01*
X84216666Y-31623333D01*
X84264285Y-31432857D01*
X84311904Y-31337619D01*
X84359523Y-31290000D01*
X84454761Y-31242380D01*
X85216666Y-32242380D02*
X85216666Y-31242380D01*
X85788095Y-32242380D02*
X85359523Y-31670952D01*
X85788095Y-31242380D02*
X85216666Y-31813809D01*
X83457142Y-30142380D02*
X83123809Y-29666190D01*
X82885714Y-30142380D02*
X82885714Y-29142380D01*
X83266666Y-29142380D01*
X83361904Y-29190000D01*
X83409523Y-29237619D01*
X83457142Y-29332857D01*
X83457142Y-29475714D01*
X83409523Y-29570952D01*
X83361904Y-29618571D01*
X83266666Y-29666190D01*
X82885714Y-29666190D01*
X84409523Y-30142380D02*
X83838095Y-30142380D01*
X84123809Y-30142380D02*
X84123809Y-29142380D01*
X84028571Y-29285238D01*
X83933333Y-29380476D01*
X83838095Y-29428095D01*
X84742857Y-29142380D02*
X85361904Y-29142380D01*
X85028571Y-29523333D01*
X85171428Y-29523333D01*
X85266666Y-29570952D01*
X85314285Y-29618571D01*
X85361904Y-29713809D01*
X85361904Y-29951904D01*
X85314285Y-30047142D01*
X85266666Y-30094761D01*
X85171428Y-30142380D01*
X84885714Y-30142380D01*
X84790476Y-30094761D01*
X84742857Y-30047142D01*
X73829480Y-75962757D02*
X73353290Y-76296090D01*
X73829480Y-76534185D02*
X72829480Y-76534185D01*
X72829480Y-76153233D01*
X72877100Y-76057995D01*
X72924719Y-76010376D01*
X73019957Y-75962757D01*
X73162814Y-75962757D01*
X73258052Y-76010376D01*
X73305671Y-76057995D01*
X73353290Y-76153233D01*
X73353290Y-76534185D01*
X73829480Y-75010376D02*
X73829480Y-75581804D01*
X73829480Y-75296090D02*
X72829480Y-75296090D01*
X72972338Y-75391328D01*
X73067576Y-75486566D01*
X73115195Y-75581804D01*
X73162814Y-74153233D02*
X73829480Y-74153233D01*
X72781861Y-74391328D02*
X73496147Y-74629423D01*
X73496147Y-74010376D01*
X71312380Y-76546666D02*
X71312380Y-77118095D01*
X71312380Y-76832380D02*
X70312380Y-76832380D01*
X70455238Y-76927619D01*
X70550476Y-77022857D01*
X70598095Y-77118095D01*
X70312380Y-75927619D02*
X70312380Y-75832380D01*
X70360000Y-75737142D01*
X70407619Y-75689523D01*
X70502857Y-75641904D01*
X70693333Y-75594285D01*
X70931428Y-75594285D01*
X71121904Y-75641904D01*
X71217142Y-75689523D01*
X71264761Y-75737142D01*
X71312380Y-75832380D01*
X71312380Y-75927619D01*
X71264761Y-76022857D01*
X71217142Y-76070476D01*
X71121904Y-76118095D01*
X70931428Y-76165714D01*
X70693333Y-76165714D01*
X70502857Y-76118095D01*
X70407619Y-76070476D01*
X70360000Y-76022857D01*
X70312380Y-75927619D01*
X70312380Y-74975238D02*
X70312380Y-74880000D01*
X70360000Y-74784761D01*
X70407619Y-74737142D01*
X70502857Y-74689523D01*
X70693333Y-74641904D01*
X70931428Y-74641904D01*
X71121904Y-74689523D01*
X71217142Y-74737142D01*
X71264761Y-74784761D01*
X71312380Y-74880000D01*
X71312380Y-74975238D01*
X71264761Y-75070476D01*
X71217142Y-75118095D01*
X71121904Y-75165714D01*
X70931428Y-75213333D01*
X70693333Y-75213333D01*
X70502857Y-75165714D01*
X70407619Y-75118095D01*
X70360000Y-75070476D01*
X70312380Y-74975238D01*
X71312380Y-74213333D02*
X70312380Y-74213333D01*
X71312380Y-73641904D02*
X70740952Y-74070476D01*
X70312380Y-73641904D02*
X70883809Y-74213333D01*
X73782380Y-76022857D02*
X73306190Y-76356190D01*
X73782380Y-76594285D02*
X72782380Y-76594285D01*
X72782380Y-76213333D01*
X72830000Y-76118095D01*
X72877619Y-76070476D01*
X72972857Y-76022857D01*
X73115714Y-76022857D01*
X73210952Y-76070476D01*
X73258571Y-76118095D01*
X73306190Y-76213333D01*
X73306190Y-76594285D01*
X73782380Y-75070476D02*
X73782380Y-75641904D01*
X73782380Y-75356190D02*
X72782380Y-75356190D01*
X72925238Y-75451428D01*
X73020476Y-75546666D01*
X73068095Y-75641904D01*
X73115714Y-74213333D02*
X73782380Y-74213333D01*
X72734761Y-74451428D02*
X73449047Y-74689523D01*
X73449047Y-74070476D01*
X90192380Y-20832857D02*
X89716190Y-21166190D01*
X90192380Y-21404285D02*
X89192380Y-21404285D01*
X89192380Y-21023333D01*
X89240000Y-20928095D01*
X89287619Y-20880476D01*
X89382857Y-20832857D01*
X89525714Y-20832857D01*
X89620952Y-20880476D01*
X89668571Y-20928095D01*
X89716190Y-21023333D01*
X89716190Y-21404285D01*
X90192380Y-19880476D02*
X90192380Y-20451904D01*
X90192380Y-20166190D02*
X89192380Y-20166190D01*
X89335238Y-20261428D01*
X89430476Y-20356666D01*
X89478095Y-20451904D01*
X89192380Y-18975714D02*
X89192380Y-19451904D01*
X89668571Y-19499523D01*
X89620952Y-19451904D01*
X89573333Y-19356666D01*
X89573333Y-19118571D01*
X89620952Y-19023333D01*
X89668571Y-18975714D01*
X89763809Y-18928095D01*
X90001904Y-18928095D01*
X90097142Y-18975714D01*
X90144761Y-19023333D01*
X90192380Y-19118571D01*
X90192380Y-19356666D01*
X90144761Y-19451904D01*
X90097142Y-19499523D01*
X82803333Y-17792380D02*
X82231904Y-17792380D01*
X82517619Y-17792380D02*
X82517619Y-16792380D01*
X82422380Y-16935238D01*
X82327142Y-17030476D01*
X82231904Y-17078095D01*
X83422380Y-16792380D02*
X83517619Y-16792380D01*
X83612857Y-16840000D01*
X83660476Y-16887619D01*
X83708095Y-16982857D01*
X83755714Y-17173333D01*
X83755714Y-17411428D01*
X83708095Y-17601904D01*
X83660476Y-17697142D01*
X83612857Y-17744761D01*
X83517619Y-17792380D01*
X83422380Y-17792380D01*
X83327142Y-17744761D01*
X83279523Y-17697142D01*
X83231904Y-17601904D01*
X83184285Y-17411428D01*
X83184285Y-17173333D01*
X83231904Y-16982857D01*
X83279523Y-16887619D01*
X83327142Y-16840000D01*
X83422380Y-16792380D01*
X84374761Y-16792380D02*
X84470000Y-16792380D01*
X84565238Y-16840000D01*
X84612857Y-16887619D01*
X84660476Y-16982857D01*
X84708095Y-17173333D01*
X84708095Y-17411428D01*
X84660476Y-17601904D01*
X84612857Y-17697142D01*
X84565238Y-17744761D01*
X84470000Y-17792380D01*
X84374761Y-17792380D01*
X84279523Y-17744761D01*
X84231904Y-17697142D01*
X84184285Y-17601904D01*
X84136666Y-17411428D01*
X84136666Y-17173333D01*
X84184285Y-16982857D01*
X84231904Y-16887619D01*
X84279523Y-16840000D01*
X84374761Y-16792380D01*
X85136666Y-17792380D02*
X85136666Y-16792380D01*
X85708095Y-17792380D02*
X85279523Y-17220952D01*
X85708095Y-16792380D02*
X85136666Y-17363809D01*
X90282380Y-20742857D02*
X89806190Y-21076190D01*
X90282380Y-21314285D02*
X89282380Y-21314285D01*
X89282380Y-20933333D01*
X89330000Y-20838095D01*
X89377619Y-20790476D01*
X89472857Y-20742857D01*
X89615714Y-20742857D01*
X89710952Y-20790476D01*
X89758571Y-20838095D01*
X89806190Y-20933333D01*
X89806190Y-21314285D01*
X90282380Y-19790476D02*
X90282380Y-20361904D01*
X90282380Y-20076190D02*
X89282380Y-20076190D01*
X89425238Y-20171428D01*
X89520476Y-20266666D01*
X89568095Y-20361904D01*
X89282380Y-18885714D02*
X89282380Y-19361904D01*
X89758571Y-19409523D01*
X89710952Y-19361904D01*
X89663333Y-19266666D01*
X89663333Y-19028571D01*
X89710952Y-18933333D01*
X89758571Y-18885714D01*
X89853809Y-18838095D01*
X90091904Y-18838095D01*
X90187142Y-18885714D01*
X90234761Y-18933333D01*
X90282380Y-19028571D01*
X90282380Y-19266666D01*
X90234761Y-19361904D01*
X90187142Y-19409523D01*
X90027080Y-76574957D02*
X89550890Y-76908290D01*
X90027080Y-77146385D02*
X89027080Y-77146385D01*
X89027080Y-76765433D01*
X89074700Y-76670195D01*
X89122319Y-76622576D01*
X89217557Y-76574957D01*
X89360414Y-76574957D01*
X89455652Y-76622576D01*
X89503271Y-76670195D01*
X89550890Y-76765433D01*
X89550890Y-77146385D01*
X90027080Y-75622576D02*
X90027080Y-76194004D01*
X90027080Y-75908290D02*
X89027080Y-75908290D01*
X89169938Y-76003528D01*
X89265176Y-76098766D01*
X89312795Y-76194004D01*
X89027080Y-74765433D02*
X89027080Y-74955909D01*
X89074700Y-75051147D01*
X89122319Y-75098766D01*
X89265176Y-75194004D01*
X89455652Y-75241623D01*
X89836604Y-75241623D01*
X89931842Y-75194004D01*
X89979461Y-75146385D01*
X90027080Y-75051147D01*
X90027080Y-74860671D01*
X89979461Y-74765433D01*
X89931842Y-74717814D01*
X89836604Y-74670195D01*
X89598509Y-74670195D01*
X89503271Y-74717814D01*
X89455652Y-74765433D01*
X89408033Y-74860671D01*
X89408033Y-75051147D01*
X89455652Y-75146385D01*
X89503271Y-75194004D01*
X89598509Y-75241623D01*
X87772380Y-76364285D02*
X87772380Y-76935714D01*
X87772380Y-76650000D02*
X86772380Y-76650000D01*
X86915238Y-76745238D01*
X87010476Y-76840476D01*
X87058095Y-76935714D01*
X87772380Y-75935714D02*
X86772380Y-75935714D01*
X87772380Y-75364285D02*
X87200952Y-75792857D01*
X86772380Y-75364285D02*
X87343809Y-75935714D01*
X89982380Y-76572857D02*
X89506190Y-76906190D01*
X89982380Y-77144285D02*
X88982380Y-77144285D01*
X88982380Y-76763333D01*
X89030000Y-76668095D01*
X89077619Y-76620476D01*
X89172857Y-76572857D01*
X89315714Y-76572857D01*
X89410952Y-76620476D01*
X89458571Y-76668095D01*
X89506190Y-76763333D01*
X89506190Y-77144285D01*
X89982380Y-75620476D02*
X89982380Y-76191904D01*
X89982380Y-75906190D02*
X88982380Y-75906190D01*
X89125238Y-76001428D01*
X89220476Y-76096666D01*
X89268095Y-76191904D01*
X88982380Y-74763333D02*
X88982380Y-74953809D01*
X89030000Y-75049047D01*
X89077619Y-75096666D01*
X89220476Y-75191904D01*
X89410952Y-75239523D01*
X89791904Y-75239523D01*
X89887142Y-75191904D01*
X89934761Y-75144285D01*
X89982380Y-75049047D01*
X89982380Y-74858571D01*
X89934761Y-74763333D01*
X89887142Y-74715714D01*
X89791904Y-74668095D01*
X89553809Y-74668095D01*
X89458571Y-74715714D01*
X89410952Y-74763333D01*
X89363333Y-74858571D01*
X89363333Y-75049047D01*
X89410952Y-75144285D01*
X89458571Y-75191904D01*
X89553809Y-75239523D01*
X89973780Y-119904757D02*
X89497590Y-120238090D01*
X89973780Y-120476185D02*
X88973780Y-120476185D01*
X88973780Y-120095233D01*
X89021400Y-119999995D01*
X89069019Y-119952376D01*
X89164257Y-119904757D01*
X89307114Y-119904757D01*
X89402352Y-119952376D01*
X89449971Y-119999995D01*
X89497590Y-120095233D01*
X89497590Y-120476185D01*
X89973780Y-118952376D02*
X89973780Y-119523804D01*
X89973780Y-119238090D02*
X88973780Y-119238090D01*
X89116638Y-119333328D01*
X89211876Y-119428566D01*
X89259495Y-119523804D01*
X88973780Y-118619042D02*
X88973780Y-117952376D01*
X89973780Y-118380947D01*
X87802380Y-119634285D02*
X87802380Y-120205714D01*
X87802380Y-119920000D02*
X86802380Y-119920000D01*
X86945238Y-120015238D01*
X87040476Y-120110476D01*
X87088095Y-120205714D01*
X87802380Y-119205714D02*
X86802380Y-119205714D01*
X87802380Y-118634285D02*
X87230952Y-119062857D01*
X86802380Y-118634285D02*
X87373809Y-119205714D01*
X90032380Y-119742857D02*
X89556190Y-120076190D01*
X90032380Y-120314285D02*
X89032380Y-120314285D01*
X89032380Y-119933333D01*
X89080000Y-119838095D01*
X89127619Y-119790476D01*
X89222857Y-119742857D01*
X89365714Y-119742857D01*
X89460952Y-119790476D01*
X89508571Y-119838095D01*
X89556190Y-119933333D01*
X89556190Y-120314285D01*
X90032380Y-118790476D02*
X90032380Y-119361904D01*
X90032380Y-119076190D02*
X89032380Y-119076190D01*
X89175238Y-119171428D01*
X89270476Y-119266666D01*
X89318095Y-119361904D01*
X89032380Y-118457142D02*
X89032380Y-117790476D01*
X90032380Y-118219047D01*
X89547080Y-163107857D02*
X89070890Y-163441190D01*
X89547080Y-163679285D02*
X88547080Y-163679285D01*
X88547080Y-163298333D01*
X88594700Y-163203095D01*
X88642319Y-163155476D01*
X88737557Y-163107857D01*
X88880414Y-163107857D01*
X88975652Y-163155476D01*
X89023271Y-163203095D01*
X89070890Y-163298333D01*
X89070890Y-163679285D01*
X89547080Y-162155476D02*
X89547080Y-162726904D01*
X89547080Y-162441190D02*
X88547080Y-162441190D01*
X88689938Y-162536428D01*
X88785176Y-162631666D01*
X88832795Y-162726904D01*
X88975652Y-161584047D02*
X88928033Y-161679285D01*
X88880414Y-161726904D01*
X88785176Y-161774523D01*
X88737557Y-161774523D01*
X88642319Y-161726904D01*
X88594700Y-161679285D01*
X88547080Y-161584047D01*
X88547080Y-161393571D01*
X88594700Y-161298333D01*
X88642319Y-161250714D01*
X88737557Y-161203095D01*
X88785176Y-161203095D01*
X88880414Y-161250714D01*
X88928033Y-161298333D01*
X88975652Y-161393571D01*
X88975652Y-161584047D01*
X89023271Y-161679285D01*
X89070890Y-161726904D01*
X89166128Y-161774523D01*
X89356604Y-161774523D01*
X89451842Y-161726904D01*
X89499461Y-161679285D01*
X89547080Y-161584047D01*
X89547080Y-161393571D01*
X89499461Y-161298333D01*
X89451842Y-161250714D01*
X89356604Y-161203095D01*
X89166128Y-161203095D01*
X89070890Y-161250714D01*
X89023271Y-161298333D01*
X88975652Y-161393571D01*
X87422380Y-162944285D02*
X87422380Y-163515714D01*
X87422380Y-163230000D02*
X86422380Y-163230000D01*
X86565238Y-163325238D01*
X86660476Y-163420476D01*
X86708095Y-163515714D01*
X87422380Y-162515714D02*
X86422380Y-162515714D01*
X87422380Y-161944285D02*
X86850952Y-162372857D01*
X86422380Y-161944285D02*
X86993809Y-162515714D01*
X89462380Y-162992857D02*
X88986190Y-163326190D01*
X89462380Y-163564285D02*
X88462380Y-163564285D01*
X88462380Y-163183333D01*
X88510000Y-163088095D01*
X88557619Y-163040476D01*
X88652857Y-162992857D01*
X88795714Y-162992857D01*
X88890952Y-163040476D01*
X88938571Y-163088095D01*
X88986190Y-163183333D01*
X88986190Y-163564285D01*
X89462380Y-162040476D02*
X89462380Y-162611904D01*
X89462380Y-162326190D02*
X88462380Y-162326190D01*
X88605238Y-162421428D01*
X88700476Y-162516666D01*
X88748095Y-162611904D01*
X88890952Y-161469047D02*
X88843333Y-161564285D01*
X88795714Y-161611904D01*
X88700476Y-161659523D01*
X88652857Y-161659523D01*
X88557619Y-161611904D01*
X88510000Y-161564285D01*
X88462380Y-161469047D01*
X88462380Y-161278571D01*
X88510000Y-161183333D01*
X88557619Y-161135714D01*
X88652857Y-161088095D01*
X88700476Y-161088095D01*
X88795714Y-161135714D01*
X88843333Y-161183333D01*
X88890952Y-161278571D01*
X88890952Y-161469047D01*
X88938571Y-161564285D01*
X88986190Y-161611904D01*
X89081428Y-161659523D01*
X89271904Y-161659523D01*
X89367142Y-161611904D01*
X89414761Y-161564285D01*
X89462380Y-161469047D01*
X89462380Y-161278571D01*
X89414761Y-161183333D01*
X89367142Y-161135714D01*
X89271904Y-161088095D01*
X89081428Y-161088095D01*
X88986190Y-161135714D01*
X88938571Y-161183333D01*
X88890952Y-161278571D01*
X78304695Y-58865980D02*
X78304695Y-59675504D01*
X78352314Y-59770742D01*
X78399933Y-59818361D01*
X78495171Y-59865980D01*
X78685647Y-59865980D01*
X78780885Y-59818361D01*
X78828504Y-59770742D01*
X78876123Y-59675504D01*
X78876123Y-58865980D01*
X79876123Y-59865980D02*
X79304695Y-59865980D01*
X79590409Y-59865980D02*
X79590409Y-58865980D01*
X79495171Y-59008838D01*
X79399933Y-59104076D01*
X79304695Y-59151695D01*
X75879523Y-80132380D02*
X75403333Y-80132380D01*
X75403333Y-79132380D01*
X76212857Y-80132380D02*
X76212857Y-79132380D01*
X76546190Y-79846666D01*
X76879523Y-79132380D01*
X76879523Y-80132380D01*
X77260476Y-79132380D02*
X77879523Y-79132380D01*
X77546190Y-79513333D01*
X77689047Y-79513333D01*
X77784285Y-79560952D01*
X77831904Y-79608571D01*
X77879523Y-79703809D01*
X77879523Y-79941904D01*
X77831904Y-80037142D01*
X77784285Y-80084761D01*
X77689047Y-80132380D01*
X77403333Y-80132380D01*
X77308095Y-80084761D01*
X77260476Y-80037142D01*
X78260476Y-79227619D02*
X78308095Y-79180000D01*
X78403333Y-79132380D01*
X78641428Y-79132380D01*
X78736666Y-79180000D01*
X78784285Y-79227619D01*
X78831904Y-79322857D01*
X78831904Y-79418095D01*
X78784285Y-79560952D01*
X78212857Y-80132380D01*
X78831904Y-80132380D01*
X79689047Y-79465714D02*
X79689047Y-80132380D01*
X79450952Y-79084761D02*
X79212857Y-79799047D01*
X79831904Y-79799047D01*
X77628095Y-63282380D02*
X77628095Y-64091904D01*
X77675714Y-64187142D01*
X77723333Y-64234761D01*
X77818571Y-64282380D01*
X78009047Y-64282380D01*
X78104285Y-64234761D01*
X78151904Y-64187142D01*
X78199523Y-64091904D01*
X78199523Y-63282380D01*
X79199523Y-64282380D02*
X78628095Y-64282380D01*
X78913809Y-64282380D02*
X78913809Y-63282380D01*
X78818571Y-63425238D01*
X78723333Y-63520476D01*
X78628095Y-63568095D01*
M02*
