M48
; DRILL file {KiCad (5.1.5)-3} date 13/07/2020 19:53:21
; FORMAT={-:-/ absolute / metric / decimal}
; #@! TF.CreationDate,2020-07-13T19:53:21+01:00
; #@! TF.GenerationSoftware,Kicad,Pcbnew,(5.1.5)-3
FMAT,2
METRIC
T1C0.800
T2C1.016
T3C1.100
T4C2.700
%
G90
G05
T1
X67.139Y-84.654
X67.139Y-94.814
X75.257Y-61.744
X75.257Y-64.284
X75.257Y-66.824
X75.257Y-69.364
X75.257Y-71.904
X75.257Y-74.444
X75.257Y-76.984
X82.877Y-61.744
X82.877Y-64.284
X82.877Y-66.824
X82.877Y-69.364
X82.877Y-71.904
X82.877Y-74.444
X82.877Y-76.984
X65.942Y-113.902
X65.942Y-118.902
X78.27Y-35.54
X88.43Y-35.54
X65.521Y-25.8
X65.521Y-30.8
X74.291Y-114.197
X74.291Y-124.357
X64.599Y-157.796
X69.599Y-157.796
X73.727Y-158.147
X73.727Y-168.307
X87.205Y-70.852
X87.205Y-81.012
X80.26Y-67.0
X80.26Y-72.0
X74.35Y-31.53
X74.35Y-34.07
X74.35Y-36.61
X86.722Y-56.524
X86.722Y-66.684
X80.791Y-114.197
X80.791Y-124.357
X68.094Y-40.844
X68.094Y-51.005
X80.54Y-157.58
X80.54Y-167.74
X66.11Y-107.398
X76.27Y-107.398
X65.201Y-69.869
X65.201Y-74.869
X86.725Y-157.385
X86.725Y-167.545
X64.698Y-151.065
X74.858Y-151.065
X78.83Y-17.093
X88.99Y-17.093
X68.376Y-55.797
X68.376Y-65.957
X87.151Y-114.182
X87.151Y-124.342
X71.007Y-70.24
X71.007Y-80.4
X65.706Y-17.126
X75.866Y-17.126
X78.77Y-31.7
X88.93Y-31.7
T2
X73.58Y-22.666
X73.58Y-25.206
X76.12Y-22.666
X76.12Y-25.206
X78.66Y-22.666
X78.66Y-25.206
X81.2Y-22.666
X81.2Y-25.206
X83.74Y-22.666
X83.74Y-25.206
T3
X59.43Y-168.022
X69.59Y-168.022
X56.844Y-79.765
X67.004Y-79.765
X60.207Y-124.266
X70.367Y-124.266
X57.802Y-35.998
X67.962Y-35.998
T4
X74.015Y-179.842
X77.952Y-185.176
X79.984Y-172.984
X85.064Y-183.652
X86.08Y-176.54
X49.015Y-47.842
X52.952Y-53.176
X54.984Y-40.984
X60.064Y-51.652
X61.08Y-44.54
X49.015Y-69.842
X52.952Y-75.176
X54.984Y-62.984
X60.064Y-73.652
X61.08Y-66.54
X49.015Y-157.842
X52.952Y-163.176
X54.984Y-150.984
X60.064Y-161.652
X61.08Y-154.54
X49.015Y-91.842
X52.952Y-97.176
X54.984Y-84.984
X60.064Y-95.652
X61.08Y-88.54
X49.015Y-25.842
X52.952Y-31.176
X54.984Y-18.984
X60.064Y-29.652
X61.08Y-22.54
X74.015Y-135.842
X77.952Y-141.176
X79.984Y-128.984
X85.064Y-139.652
X86.08Y-132.54
X49.015Y-135.842
X52.952Y-141.176
X54.984Y-128.984
X60.064Y-139.652
X61.08Y-132.54
X74.015Y-91.842
X77.952Y-97.176
X79.984Y-84.984
X85.064Y-95.652
X86.08Y-88.54
X49.015Y-113.842
X52.952Y-119.176
X54.984Y-106.984
X60.064Y-117.652
X61.08Y-110.54
X49.015Y-179.842
X52.952Y-185.176
X54.984Y-172.984
X60.064Y-183.652
X61.08Y-176.54
X74.015Y-47.842
X77.952Y-53.176
X79.984Y-40.984
X85.064Y-51.652
X86.08Y-44.54
T0
M30
