G04 #@! TF.GenerationSoftware,KiCad,Pcbnew,(5.1.5)-3*
G04 #@! TF.CreationDate,2020-07-13T19:54:25+01:00*
G04 #@! TF.ProjectId,Panel,50616e65-6c2e-46b6-9963-61645f706362,rev?*
G04 #@! TF.SameCoordinates,Original*
G04 #@! TF.FileFunction,Copper,L2,Bot*
G04 #@! TF.FilePolarity,Positive*
%FSLAX46Y46*%
G04 Gerber Fmt 4.6, Leading zero omitted, Abs format (unit mm)*
G04 Created by KiCad (PCBNEW (5.1.5)-3) date 2020-07-13 19:54:25*
%MOMM*%
%LPD*%
G04 APERTURE LIST*
%ADD10C,0.300000*%
%ADD11C,2.300000*%
%ADD12C,5.600000*%
%ADD13C,14.000000*%
%ADD14C,0.450000*%
%ADD15C,0.250000*%
%ADD16C,0.254000*%
G04 APERTURE END LIST*
D10*
X192054254Y-38185602D02*
X192125682Y-38105245D01*
X192197111Y-37882031D01*
X192197111Y-37739174D01*
X192125682Y-37533817D01*
X191982825Y-37408817D01*
X191839968Y-37355245D01*
X191554254Y-37319531D01*
X191339968Y-37346317D01*
X191054254Y-37453460D01*
X190911397Y-37542745D01*
X190768540Y-37703460D01*
X190697111Y-37926674D01*
X190697111Y-38069531D01*
X190768540Y-38274888D01*
X190839968Y-38337388D01*
X192197111Y-39524888D02*
X192197111Y-38810602D01*
X190697111Y-38998102D01*
X191768540Y-40007031D02*
X191768540Y-40721317D01*
X192197111Y-39810602D02*
X190697111Y-40498102D01*
X192197111Y-40810602D01*
X191482825Y-41685602D02*
X192197111Y-41596317D01*
X190697111Y-41283817D02*
X191482825Y-41685602D01*
X190697111Y-42283817D01*
X190697111Y-42569531D02*
X190697111Y-43426674D01*
X192197111Y-42810602D02*
X190697111Y-42998102D01*
X190697111Y-43926674D02*
X191911397Y-43774888D01*
X192054254Y-43828460D01*
X192125682Y-43890960D01*
X192197111Y-44024888D01*
X192197111Y-44310602D01*
X192125682Y-44462388D01*
X192054254Y-44542745D01*
X191911397Y-44632031D01*
X190697111Y-44783817D01*
X192197111Y-45310602D02*
X190697111Y-45498102D01*
X192197111Y-46167745D01*
X190697111Y-46355245D01*
X191411397Y-46980245D02*
X191411397Y-47480245D01*
X192197111Y-47596317D02*
X192197111Y-46882031D01*
X190697111Y-47069531D01*
X190697111Y-47783817D01*
X191625682Y-49453460D02*
X191625682Y-50596317D01*
X192125682Y-52319531D02*
X192197111Y-52524888D01*
X192197111Y-52882031D01*
X192125682Y-53033817D01*
X192054254Y-53114174D01*
X191911397Y-53203460D01*
X191768540Y-53221317D01*
X191625682Y-53167745D01*
X191554254Y-53105245D01*
X191482825Y-52971317D01*
X191411397Y-52694531D01*
X191339968Y-52560602D01*
X191268540Y-52498102D01*
X191125682Y-52444531D01*
X190982825Y-52462388D01*
X190839968Y-52551674D01*
X190768540Y-52632031D01*
X190697111Y-52783817D01*
X190697111Y-53140960D01*
X190768540Y-53346317D01*
X192197111Y-53810602D02*
X191197111Y-53935602D01*
X190697111Y-53998102D02*
X190768540Y-53917745D01*
X190839968Y-53980245D01*
X190768540Y-54060602D01*
X190697111Y-53998102D01*
X190839968Y-53980245D01*
X192197111Y-54524888D02*
X191197111Y-54649888D01*
X191339968Y-54632031D02*
X191268540Y-54712388D01*
X191197111Y-54864174D01*
X191197111Y-55078460D01*
X191268540Y-55212388D01*
X191411397Y-55265960D01*
X192197111Y-55167745D01*
X191411397Y-55265960D02*
X191268540Y-55355245D01*
X191197111Y-55507031D01*
X191197111Y-55721317D01*
X191268540Y-55855245D01*
X191411397Y-55908817D01*
X192197111Y-55810602D01*
X191197111Y-56649888D02*
X192697111Y-56462388D01*
X191268540Y-56640960D02*
X191197111Y-56792745D01*
X191197111Y-57078460D01*
X191268540Y-57212388D01*
X191339968Y-57274888D01*
X191482825Y-57328460D01*
X191911397Y-57274888D01*
X192054254Y-57185602D01*
X192125682Y-57105245D01*
X192197111Y-56953460D01*
X192197111Y-56667745D01*
X192125682Y-56533817D01*
X192197111Y-58096317D02*
X192125682Y-57962388D01*
X191982825Y-57908817D01*
X190697111Y-58069531D01*
X192125682Y-59248102D02*
X192197111Y-59096317D01*
X192197111Y-58810602D01*
X192125682Y-58676674D01*
X191982825Y-58623102D01*
X191411397Y-58694531D01*
X191268540Y-58783817D01*
X191197111Y-58935602D01*
X191197111Y-59221317D01*
X191268540Y-59355245D01*
X191411397Y-59408817D01*
X191554254Y-59390960D01*
X191697111Y-58658817D01*
X190768540Y-62060602D02*
X190697111Y-61926674D01*
X190697111Y-61712388D01*
X190768540Y-61489174D01*
X190911397Y-61328460D01*
X191054254Y-61239174D01*
X191339968Y-61132031D01*
X191554254Y-61105245D01*
X191839968Y-61140960D01*
X191982825Y-61194531D01*
X192125682Y-61319531D01*
X192197111Y-61524888D01*
X192197111Y-61667745D01*
X192125682Y-61890960D01*
X192054254Y-61971317D01*
X191554254Y-62033817D01*
X191554254Y-61748102D01*
X191768540Y-62578460D02*
X191768540Y-63292745D01*
X192197111Y-62382031D02*
X190697111Y-63069531D01*
X192197111Y-63382031D01*
X190697111Y-63855245D02*
X190697111Y-64712388D01*
X192197111Y-64096317D02*
X190697111Y-64283817D01*
X191411397Y-65123102D02*
X191411397Y-65623102D01*
X192197111Y-65739174D02*
X192197111Y-65024888D01*
X190697111Y-65212388D01*
X190697111Y-65926674D01*
X190697111Y-67498102D02*
X190697111Y-68355245D01*
X192197111Y-67739174D02*
X190697111Y-67926674D01*
X190697111Y-69140960D02*
X190697111Y-69426674D01*
X190768540Y-69560602D01*
X190911397Y-69685602D01*
X191197111Y-69721317D01*
X191697111Y-69658817D01*
X191982825Y-69551674D01*
X192125682Y-69390960D01*
X192197111Y-69239174D01*
X192197111Y-68953460D01*
X192125682Y-68819531D01*
X191982825Y-68694531D01*
X191697111Y-68658817D01*
X191197111Y-68721317D01*
X190911397Y-68828460D01*
X190768540Y-68989174D01*
X190697111Y-69140960D01*
X190697111Y-71355245D02*
X190697111Y-72212388D01*
X192197111Y-71596317D02*
X190697111Y-71783817D01*
X192197111Y-73382031D02*
X191482825Y-72971317D01*
X192197111Y-72524888D02*
X190697111Y-72712388D01*
X190697111Y-73283817D01*
X190768540Y-73417745D01*
X190839968Y-73480245D01*
X190982825Y-73533817D01*
X191197111Y-73507031D01*
X191339968Y-73417745D01*
X191411397Y-73337388D01*
X191482825Y-73185602D01*
X191482825Y-72614174D01*
X192197111Y-74024888D02*
X190697111Y-74212388D01*
X190768540Y-75703460D02*
X190697111Y-75569531D01*
X190697111Y-75355245D01*
X190768540Y-75132031D01*
X190911397Y-74971317D01*
X191054254Y-74882031D01*
X191339968Y-74774888D01*
X191554254Y-74748102D01*
X191839968Y-74783817D01*
X191982825Y-74837388D01*
X192125682Y-74962388D01*
X192197111Y-75167745D01*
X192197111Y-75310602D01*
X192125682Y-75533817D01*
X192054254Y-75614174D01*
X191554254Y-75676674D01*
X191554254Y-75390960D01*
X190768540Y-77203460D02*
X190697111Y-77069531D01*
X190697111Y-76855245D01*
X190768540Y-76632031D01*
X190911397Y-76471317D01*
X191054254Y-76382031D01*
X191339968Y-76274888D01*
X191554254Y-76248102D01*
X191839968Y-76283817D01*
X191982825Y-76337388D01*
X192125682Y-76462388D01*
X192197111Y-76667745D01*
X192197111Y-76810602D01*
X192125682Y-77033817D01*
X192054254Y-77114174D01*
X191554254Y-77176674D01*
X191554254Y-76890960D01*
X191411397Y-77837388D02*
X191411397Y-78337388D01*
X192197111Y-78453460D02*
X192197111Y-77739174D01*
X190697111Y-77926674D01*
X190697111Y-78640960D01*
X192197111Y-79953460D02*
X191482825Y-79542745D01*
X192197111Y-79096317D02*
X190697111Y-79283817D01*
X190697111Y-79855245D01*
X190768540Y-79989174D01*
X190839968Y-80051674D01*
X190982825Y-80105245D01*
X191197111Y-80078460D01*
X191339968Y-79989174D01*
X191411397Y-79908817D01*
X191482825Y-79757031D01*
X191482825Y-79185602D01*
X190697111Y-81712388D02*
X192197111Y-82024888D01*
X190697111Y-82712388D01*
X192197111Y-83810602D02*
X192197111Y-82953460D01*
X192197111Y-83382031D02*
X190697111Y-83569531D01*
X190911397Y-83399888D01*
X191054254Y-83239174D01*
X191125682Y-83087388D01*
X192054254Y-84471317D02*
X192125682Y-84533817D01*
X192197111Y-84453460D01*
X192125682Y-84390960D01*
X192054254Y-84471317D01*
X192197111Y-84453460D01*
X190697111Y-85640960D02*
X190697111Y-85783817D01*
X190768540Y-85917745D01*
X190839968Y-85980245D01*
X190982825Y-86033817D01*
X191268540Y-86069531D01*
X191625682Y-86024888D01*
X191911397Y-85917745D01*
X192054254Y-85828460D01*
X192125682Y-85748102D01*
X192197111Y-85596317D01*
X192197111Y-85453460D01*
X192125682Y-85319531D01*
X192054254Y-85257031D01*
X191911397Y-85203460D01*
X191625682Y-85167745D01*
X191268540Y-85212388D01*
X190982825Y-85319531D01*
X190839968Y-85408817D01*
X190768540Y-85489174D01*
X190697111Y-85640960D01*
X191625682Y-87810602D02*
X191625682Y-88953460D01*
X191411397Y-91337388D02*
X191482825Y-91542745D01*
X191554254Y-91605245D01*
X191697111Y-91658817D01*
X191911397Y-91632031D01*
X192054254Y-91542745D01*
X192125682Y-91462388D01*
X192197111Y-91310602D01*
X192197111Y-90739174D01*
X190697111Y-90926674D01*
X190697111Y-91426674D01*
X190768540Y-91560602D01*
X190839968Y-91623102D01*
X190982825Y-91676674D01*
X191125682Y-91658817D01*
X191268540Y-91569531D01*
X191339968Y-91489174D01*
X191411397Y-91337388D01*
X191411397Y-90837388D01*
X191197111Y-92221317D02*
X192197111Y-92453460D01*
X191197111Y-92935602D02*
X192197111Y-92453460D01*
X192554254Y-92265960D01*
X192625682Y-92185602D01*
X192697111Y-92033817D01*
X190697111Y-94498102D02*
X190697111Y-95355245D01*
X192197111Y-94739174D02*
X190697111Y-94926674D01*
X191197111Y-95649888D02*
X192197111Y-95810602D01*
X191482825Y-96185602D01*
X192197111Y-96382031D01*
X191197111Y-96792745D01*
X192197111Y-97239174D02*
X191197111Y-97364174D01*
X190697111Y-97426674D02*
X190768540Y-97346317D01*
X190839968Y-97408817D01*
X190768540Y-97489174D01*
X190697111Y-97426674D01*
X190839968Y-97408817D01*
X191197111Y-98078460D02*
X192197111Y-97953460D01*
X191339968Y-98060602D02*
X191268540Y-98140960D01*
X191197111Y-98292745D01*
X191197111Y-98507031D01*
X191268540Y-98640960D01*
X191411397Y-98694531D01*
X192197111Y-98596317D01*
X190697111Y-99283817D02*
X190697111Y-100140960D01*
X192197111Y-99524888D02*
X190697111Y-99712388D01*
X191197111Y-101221317D02*
X192197111Y-101096317D01*
X191197111Y-100578460D02*
X191982825Y-100480245D01*
X192125682Y-100533817D01*
X192197111Y-100667745D01*
X192197111Y-100882031D01*
X192125682Y-101033817D01*
X192054254Y-101114174D01*
X192197111Y-101810602D02*
X191197111Y-101935602D01*
X191482825Y-101899888D02*
X191339968Y-101989174D01*
X191268540Y-102069531D01*
X191197111Y-102221317D01*
X191197111Y-102364174D01*
X192197111Y-102739174D02*
X190697111Y-102926674D01*
X191268540Y-102855245D02*
X191197111Y-103007031D01*
X191197111Y-103292745D01*
X191268540Y-103426674D01*
X191339968Y-103489174D01*
X191482825Y-103542745D01*
X191911397Y-103489174D01*
X192054254Y-103399888D01*
X192125682Y-103319531D01*
X192197111Y-103167745D01*
X192197111Y-102882031D01*
X192125682Y-102748102D01*
X192197111Y-104310602D02*
X192125682Y-104176674D01*
X192054254Y-104114174D01*
X191911397Y-104060602D01*
X191482825Y-104114174D01*
X191339968Y-104203460D01*
X191268540Y-104283817D01*
X191197111Y-104435602D01*
X191197111Y-104649888D01*
X191268540Y-104783817D01*
X191339968Y-104846317D01*
X191482825Y-104899888D01*
X191911397Y-104846317D01*
X192054254Y-104757031D01*
X192125682Y-104676674D01*
X192197111Y-104524888D01*
X192197111Y-104310602D01*
D11*
X177596000Y-6715320D03*
D12*
X148494920Y17484560D03*
D13*
X181801500Y-155506800D03*
X156801500Y-133506800D03*
X156801500Y-23506800D03*
X156801500Y-1506800D03*
X181801500Y-111506800D03*
X156801500Y-45506800D03*
X156801500Y-111506800D03*
X156801500Y-67506800D03*
X156801500Y-89506800D03*
X181801500Y-23506800D03*
X181801500Y-67506800D03*
X156801500Y-155506800D03*
D12*
X191494920Y-175515440D03*
X191494920Y17484560D03*
X148494920Y-175515440D03*
D14*
X162145500Y-5984700D02*
X162145500Y-5818800D01*
X162145500Y-159818800D02*
X162145500Y-159088800D01*
D15*
X151142500Y-133962800D02*
X151096500Y-134008800D01*
X167255100Y-46008800D02*
X167282200Y-46035900D01*
D16*
G36*
X194334920Y-178355440D02*
G01*
X145654920Y-178355440D01*
X145654920Y-154754818D01*
X149166500Y-154754818D01*
X149166500Y-156258782D01*
X149459908Y-157733847D01*
X150035450Y-159123329D01*
X150871008Y-160373829D01*
X151934471Y-161437292D01*
X153184971Y-162272850D01*
X154574453Y-162848392D01*
X156049518Y-163141800D01*
X157553482Y-163141800D01*
X159028547Y-162848392D01*
X160418029Y-162272850D01*
X161668529Y-161437292D01*
X162502926Y-160602895D01*
X162625601Y-160537324D01*
X162756554Y-160429854D01*
X162864024Y-160298902D01*
X162943881Y-160149500D01*
X162993056Y-159987389D01*
X162993549Y-159982381D01*
X163567550Y-159123329D01*
X164143092Y-157733847D01*
X164436500Y-156258782D01*
X164436500Y-154754818D01*
X174166500Y-154754818D01*
X174166500Y-156258782D01*
X174459908Y-157733847D01*
X175035450Y-159123329D01*
X175871008Y-160373829D01*
X176934471Y-161437292D01*
X178184971Y-162272850D01*
X179574453Y-162848392D01*
X181049518Y-163141800D01*
X182553482Y-163141800D01*
X184028547Y-162848392D01*
X185418029Y-162272850D01*
X186668529Y-161437292D01*
X187731992Y-160373829D01*
X188567550Y-159123329D01*
X189143092Y-157733847D01*
X189436500Y-156258782D01*
X189436500Y-154754818D01*
X189143092Y-153279753D01*
X188567550Y-151890271D01*
X187731992Y-150639771D01*
X186668529Y-149576308D01*
X185418029Y-148740750D01*
X184028547Y-148165208D01*
X182553482Y-147871800D01*
X181049518Y-147871800D01*
X179574453Y-148165208D01*
X178184971Y-148740750D01*
X176934471Y-149576308D01*
X175871008Y-150639771D01*
X175035450Y-151890271D01*
X174459908Y-153279753D01*
X174166500Y-154754818D01*
X164436500Y-154754818D01*
X164143092Y-153279753D01*
X163567550Y-151890271D01*
X162731992Y-150639771D01*
X161668529Y-149576308D01*
X160418029Y-148740750D01*
X159028547Y-148165208D01*
X157553482Y-147871800D01*
X156049518Y-147871800D01*
X154574453Y-148165208D01*
X153184971Y-148740750D01*
X151934471Y-149576308D01*
X150871008Y-150639771D01*
X150035450Y-151890271D01*
X149459908Y-153279753D01*
X149166500Y-154754818D01*
X145654920Y-154754818D01*
X145654920Y-132754818D01*
X149166500Y-132754818D01*
X149166500Y-134258782D01*
X149459908Y-135733847D01*
X150035450Y-137123329D01*
X150871008Y-138373829D01*
X151934471Y-139437292D01*
X153184971Y-140272850D01*
X154574453Y-140848392D01*
X156049518Y-141141800D01*
X157553482Y-141141800D01*
X159028547Y-140848392D01*
X160418029Y-140272850D01*
X161668529Y-139437292D01*
X162731992Y-138373829D01*
X163567550Y-137123329D01*
X164143092Y-135733847D01*
X164436500Y-134258782D01*
X164436500Y-132754818D01*
X164143092Y-131279753D01*
X163567550Y-129890271D01*
X162731992Y-128639771D01*
X161668529Y-127576308D01*
X160418029Y-126740750D01*
X159028547Y-126165208D01*
X157553482Y-125871800D01*
X156049518Y-125871800D01*
X154574453Y-126165208D01*
X153184971Y-126740750D01*
X151934471Y-127576308D01*
X150871008Y-128639771D01*
X150035450Y-129890271D01*
X149459908Y-131279753D01*
X149166500Y-132754818D01*
X145654920Y-132754818D01*
X145654920Y-110754818D01*
X149166500Y-110754818D01*
X149166500Y-112258782D01*
X149459908Y-113733847D01*
X150035450Y-115123329D01*
X150871008Y-116373829D01*
X151934471Y-117437292D01*
X153184971Y-118272850D01*
X154574453Y-118848392D01*
X156049518Y-119141800D01*
X157553482Y-119141800D01*
X159028547Y-118848392D01*
X160418029Y-118272850D01*
X161668529Y-117437292D01*
X162731992Y-116373829D01*
X163567550Y-115123329D01*
X164143092Y-113733847D01*
X164436500Y-112258782D01*
X164436500Y-110754818D01*
X174166500Y-110754818D01*
X174166500Y-112258782D01*
X174459908Y-113733847D01*
X175035450Y-115123329D01*
X175871008Y-116373829D01*
X176934471Y-117437292D01*
X178184971Y-118272850D01*
X179574453Y-118848392D01*
X181049518Y-119141800D01*
X182553482Y-119141800D01*
X184028547Y-118848392D01*
X185418029Y-118272850D01*
X186668529Y-117437292D01*
X187731992Y-116373829D01*
X188567550Y-115123329D01*
X189143092Y-113733847D01*
X189436500Y-112258782D01*
X189436500Y-110754818D01*
X189143092Y-109279753D01*
X188567550Y-107890271D01*
X187731992Y-106639771D01*
X186668529Y-105576308D01*
X185418029Y-104740750D01*
X184028547Y-104165208D01*
X182553482Y-103871800D01*
X181049518Y-103871800D01*
X179574453Y-104165208D01*
X178184971Y-104740750D01*
X176934471Y-105576308D01*
X175871008Y-106639771D01*
X175035450Y-107890271D01*
X174459908Y-109279753D01*
X174166500Y-110754818D01*
X164436500Y-110754818D01*
X164143092Y-109279753D01*
X163567550Y-107890271D01*
X162731992Y-106639771D01*
X161668529Y-105576308D01*
X160418029Y-104740750D01*
X159028547Y-104165208D01*
X157553482Y-103871800D01*
X156049518Y-103871800D01*
X154574453Y-104165208D01*
X153184971Y-104740750D01*
X151934471Y-105576308D01*
X150871008Y-106639771D01*
X150035450Y-107890271D01*
X149459908Y-109279753D01*
X149166500Y-110754818D01*
X145654920Y-110754818D01*
X145654920Y-88754818D01*
X149166500Y-88754818D01*
X149166500Y-90258782D01*
X149459908Y-91733847D01*
X150035450Y-93123329D01*
X150871008Y-94373829D01*
X151934471Y-95437292D01*
X153184971Y-96272850D01*
X154574453Y-96848392D01*
X156049518Y-97141800D01*
X157553482Y-97141800D01*
X159028547Y-96848392D01*
X160418029Y-96272850D01*
X161668529Y-95437292D01*
X162731992Y-94373829D01*
X163567550Y-93123329D01*
X164143092Y-91733847D01*
X164436500Y-90258782D01*
X164436500Y-88754818D01*
X164143092Y-87279753D01*
X163567550Y-85890271D01*
X162731992Y-84639771D01*
X161668529Y-83576308D01*
X160418029Y-82740750D01*
X159028547Y-82165208D01*
X157553482Y-81871800D01*
X156049518Y-81871800D01*
X154574453Y-82165208D01*
X153184971Y-82740750D01*
X151934471Y-83576308D01*
X150871008Y-84639771D01*
X150035450Y-85890271D01*
X149459908Y-87279753D01*
X149166500Y-88754818D01*
X145654920Y-88754818D01*
X145654920Y-66754818D01*
X149166500Y-66754818D01*
X149166500Y-68258782D01*
X149459908Y-69733847D01*
X150035450Y-71123329D01*
X150871008Y-72373829D01*
X151934471Y-73437292D01*
X153184971Y-74272850D01*
X154574453Y-74848392D01*
X156049518Y-75141800D01*
X157553482Y-75141800D01*
X159028547Y-74848392D01*
X160418029Y-74272850D01*
X161668529Y-73437292D01*
X162731992Y-72373829D01*
X163567550Y-71123329D01*
X164143092Y-69733847D01*
X164436500Y-68258782D01*
X164436500Y-66754818D01*
X174166500Y-66754818D01*
X174166500Y-68258782D01*
X174459908Y-69733847D01*
X175035450Y-71123329D01*
X175871008Y-72373829D01*
X176934471Y-73437292D01*
X178184971Y-74272850D01*
X179574453Y-74848392D01*
X181049518Y-75141800D01*
X182553482Y-75141800D01*
X184028547Y-74848392D01*
X185418029Y-74272850D01*
X186668529Y-73437292D01*
X187731992Y-72373829D01*
X188567550Y-71123329D01*
X189143092Y-69733847D01*
X189436500Y-68258782D01*
X189436500Y-66754818D01*
X189143092Y-65279753D01*
X188567550Y-63890271D01*
X187731992Y-62639771D01*
X186668529Y-61576308D01*
X185418029Y-60740750D01*
X184028547Y-60165208D01*
X182553482Y-59871800D01*
X181049518Y-59871800D01*
X179574453Y-60165208D01*
X178184971Y-60740750D01*
X176934471Y-61576308D01*
X175871008Y-62639771D01*
X175035450Y-63890271D01*
X174459908Y-65279753D01*
X174166500Y-66754818D01*
X164436500Y-66754818D01*
X164143092Y-65279753D01*
X163567550Y-63890271D01*
X162731992Y-62639771D01*
X161668529Y-61576308D01*
X160418029Y-60740750D01*
X159028547Y-60165208D01*
X157553482Y-59871800D01*
X156049518Y-59871800D01*
X154574453Y-60165208D01*
X153184971Y-60740750D01*
X151934471Y-61576308D01*
X150871008Y-62639771D01*
X150035450Y-63890271D01*
X149459908Y-65279753D01*
X149166500Y-66754818D01*
X145654920Y-66754818D01*
X145654920Y-44754818D01*
X149166500Y-44754818D01*
X149166500Y-46258782D01*
X149459908Y-47733847D01*
X150035450Y-49123329D01*
X150871008Y-50373829D01*
X151934471Y-51437292D01*
X153184971Y-52272850D01*
X154574453Y-52848392D01*
X156049518Y-53141800D01*
X157553482Y-53141800D01*
X159028547Y-52848392D01*
X160418029Y-52272850D01*
X161668529Y-51437292D01*
X162731992Y-50373829D01*
X163567550Y-49123329D01*
X164143092Y-47733847D01*
X164436500Y-46258782D01*
X164436500Y-46008800D01*
X166491424Y-46008800D01*
X166506098Y-46157785D01*
X166549554Y-46301046D01*
X166620126Y-46433076D01*
X166691301Y-46519802D01*
X166771198Y-46599699D01*
X166857924Y-46670873D01*
X166989954Y-46741446D01*
X167133214Y-46784902D01*
X167282199Y-46799576D01*
X167431185Y-46784902D01*
X167574446Y-46741446D01*
X167706475Y-46670873D01*
X167822201Y-46575901D01*
X167917173Y-46460175D01*
X167987746Y-46328146D01*
X168031202Y-46184885D01*
X168045876Y-46035899D01*
X168031202Y-45886914D01*
X167987746Y-45743654D01*
X167917173Y-45611624D01*
X167845999Y-45524898D01*
X167766102Y-45445001D01*
X167679376Y-45373826D01*
X167547346Y-45303254D01*
X167404085Y-45259798D01*
X167255100Y-45245124D01*
X167106115Y-45259798D01*
X166962854Y-45303254D01*
X166830824Y-45373826D01*
X166715099Y-45468799D01*
X166620126Y-45584524D01*
X166549554Y-45716554D01*
X166506098Y-45859815D01*
X166491424Y-46008800D01*
X164436500Y-46008800D01*
X164436500Y-44754818D01*
X164143092Y-43279753D01*
X163567550Y-41890271D01*
X162731992Y-40639771D01*
X161668529Y-39576308D01*
X160418029Y-38740750D01*
X159028547Y-38165208D01*
X157553482Y-37871800D01*
X156049518Y-37871800D01*
X154574453Y-38165208D01*
X153184971Y-38740750D01*
X151934471Y-39576308D01*
X150871008Y-40639771D01*
X150035450Y-41890271D01*
X149459908Y-43279753D01*
X149166500Y-44754818D01*
X145654920Y-44754818D01*
X145654920Y-36324531D01*
X189728540Y-36324531D01*
X189728540Y-106037388D01*
X193548540Y-106037388D01*
X193548540Y-36324531D01*
X189728540Y-36324531D01*
X145654920Y-36324531D01*
X145654920Y-22754818D01*
X149166500Y-22754818D01*
X149166500Y-24258782D01*
X149459908Y-25733847D01*
X150035450Y-27123329D01*
X150871008Y-28373829D01*
X151934471Y-29437292D01*
X153184971Y-30272850D01*
X154574453Y-30848392D01*
X156049518Y-31141800D01*
X157553482Y-31141800D01*
X159028547Y-30848392D01*
X160418029Y-30272850D01*
X161668529Y-29437292D01*
X162731992Y-28373829D01*
X163567550Y-27123329D01*
X164143092Y-25733847D01*
X164436500Y-24258782D01*
X164436500Y-22754818D01*
X174166500Y-22754818D01*
X174166500Y-24258782D01*
X174459908Y-25733847D01*
X175035450Y-27123329D01*
X175871008Y-28373829D01*
X176934471Y-29437292D01*
X178184971Y-30272850D01*
X179574453Y-30848392D01*
X181049518Y-31141800D01*
X182553482Y-31141800D01*
X184028547Y-30848392D01*
X185418029Y-30272850D01*
X186668529Y-29437292D01*
X187731992Y-28373829D01*
X188567550Y-27123329D01*
X189143092Y-25733847D01*
X189436500Y-24258782D01*
X189436500Y-22754818D01*
X189143092Y-21279753D01*
X188567550Y-19890271D01*
X187731992Y-18639771D01*
X186668529Y-17576308D01*
X185418029Y-16740750D01*
X184028547Y-16165208D01*
X182553482Y-15871800D01*
X181049518Y-15871800D01*
X179574453Y-16165208D01*
X178184971Y-16740750D01*
X176934471Y-17576308D01*
X175871008Y-18639771D01*
X175035450Y-19890271D01*
X174459908Y-21279753D01*
X174166500Y-22754818D01*
X164436500Y-22754818D01*
X164143092Y-21279753D01*
X163567550Y-19890271D01*
X162731992Y-18639771D01*
X161668529Y-17576308D01*
X160418029Y-16740750D01*
X159028547Y-16165208D01*
X157553482Y-15871800D01*
X156049518Y-15871800D01*
X154574453Y-16165208D01*
X153184971Y-16740750D01*
X151934471Y-17576308D01*
X150871008Y-18639771D01*
X150035450Y-19890271D01*
X149459908Y-21279753D01*
X149166500Y-22754818D01*
X145654920Y-22754818D01*
X145654920Y-754818D01*
X149166500Y-754818D01*
X149166500Y-2258782D01*
X149459908Y-3733847D01*
X150035450Y-5123329D01*
X150871008Y-6373829D01*
X151934471Y-7437292D01*
X153184971Y-8272850D01*
X154574453Y-8848392D01*
X156049518Y-9141800D01*
X157553482Y-9141800D01*
X159028547Y-8848392D01*
X160418029Y-8272850D01*
X161668529Y-7437292D01*
X162269138Y-6836683D01*
X162314088Y-6832256D01*
X162476199Y-6783081D01*
X162625601Y-6703224D01*
X162756554Y-6595754D01*
X162802709Y-6539513D01*
X175811000Y-6539513D01*
X175811000Y-6891127D01*
X175879596Y-7235985D01*
X176014153Y-7560835D01*
X176209500Y-7853191D01*
X176458129Y-8101820D01*
X176750485Y-8297167D01*
X177075335Y-8431724D01*
X177420193Y-8500320D01*
X177771807Y-8500320D01*
X178116665Y-8431724D01*
X178441515Y-8297167D01*
X178733871Y-8101820D01*
X178982500Y-7853191D01*
X179177847Y-7560835D01*
X179312404Y-7235985D01*
X179381000Y-6891127D01*
X179381000Y-6539513D01*
X179312404Y-6194655D01*
X179177847Y-5869805D01*
X178982500Y-5577449D01*
X178733871Y-5328820D01*
X178441515Y-5133473D01*
X178116665Y-4998916D01*
X177771807Y-4930320D01*
X177420193Y-4930320D01*
X177075335Y-4998916D01*
X176750485Y-5133473D01*
X176458129Y-5328820D01*
X176209500Y-5577449D01*
X176014153Y-5869805D01*
X175879596Y-6194655D01*
X175811000Y-6539513D01*
X162802709Y-6539513D01*
X162864024Y-6464802D01*
X162943881Y-6315400D01*
X162993056Y-6153289D01*
X163005500Y-6026946D01*
X163005500Y-5964496D01*
X163567550Y-5123329D01*
X164143092Y-3733847D01*
X164436500Y-2258782D01*
X164436500Y-754818D01*
X164143092Y720247D01*
X163567550Y2109729D01*
X162731992Y3360229D01*
X161668529Y4423692D01*
X160418029Y5259250D01*
X159028547Y5834792D01*
X157553482Y6128200D01*
X156049518Y6128200D01*
X154574453Y5834792D01*
X153184971Y5259250D01*
X151934471Y4423692D01*
X150871008Y3360229D01*
X150035450Y2109729D01*
X149459908Y720247D01*
X149166500Y-754818D01*
X145654920Y-754818D01*
X145654920Y20324560D01*
X194334921Y20324560D01*
X194334920Y-178355440D01*
G37*
X194334920Y-178355440D02*
X145654920Y-178355440D01*
X145654920Y-154754818D01*
X149166500Y-154754818D01*
X149166500Y-156258782D01*
X149459908Y-157733847D01*
X150035450Y-159123329D01*
X150871008Y-160373829D01*
X151934471Y-161437292D01*
X153184971Y-162272850D01*
X154574453Y-162848392D01*
X156049518Y-163141800D01*
X157553482Y-163141800D01*
X159028547Y-162848392D01*
X160418029Y-162272850D01*
X161668529Y-161437292D01*
X162502926Y-160602895D01*
X162625601Y-160537324D01*
X162756554Y-160429854D01*
X162864024Y-160298902D01*
X162943881Y-160149500D01*
X162993056Y-159987389D01*
X162993549Y-159982381D01*
X163567550Y-159123329D01*
X164143092Y-157733847D01*
X164436500Y-156258782D01*
X164436500Y-154754818D01*
X174166500Y-154754818D01*
X174166500Y-156258782D01*
X174459908Y-157733847D01*
X175035450Y-159123329D01*
X175871008Y-160373829D01*
X176934471Y-161437292D01*
X178184971Y-162272850D01*
X179574453Y-162848392D01*
X181049518Y-163141800D01*
X182553482Y-163141800D01*
X184028547Y-162848392D01*
X185418029Y-162272850D01*
X186668529Y-161437292D01*
X187731992Y-160373829D01*
X188567550Y-159123329D01*
X189143092Y-157733847D01*
X189436500Y-156258782D01*
X189436500Y-154754818D01*
X189143092Y-153279753D01*
X188567550Y-151890271D01*
X187731992Y-150639771D01*
X186668529Y-149576308D01*
X185418029Y-148740750D01*
X184028547Y-148165208D01*
X182553482Y-147871800D01*
X181049518Y-147871800D01*
X179574453Y-148165208D01*
X178184971Y-148740750D01*
X176934471Y-149576308D01*
X175871008Y-150639771D01*
X175035450Y-151890271D01*
X174459908Y-153279753D01*
X174166500Y-154754818D01*
X164436500Y-154754818D01*
X164143092Y-153279753D01*
X163567550Y-151890271D01*
X162731992Y-150639771D01*
X161668529Y-149576308D01*
X160418029Y-148740750D01*
X159028547Y-148165208D01*
X157553482Y-147871800D01*
X156049518Y-147871800D01*
X154574453Y-148165208D01*
X153184971Y-148740750D01*
X151934471Y-149576308D01*
X150871008Y-150639771D01*
X150035450Y-151890271D01*
X149459908Y-153279753D01*
X149166500Y-154754818D01*
X145654920Y-154754818D01*
X145654920Y-132754818D01*
X149166500Y-132754818D01*
X149166500Y-134258782D01*
X149459908Y-135733847D01*
X150035450Y-137123329D01*
X150871008Y-138373829D01*
X151934471Y-139437292D01*
X153184971Y-140272850D01*
X154574453Y-140848392D01*
X156049518Y-141141800D01*
X157553482Y-141141800D01*
X159028547Y-140848392D01*
X160418029Y-140272850D01*
X161668529Y-139437292D01*
X162731992Y-138373829D01*
X163567550Y-137123329D01*
X164143092Y-135733847D01*
X164436500Y-134258782D01*
X164436500Y-132754818D01*
X164143092Y-131279753D01*
X163567550Y-129890271D01*
X162731992Y-128639771D01*
X161668529Y-127576308D01*
X160418029Y-126740750D01*
X159028547Y-126165208D01*
X157553482Y-125871800D01*
X156049518Y-125871800D01*
X154574453Y-126165208D01*
X153184971Y-126740750D01*
X151934471Y-127576308D01*
X150871008Y-128639771D01*
X150035450Y-129890271D01*
X149459908Y-131279753D01*
X149166500Y-132754818D01*
X145654920Y-132754818D01*
X145654920Y-110754818D01*
X149166500Y-110754818D01*
X149166500Y-112258782D01*
X149459908Y-113733847D01*
X150035450Y-115123329D01*
X150871008Y-116373829D01*
X151934471Y-117437292D01*
X153184971Y-118272850D01*
X154574453Y-118848392D01*
X156049518Y-119141800D01*
X157553482Y-119141800D01*
X159028547Y-118848392D01*
X160418029Y-118272850D01*
X161668529Y-117437292D01*
X162731992Y-116373829D01*
X163567550Y-115123329D01*
X164143092Y-113733847D01*
X164436500Y-112258782D01*
X164436500Y-110754818D01*
X174166500Y-110754818D01*
X174166500Y-112258782D01*
X174459908Y-113733847D01*
X175035450Y-115123329D01*
X175871008Y-116373829D01*
X176934471Y-117437292D01*
X178184971Y-118272850D01*
X179574453Y-118848392D01*
X181049518Y-119141800D01*
X182553482Y-119141800D01*
X184028547Y-118848392D01*
X185418029Y-118272850D01*
X186668529Y-117437292D01*
X187731992Y-116373829D01*
X188567550Y-115123329D01*
X189143092Y-113733847D01*
X189436500Y-112258782D01*
X189436500Y-110754818D01*
X189143092Y-109279753D01*
X188567550Y-107890271D01*
X187731992Y-106639771D01*
X186668529Y-105576308D01*
X185418029Y-104740750D01*
X184028547Y-104165208D01*
X182553482Y-103871800D01*
X181049518Y-103871800D01*
X179574453Y-104165208D01*
X178184971Y-104740750D01*
X176934471Y-105576308D01*
X175871008Y-106639771D01*
X175035450Y-107890271D01*
X174459908Y-109279753D01*
X174166500Y-110754818D01*
X164436500Y-110754818D01*
X164143092Y-109279753D01*
X163567550Y-107890271D01*
X162731992Y-106639771D01*
X161668529Y-105576308D01*
X160418029Y-104740750D01*
X159028547Y-104165208D01*
X157553482Y-103871800D01*
X156049518Y-103871800D01*
X154574453Y-104165208D01*
X153184971Y-104740750D01*
X151934471Y-105576308D01*
X150871008Y-106639771D01*
X150035450Y-107890271D01*
X149459908Y-109279753D01*
X149166500Y-110754818D01*
X145654920Y-110754818D01*
X145654920Y-88754818D01*
X149166500Y-88754818D01*
X149166500Y-90258782D01*
X149459908Y-91733847D01*
X150035450Y-93123329D01*
X150871008Y-94373829D01*
X151934471Y-95437292D01*
X153184971Y-96272850D01*
X154574453Y-96848392D01*
X156049518Y-97141800D01*
X157553482Y-97141800D01*
X159028547Y-96848392D01*
X160418029Y-96272850D01*
X161668529Y-95437292D01*
X162731992Y-94373829D01*
X163567550Y-93123329D01*
X164143092Y-91733847D01*
X164436500Y-90258782D01*
X164436500Y-88754818D01*
X164143092Y-87279753D01*
X163567550Y-85890271D01*
X162731992Y-84639771D01*
X161668529Y-83576308D01*
X160418029Y-82740750D01*
X159028547Y-82165208D01*
X157553482Y-81871800D01*
X156049518Y-81871800D01*
X154574453Y-82165208D01*
X153184971Y-82740750D01*
X151934471Y-83576308D01*
X150871008Y-84639771D01*
X150035450Y-85890271D01*
X149459908Y-87279753D01*
X149166500Y-88754818D01*
X145654920Y-88754818D01*
X145654920Y-66754818D01*
X149166500Y-66754818D01*
X149166500Y-68258782D01*
X149459908Y-69733847D01*
X150035450Y-71123329D01*
X150871008Y-72373829D01*
X151934471Y-73437292D01*
X153184971Y-74272850D01*
X154574453Y-74848392D01*
X156049518Y-75141800D01*
X157553482Y-75141800D01*
X159028547Y-74848392D01*
X160418029Y-74272850D01*
X161668529Y-73437292D01*
X162731992Y-72373829D01*
X163567550Y-71123329D01*
X164143092Y-69733847D01*
X164436500Y-68258782D01*
X164436500Y-66754818D01*
X174166500Y-66754818D01*
X174166500Y-68258782D01*
X174459908Y-69733847D01*
X175035450Y-71123329D01*
X175871008Y-72373829D01*
X176934471Y-73437292D01*
X178184971Y-74272850D01*
X179574453Y-74848392D01*
X181049518Y-75141800D01*
X182553482Y-75141800D01*
X184028547Y-74848392D01*
X185418029Y-74272850D01*
X186668529Y-73437292D01*
X187731992Y-72373829D01*
X188567550Y-71123329D01*
X189143092Y-69733847D01*
X189436500Y-68258782D01*
X189436500Y-66754818D01*
X189143092Y-65279753D01*
X188567550Y-63890271D01*
X187731992Y-62639771D01*
X186668529Y-61576308D01*
X185418029Y-60740750D01*
X184028547Y-60165208D01*
X182553482Y-59871800D01*
X181049518Y-59871800D01*
X179574453Y-60165208D01*
X178184971Y-60740750D01*
X176934471Y-61576308D01*
X175871008Y-62639771D01*
X175035450Y-63890271D01*
X174459908Y-65279753D01*
X174166500Y-66754818D01*
X164436500Y-66754818D01*
X164143092Y-65279753D01*
X163567550Y-63890271D01*
X162731992Y-62639771D01*
X161668529Y-61576308D01*
X160418029Y-60740750D01*
X159028547Y-60165208D01*
X157553482Y-59871800D01*
X156049518Y-59871800D01*
X154574453Y-60165208D01*
X153184971Y-60740750D01*
X151934471Y-61576308D01*
X150871008Y-62639771D01*
X150035450Y-63890271D01*
X149459908Y-65279753D01*
X149166500Y-66754818D01*
X145654920Y-66754818D01*
X145654920Y-44754818D01*
X149166500Y-44754818D01*
X149166500Y-46258782D01*
X149459908Y-47733847D01*
X150035450Y-49123329D01*
X150871008Y-50373829D01*
X151934471Y-51437292D01*
X153184971Y-52272850D01*
X154574453Y-52848392D01*
X156049518Y-53141800D01*
X157553482Y-53141800D01*
X159028547Y-52848392D01*
X160418029Y-52272850D01*
X161668529Y-51437292D01*
X162731992Y-50373829D01*
X163567550Y-49123329D01*
X164143092Y-47733847D01*
X164436500Y-46258782D01*
X164436500Y-46008800D01*
X166491424Y-46008800D01*
X166506098Y-46157785D01*
X166549554Y-46301046D01*
X166620126Y-46433076D01*
X166691301Y-46519802D01*
X166771198Y-46599699D01*
X166857924Y-46670873D01*
X166989954Y-46741446D01*
X167133214Y-46784902D01*
X167282199Y-46799576D01*
X167431185Y-46784902D01*
X167574446Y-46741446D01*
X167706475Y-46670873D01*
X167822201Y-46575901D01*
X167917173Y-46460175D01*
X167987746Y-46328146D01*
X168031202Y-46184885D01*
X168045876Y-46035899D01*
X168031202Y-45886914D01*
X167987746Y-45743654D01*
X167917173Y-45611624D01*
X167845999Y-45524898D01*
X167766102Y-45445001D01*
X167679376Y-45373826D01*
X167547346Y-45303254D01*
X167404085Y-45259798D01*
X167255100Y-45245124D01*
X167106115Y-45259798D01*
X166962854Y-45303254D01*
X166830824Y-45373826D01*
X166715099Y-45468799D01*
X166620126Y-45584524D01*
X166549554Y-45716554D01*
X166506098Y-45859815D01*
X166491424Y-46008800D01*
X164436500Y-46008800D01*
X164436500Y-44754818D01*
X164143092Y-43279753D01*
X163567550Y-41890271D01*
X162731992Y-40639771D01*
X161668529Y-39576308D01*
X160418029Y-38740750D01*
X159028547Y-38165208D01*
X157553482Y-37871800D01*
X156049518Y-37871800D01*
X154574453Y-38165208D01*
X153184971Y-38740750D01*
X151934471Y-39576308D01*
X150871008Y-40639771D01*
X150035450Y-41890271D01*
X149459908Y-43279753D01*
X149166500Y-44754818D01*
X145654920Y-44754818D01*
X145654920Y-36324531D01*
X189728540Y-36324531D01*
X189728540Y-106037388D01*
X193548540Y-106037388D01*
X193548540Y-36324531D01*
X189728540Y-36324531D01*
X145654920Y-36324531D01*
X145654920Y-22754818D01*
X149166500Y-22754818D01*
X149166500Y-24258782D01*
X149459908Y-25733847D01*
X150035450Y-27123329D01*
X150871008Y-28373829D01*
X151934471Y-29437292D01*
X153184971Y-30272850D01*
X154574453Y-30848392D01*
X156049518Y-31141800D01*
X157553482Y-31141800D01*
X159028547Y-30848392D01*
X160418029Y-30272850D01*
X161668529Y-29437292D01*
X162731992Y-28373829D01*
X163567550Y-27123329D01*
X164143092Y-25733847D01*
X164436500Y-24258782D01*
X164436500Y-22754818D01*
X174166500Y-22754818D01*
X174166500Y-24258782D01*
X174459908Y-25733847D01*
X175035450Y-27123329D01*
X175871008Y-28373829D01*
X176934471Y-29437292D01*
X178184971Y-30272850D01*
X179574453Y-30848392D01*
X181049518Y-31141800D01*
X182553482Y-31141800D01*
X184028547Y-30848392D01*
X185418029Y-30272850D01*
X186668529Y-29437292D01*
X187731992Y-28373829D01*
X188567550Y-27123329D01*
X189143092Y-25733847D01*
X189436500Y-24258782D01*
X189436500Y-22754818D01*
X189143092Y-21279753D01*
X188567550Y-19890271D01*
X187731992Y-18639771D01*
X186668529Y-17576308D01*
X185418029Y-16740750D01*
X184028547Y-16165208D01*
X182553482Y-15871800D01*
X181049518Y-15871800D01*
X179574453Y-16165208D01*
X178184971Y-16740750D01*
X176934471Y-17576308D01*
X175871008Y-18639771D01*
X175035450Y-19890271D01*
X174459908Y-21279753D01*
X174166500Y-22754818D01*
X164436500Y-22754818D01*
X164143092Y-21279753D01*
X163567550Y-19890271D01*
X162731992Y-18639771D01*
X161668529Y-17576308D01*
X160418029Y-16740750D01*
X159028547Y-16165208D01*
X157553482Y-15871800D01*
X156049518Y-15871800D01*
X154574453Y-16165208D01*
X153184971Y-16740750D01*
X151934471Y-17576308D01*
X150871008Y-18639771D01*
X150035450Y-19890271D01*
X149459908Y-21279753D01*
X149166500Y-22754818D01*
X145654920Y-22754818D01*
X145654920Y-754818D01*
X149166500Y-754818D01*
X149166500Y-2258782D01*
X149459908Y-3733847D01*
X150035450Y-5123329D01*
X150871008Y-6373829D01*
X151934471Y-7437292D01*
X153184971Y-8272850D01*
X154574453Y-8848392D01*
X156049518Y-9141800D01*
X157553482Y-9141800D01*
X159028547Y-8848392D01*
X160418029Y-8272850D01*
X161668529Y-7437292D01*
X162269138Y-6836683D01*
X162314088Y-6832256D01*
X162476199Y-6783081D01*
X162625601Y-6703224D01*
X162756554Y-6595754D01*
X162802709Y-6539513D01*
X175811000Y-6539513D01*
X175811000Y-6891127D01*
X175879596Y-7235985D01*
X176014153Y-7560835D01*
X176209500Y-7853191D01*
X176458129Y-8101820D01*
X176750485Y-8297167D01*
X177075335Y-8431724D01*
X177420193Y-8500320D01*
X177771807Y-8500320D01*
X178116665Y-8431724D01*
X178441515Y-8297167D01*
X178733871Y-8101820D01*
X178982500Y-7853191D01*
X179177847Y-7560835D01*
X179312404Y-7235985D01*
X179381000Y-6891127D01*
X179381000Y-6539513D01*
X179312404Y-6194655D01*
X179177847Y-5869805D01*
X178982500Y-5577449D01*
X178733871Y-5328820D01*
X178441515Y-5133473D01*
X178116665Y-4998916D01*
X177771807Y-4930320D01*
X177420193Y-4930320D01*
X177075335Y-4998916D01*
X176750485Y-5133473D01*
X176458129Y-5328820D01*
X176209500Y-5577449D01*
X176014153Y-5869805D01*
X175879596Y-6194655D01*
X175811000Y-6539513D01*
X162802709Y-6539513D01*
X162864024Y-6464802D01*
X162943881Y-6315400D01*
X162993056Y-6153289D01*
X163005500Y-6026946D01*
X163005500Y-5964496D01*
X163567550Y-5123329D01*
X164143092Y-3733847D01*
X164436500Y-2258782D01*
X164436500Y-754818D01*
X164143092Y720247D01*
X163567550Y2109729D01*
X162731992Y3360229D01*
X161668529Y4423692D01*
X160418029Y5259250D01*
X159028547Y5834792D01*
X157553482Y6128200D01*
X156049518Y6128200D01*
X154574453Y5834792D01*
X153184971Y5259250D01*
X151934471Y4423692D01*
X150871008Y3360229D01*
X150035450Y2109729D01*
X149459908Y720247D01*
X149166500Y-754818D01*
X145654920Y-754818D01*
X145654920Y20324560D01*
X194334921Y20324560D01*
X194334920Y-178355440D01*
M02*
