G04 #@! TF.GenerationSoftware,KiCad,Pcbnew,(5.1.5)-3*
G04 #@! TF.CreationDate,2020-07-13T19:54:25+01:00*
G04 #@! TF.ProjectId,Panel,50616e65-6c2e-46b6-9963-61645f706362,rev?*
G04 #@! TF.SameCoordinates,Original*
G04 #@! TF.FileFunction,Legend,Top*
G04 #@! TF.FilePolarity,Positive*
%FSLAX46Y46*%
G04 Gerber Fmt 4.6, Leading zero omitted, Abs format (unit mm)*
G04 Created by KiCad (PCBNEW (5.1.5)-3) date 2020-07-13 19:54:25*
%MOMM*%
%LPD*%
G04 APERTURE LIST*
%ADD10C,1.500000*%
%ADD11C,0.300000*%
%ADD12C,0.625000*%
%ADD13C,0.150000*%
%ADD14C,0.750000*%
G04 APERTURE END LIST*
D10*
X147302220Y7965440D02*
X193248280Y7965440D01*
D11*
X162429930Y10371437D02*
X162703740Y10276199D01*
X162787073Y10180960D01*
X162858502Y9990484D01*
X162822787Y9704770D01*
X162703740Y9514294D01*
X162596597Y9419056D01*
X162394216Y9323818D01*
X161632311Y9323818D01*
X161882311Y11323818D01*
X162548978Y11323818D01*
X162727549Y11228580D01*
X162810883Y11133341D01*
X162882311Y10942865D01*
X162858502Y10752389D01*
X162739454Y10561913D01*
X162632311Y10466675D01*
X162429930Y10371437D01*
X161763264Y10371437D01*
X163608502Y10657151D02*
X163918025Y9323818D01*
X164560883Y10657151D02*
X163918025Y9323818D01*
X163668025Y8847627D01*
X163560883Y8752389D01*
X163358502Y8657151D01*
X166644216Y11323818D02*
X167787073Y11323818D01*
X166965645Y9323818D02*
X167215645Y11323818D01*
X168179930Y10657151D02*
X168394216Y9323818D01*
X168894216Y10276199D01*
X169156121Y9323818D01*
X169703740Y10657151D01*
X170298978Y9323818D02*
X170465645Y10657151D01*
X170548978Y11323818D02*
X170441835Y11228580D01*
X170525168Y11133341D01*
X170632311Y11228580D01*
X170548978Y11323818D01*
X170525168Y11133341D01*
X171418025Y10657151D02*
X171251359Y9323818D01*
X171394216Y10466675D02*
X171501359Y10561913D01*
X171703740Y10657151D01*
X171989454Y10657151D01*
X172168025Y10561913D01*
X172239454Y10371437D01*
X172108502Y9323818D01*
X174548978Y11323818D02*
X175691835Y11323818D01*
X174870406Y9323818D02*
X175120406Y11323818D01*
X177132311Y10657151D02*
X176965645Y9323818D01*
X176275168Y10657151D02*
X176144216Y9609532D01*
X176215645Y9419056D01*
X176394216Y9323818D01*
X176679930Y9323818D01*
X176882311Y9419056D01*
X176989454Y9514294D01*
X177918025Y9323818D02*
X178084692Y10657151D01*
X178037073Y10276199D02*
X178156121Y10466675D01*
X178263264Y10561913D01*
X178465645Y10657151D01*
X178656121Y10657151D01*
X179156121Y9323818D02*
X179406121Y11323818D01*
X179310883Y10561913D02*
X179513264Y10657151D01*
X179894216Y10657151D01*
X180072787Y10561913D01*
X180156121Y10466675D01*
X180227549Y10276199D01*
X180156121Y9704770D01*
X180037073Y9514294D01*
X179929930Y9419056D01*
X179727549Y9323818D01*
X179346597Y9323818D01*
X179168025Y9419056D01*
X181251359Y9323818D02*
X181072787Y9419056D01*
X180989454Y9514294D01*
X180918025Y9704770D01*
X180989454Y10276199D01*
X181108502Y10466675D01*
X181215645Y10561913D01*
X181418025Y10657151D01*
X181703740Y10657151D01*
X181882311Y10561913D01*
X181965645Y10466675D01*
X182037073Y10276199D01*
X181965645Y9704770D01*
X181846597Y9514294D01*
X181739454Y9419056D01*
X181537073Y9323818D01*
X181251359Y9323818D01*
D12*
X168409337Y-132326060D02*
X168171241Y-132207012D01*
X167814099Y-132207012D01*
X167456956Y-132326060D01*
X167218860Y-132564155D01*
X167099813Y-132802250D01*
X166980765Y-133278440D01*
X166980765Y-133635583D01*
X167099813Y-134111774D01*
X167218860Y-134349869D01*
X167456956Y-134587964D01*
X167814099Y-134707012D01*
X168052194Y-134707012D01*
X168409337Y-134587964D01*
X168528384Y-134468917D01*
X168528384Y-133635583D01*
X168052194Y-133635583D01*
X169480765Y-133992726D02*
X170671241Y-133992726D01*
X169242670Y-134707012D02*
X170076003Y-132207012D01*
X170909337Y-134707012D01*
X171385527Y-132207012D02*
X172814099Y-132207012D01*
X172099813Y-134707012D02*
X172099813Y-132207012D01*
X173647432Y-133397488D02*
X174480765Y-133397488D01*
X174837908Y-134707012D02*
X173647432Y-134707012D01*
X173647432Y-132207012D01*
X174837908Y-132207012D01*
X177814099Y-134707012D02*
X177814099Y-132207012D01*
X179004575Y-134707012D02*
X179004575Y-132207012D01*
X180433146Y-134707012D01*
X180433146Y-132207012D01*
X169113520Y-149546870D02*
X169232567Y-149308775D01*
X169232567Y-148951632D01*
X169113520Y-148594489D01*
X168875424Y-148356394D01*
X168637329Y-148237346D01*
X168161139Y-148118299D01*
X167803996Y-148118299D01*
X167327805Y-148237346D01*
X167089710Y-148356394D01*
X166851615Y-148594489D01*
X166732567Y-148951632D01*
X166732567Y-149189727D01*
X166851615Y-149546870D01*
X166970662Y-149665918D01*
X167803996Y-149665918D01*
X167803996Y-149189727D01*
X167446853Y-150618299D02*
X167446853Y-151808775D01*
X166732567Y-150380203D02*
X169232567Y-151213537D01*
X166732567Y-152046870D01*
X169232567Y-152523060D02*
X169232567Y-153951632D01*
X166732567Y-153237346D02*
X169232567Y-153237346D01*
X168042091Y-154784965D02*
X168042091Y-155618299D01*
X166732567Y-155975441D02*
X166732567Y-154784965D01*
X169232567Y-154784965D01*
X169232567Y-155975441D01*
X169232567Y-159427822D02*
X169232567Y-159904013D01*
X169113520Y-160142108D01*
X168875424Y-160380203D01*
X168399234Y-160499251D01*
X167565900Y-160499251D01*
X167089710Y-160380203D01*
X166851615Y-160142108D01*
X166732567Y-159904013D01*
X166732567Y-159427822D01*
X166851615Y-159189727D01*
X167089710Y-158951632D01*
X167565900Y-158832584D01*
X168399234Y-158832584D01*
X168875424Y-158951632D01*
X169113520Y-159189727D01*
X169232567Y-159427822D01*
X169232567Y-161570680D02*
X167208758Y-161570680D01*
X166970662Y-161689727D01*
X166851615Y-161808775D01*
X166732567Y-162046870D01*
X166732567Y-162523060D01*
X166851615Y-162761156D01*
X166970662Y-162880203D01*
X167208758Y-162999251D01*
X169232567Y-162999251D01*
X169232567Y-163832584D02*
X169232567Y-165261156D01*
X166732567Y-164546870D02*
X169232567Y-164546870D01*
X174464163Y-142788652D02*
X175892735Y-142788652D01*
X175178449Y-145288652D02*
X175178449Y-142788652D01*
X178154640Y-145288652D02*
X177321306Y-144098176D01*
X176726068Y-145288652D02*
X176726068Y-142788652D01*
X177678449Y-142788652D01*
X177916544Y-142907700D01*
X178035592Y-143026747D01*
X178154640Y-143264842D01*
X178154640Y-143621985D01*
X178035592Y-143860080D01*
X177916544Y-143979128D01*
X177678449Y-144098176D01*
X176726068Y-144098176D01*
X179226068Y-145288652D02*
X179226068Y-142788652D01*
X181726068Y-142907700D02*
X181487973Y-142788652D01*
X181130830Y-142788652D01*
X180773687Y-142907700D01*
X180535592Y-143145795D01*
X180416544Y-143383890D01*
X180297497Y-143860080D01*
X180297497Y-144217223D01*
X180416544Y-144693414D01*
X180535592Y-144931509D01*
X180773687Y-145169604D01*
X181130830Y-145288652D01*
X181368925Y-145288652D01*
X181726068Y-145169604D01*
X181845116Y-145050557D01*
X181845116Y-144217223D01*
X181368925Y-144217223D01*
X184226068Y-142907700D02*
X183987973Y-142788652D01*
X183630830Y-142788652D01*
X183273687Y-142907700D01*
X183035592Y-143145795D01*
X182916544Y-143383890D01*
X182797497Y-143860080D01*
X182797497Y-144217223D01*
X182916544Y-144693414D01*
X183035592Y-144931509D01*
X183273687Y-145169604D01*
X183630830Y-145288652D01*
X183868925Y-145288652D01*
X184226068Y-145169604D01*
X184345116Y-145050557D01*
X184345116Y-144217223D01*
X183868925Y-144217223D01*
X185416544Y-143979128D02*
X186249878Y-143979128D01*
X186607020Y-145288652D02*
X185416544Y-145288652D01*
X185416544Y-142788652D01*
X186607020Y-142788652D01*
X189107020Y-145288652D02*
X188273687Y-144098176D01*
X187678449Y-145288652D02*
X187678449Y-142788652D01*
X188630830Y-142788652D01*
X188868925Y-142907700D01*
X188987973Y-143026747D01*
X189107020Y-143264842D01*
X189107020Y-143621985D01*
X188987973Y-143860080D01*
X188868925Y-143979128D01*
X188630830Y-144098176D01*
X187678449Y-144098176D01*
X174939143Y-98323412D02*
X176367715Y-98323412D01*
X175653429Y-100823412D02*
X175653429Y-98323412D01*
X178629620Y-100823412D02*
X177796286Y-99632936D01*
X177201048Y-100823412D02*
X177201048Y-98323412D01*
X178153429Y-98323412D01*
X178391524Y-98442460D01*
X178510572Y-98561507D01*
X178629620Y-98799602D01*
X178629620Y-99156745D01*
X178510572Y-99394840D01*
X178391524Y-99513888D01*
X178153429Y-99632936D01*
X177201048Y-99632936D01*
X179701048Y-100823412D02*
X179701048Y-98323412D01*
X182201048Y-98442460D02*
X181962953Y-98323412D01*
X181605810Y-98323412D01*
X181248667Y-98442460D01*
X181010572Y-98680555D01*
X180891524Y-98918650D01*
X180772477Y-99394840D01*
X180772477Y-99751983D01*
X180891524Y-100228174D01*
X181010572Y-100466269D01*
X181248667Y-100704364D01*
X181605810Y-100823412D01*
X181843905Y-100823412D01*
X182201048Y-100704364D01*
X182320096Y-100585317D01*
X182320096Y-99751983D01*
X181843905Y-99751983D01*
X184701048Y-98442460D02*
X184462953Y-98323412D01*
X184105810Y-98323412D01*
X183748667Y-98442460D01*
X183510572Y-98680555D01*
X183391524Y-98918650D01*
X183272477Y-99394840D01*
X183272477Y-99751983D01*
X183391524Y-100228174D01*
X183510572Y-100466269D01*
X183748667Y-100704364D01*
X184105810Y-100823412D01*
X184343905Y-100823412D01*
X184701048Y-100704364D01*
X184820096Y-100585317D01*
X184820096Y-99751983D01*
X184343905Y-99751983D01*
X185891524Y-99513888D02*
X186724858Y-99513888D01*
X187082000Y-100823412D02*
X185891524Y-100823412D01*
X185891524Y-98323412D01*
X187082000Y-98323412D01*
X189582000Y-100823412D02*
X188748667Y-99632936D01*
X188153429Y-100823412D02*
X188153429Y-98323412D01*
X189105810Y-98323412D01*
X189343905Y-98442460D01*
X189462953Y-98561507D01*
X189582000Y-98799602D01*
X189582000Y-99156745D01*
X189462953Y-99394840D01*
X189343905Y-99513888D01*
X189105810Y-99632936D01*
X188153429Y-99632936D01*
X169215120Y-105218790D02*
X169334167Y-104980695D01*
X169334167Y-104623552D01*
X169215120Y-104266409D01*
X168977024Y-104028314D01*
X168738929Y-103909266D01*
X168262739Y-103790219D01*
X167905596Y-103790219D01*
X167429405Y-103909266D01*
X167191310Y-104028314D01*
X166953215Y-104266409D01*
X166834167Y-104623552D01*
X166834167Y-104861647D01*
X166953215Y-105218790D01*
X167072262Y-105337838D01*
X167905596Y-105337838D01*
X167905596Y-104861647D01*
X167548453Y-106290219D02*
X167548453Y-107480695D01*
X166834167Y-106052123D02*
X169334167Y-106885457D01*
X166834167Y-107718790D01*
X169334167Y-108194980D02*
X169334167Y-109623552D01*
X166834167Y-108909266D02*
X169334167Y-108909266D01*
X168143691Y-110456885D02*
X168143691Y-111290219D01*
X166834167Y-111647361D02*
X166834167Y-110456885D01*
X169334167Y-110456885D01*
X169334167Y-111647361D01*
X169334167Y-115099742D02*
X169334167Y-115575933D01*
X169215120Y-115814028D01*
X168977024Y-116052123D01*
X168500834Y-116171171D01*
X167667500Y-116171171D01*
X167191310Y-116052123D01*
X166953215Y-115814028D01*
X166834167Y-115575933D01*
X166834167Y-115099742D01*
X166953215Y-114861647D01*
X167191310Y-114623552D01*
X167667500Y-114504504D01*
X168500834Y-114504504D01*
X168977024Y-114623552D01*
X169215120Y-114861647D01*
X169334167Y-115099742D01*
X169334167Y-117242600D02*
X167310358Y-117242600D01*
X167072262Y-117361647D01*
X166953215Y-117480695D01*
X166834167Y-117718790D01*
X166834167Y-118194980D01*
X166953215Y-118433076D01*
X167072262Y-118552123D01*
X167310358Y-118671171D01*
X169334167Y-118671171D01*
X169334167Y-119504504D02*
X169334167Y-120933076D01*
X166834167Y-120218790D02*
X169334167Y-120218790D01*
X168035957Y-87596660D02*
X167797861Y-87477612D01*
X167440719Y-87477612D01*
X167083576Y-87596660D01*
X166845480Y-87834755D01*
X166726433Y-88072850D01*
X166607385Y-88549040D01*
X166607385Y-88906183D01*
X166726433Y-89382374D01*
X166845480Y-89620469D01*
X167083576Y-89858564D01*
X167440719Y-89977612D01*
X167678814Y-89977612D01*
X168035957Y-89858564D01*
X168155004Y-89739517D01*
X168155004Y-88906183D01*
X167678814Y-88906183D01*
X169107385Y-89263326D02*
X170297861Y-89263326D01*
X168869290Y-89977612D02*
X169702623Y-87477612D01*
X170535957Y-89977612D01*
X171012147Y-87477612D02*
X172440719Y-87477612D01*
X171726433Y-89977612D02*
X171726433Y-87477612D01*
X173274052Y-88668088D02*
X174107385Y-88668088D01*
X174464528Y-89977612D02*
X173274052Y-89977612D01*
X173274052Y-87477612D01*
X174464528Y-87477612D01*
X177440719Y-89977612D02*
X177440719Y-87477612D01*
X178631195Y-89977612D02*
X178631195Y-87477612D01*
X180059766Y-89977612D01*
X180059766Y-87477612D01*
X169385300Y-61982910D02*
X169504347Y-61744815D01*
X169504347Y-61387672D01*
X169385300Y-61030529D01*
X169147204Y-60792434D01*
X168909109Y-60673386D01*
X168432919Y-60554339D01*
X168075776Y-60554339D01*
X167599585Y-60673386D01*
X167361490Y-60792434D01*
X167123395Y-61030529D01*
X167004347Y-61387672D01*
X167004347Y-61625767D01*
X167123395Y-61982910D01*
X167242442Y-62101958D01*
X168075776Y-62101958D01*
X168075776Y-61625767D01*
X167718633Y-63054339D02*
X167718633Y-64244815D01*
X167004347Y-62816243D02*
X169504347Y-63649577D01*
X167004347Y-64482910D01*
X169504347Y-64959100D02*
X169504347Y-66387672D01*
X167004347Y-65673386D02*
X169504347Y-65673386D01*
X168313871Y-67221005D02*
X168313871Y-68054339D01*
X167004347Y-68411481D02*
X167004347Y-67221005D01*
X169504347Y-67221005D01*
X169504347Y-68411481D01*
X169504347Y-71863862D02*
X169504347Y-72340053D01*
X169385300Y-72578148D01*
X169147204Y-72816243D01*
X168671014Y-72935291D01*
X167837680Y-72935291D01*
X167361490Y-72816243D01*
X167123395Y-72578148D01*
X167004347Y-72340053D01*
X167004347Y-71863862D01*
X167123395Y-71625767D01*
X167361490Y-71387672D01*
X167837680Y-71268624D01*
X168671014Y-71268624D01*
X169147204Y-71387672D01*
X169385300Y-71625767D01*
X169504347Y-71863862D01*
X169504347Y-74006720D02*
X167480538Y-74006720D01*
X167242442Y-74125767D01*
X167123395Y-74244815D01*
X167004347Y-74482910D01*
X167004347Y-74959100D01*
X167123395Y-75197196D01*
X167242442Y-75316243D01*
X167480538Y-75435291D01*
X169504347Y-75435291D01*
X169504347Y-76268624D02*
X169504347Y-77697196D01*
X167004347Y-76982910D02*
X169504347Y-76982910D01*
X167865777Y-43667360D02*
X167627681Y-43548312D01*
X167270539Y-43548312D01*
X166913396Y-43667360D01*
X166675300Y-43905455D01*
X166556253Y-44143550D01*
X166437205Y-44619740D01*
X166437205Y-44976883D01*
X166556253Y-45453074D01*
X166675300Y-45691169D01*
X166913396Y-45929264D01*
X167270539Y-46048312D01*
X167508634Y-46048312D01*
X167865777Y-45929264D01*
X167984824Y-45810217D01*
X167984824Y-44976883D01*
X167508634Y-44976883D01*
X168937205Y-45334026D02*
X170127681Y-45334026D01*
X168699110Y-46048312D02*
X169532443Y-43548312D01*
X170365777Y-46048312D01*
X170841967Y-43548312D02*
X172270539Y-43548312D01*
X171556253Y-46048312D02*
X171556253Y-43548312D01*
X173103872Y-44738788D02*
X173937205Y-44738788D01*
X174294348Y-46048312D02*
X173103872Y-46048312D01*
X173103872Y-43548312D01*
X174294348Y-43548312D01*
X177270539Y-46048312D02*
X177270539Y-43548312D01*
X178461015Y-46048312D02*
X178461015Y-43548312D01*
X179889586Y-46048312D01*
X179889586Y-43548312D01*
X174601323Y-54571912D02*
X176029895Y-54571912D01*
X175315609Y-57071912D02*
X175315609Y-54571912D01*
X178291800Y-57071912D02*
X177458466Y-55881436D01*
X176863228Y-57071912D02*
X176863228Y-54571912D01*
X177815609Y-54571912D01*
X178053704Y-54690960D01*
X178172752Y-54810007D01*
X178291800Y-55048102D01*
X178291800Y-55405245D01*
X178172752Y-55643340D01*
X178053704Y-55762388D01*
X177815609Y-55881436D01*
X176863228Y-55881436D01*
X179363228Y-57071912D02*
X179363228Y-54571912D01*
X181863228Y-54690960D02*
X181625133Y-54571912D01*
X181267990Y-54571912D01*
X180910847Y-54690960D01*
X180672752Y-54929055D01*
X180553704Y-55167150D01*
X180434657Y-55643340D01*
X180434657Y-56000483D01*
X180553704Y-56476674D01*
X180672752Y-56714769D01*
X180910847Y-56952864D01*
X181267990Y-57071912D01*
X181506085Y-57071912D01*
X181863228Y-56952864D01*
X181982276Y-56833817D01*
X181982276Y-56000483D01*
X181506085Y-56000483D01*
X184363228Y-54690960D02*
X184125133Y-54571912D01*
X183767990Y-54571912D01*
X183410847Y-54690960D01*
X183172752Y-54929055D01*
X183053704Y-55167150D01*
X182934657Y-55643340D01*
X182934657Y-56000483D01*
X183053704Y-56476674D01*
X183172752Y-56714769D01*
X183410847Y-56952864D01*
X183767990Y-57071912D01*
X184006085Y-57071912D01*
X184363228Y-56952864D01*
X184482276Y-56833817D01*
X184482276Y-56000483D01*
X184006085Y-56000483D01*
X185553704Y-55762388D02*
X186387038Y-55762388D01*
X186744180Y-57071912D02*
X185553704Y-57071912D01*
X185553704Y-54571912D01*
X186744180Y-54571912D01*
X189244180Y-57071912D02*
X188410847Y-55881436D01*
X187815609Y-57071912D02*
X187815609Y-54571912D01*
X188767990Y-54571912D01*
X189006085Y-54690960D01*
X189125133Y-54810007D01*
X189244180Y-55048102D01*
X189244180Y-55405245D01*
X189125133Y-55643340D01*
X189006085Y-55762388D01*
X188767990Y-55881436D01*
X187815609Y-55881436D01*
X173752963Y-10309872D02*
X175181535Y-10309872D01*
X174467249Y-12809872D02*
X174467249Y-10309872D01*
X177443440Y-12809872D02*
X176610106Y-11619396D01*
X176014868Y-12809872D02*
X176014868Y-10309872D01*
X176967249Y-10309872D01*
X177205344Y-10428920D01*
X177324392Y-10547967D01*
X177443440Y-10786062D01*
X177443440Y-11143205D01*
X177324392Y-11381300D01*
X177205344Y-11500348D01*
X176967249Y-11619396D01*
X176014868Y-11619396D01*
X178514868Y-12809872D02*
X178514868Y-10309872D01*
X181014868Y-10428920D02*
X180776773Y-10309872D01*
X180419630Y-10309872D01*
X180062487Y-10428920D01*
X179824392Y-10667015D01*
X179705344Y-10905110D01*
X179586297Y-11381300D01*
X179586297Y-11738443D01*
X179705344Y-12214634D01*
X179824392Y-12452729D01*
X180062487Y-12690824D01*
X180419630Y-12809872D01*
X180657725Y-12809872D01*
X181014868Y-12690824D01*
X181133916Y-12571777D01*
X181133916Y-11738443D01*
X180657725Y-11738443D01*
X183514868Y-10428920D02*
X183276773Y-10309872D01*
X182919630Y-10309872D01*
X182562487Y-10428920D01*
X182324392Y-10667015D01*
X182205344Y-10905110D01*
X182086297Y-11381300D01*
X182086297Y-11738443D01*
X182205344Y-12214634D01*
X182324392Y-12452729D01*
X182562487Y-12690824D01*
X182919630Y-12809872D01*
X183157725Y-12809872D01*
X183514868Y-12690824D01*
X183633916Y-12571777D01*
X183633916Y-11738443D01*
X183157725Y-11738443D01*
X184705344Y-11500348D02*
X185538678Y-11500348D01*
X185895820Y-12809872D02*
X184705344Y-12809872D01*
X184705344Y-10309872D01*
X185895820Y-10309872D01*
X188395820Y-12809872D02*
X187562487Y-11619396D01*
X186967249Y-12809872D02*
X186967249Y-10309872D01*
X187919630Y-10309872D01*
X188157725Y-10428920D01*
X188276773Y-10547967D01*
X188395820Y-10786062D01*
X188395820Y-11143205D01*
X188276773Y-11381300D01*
X188157725Y-11500348D01*
X187919630Y-11619396D01*
X186967249Y-11619396D01*
X168877300Y-17883430D02*
X168996347Y-17645335D01*
X168996347Y-17288192D01*
X168877300Y-16931049D01*
X168639204Y-16692954D01*
X168401109Y-16573906D01*
X167924919Y-16454859D01*
X167567776Y-16454859D01*
X167091585Y-16573906D01*
X166853490Y-16692954D01*
X166615395Y-16931049D01*
X166496347Y-17288192D01*
X166496347Y-17526287D01*
X166615395Y-17883430D01*
X166734442Y-18002478D01*
X167567776Y-18002478D01*
X167567776Y-17526287D01*
X167210633Y-18954859D02*
X167210633Y-20145335D01*
X166496347Y-18716763D02*
X168996347Y-19550097D01*
X166496347Y-20383430D01*
X168996347Y-20859620D02*
X168996347Y-22288192D01*
X166496347Y-21573906D02*
X168996347Y-21573906D01*
X167805871Y-23121525D02*
X167805871Y-23954859D01*
X166496347Y-24312001D02*
X166496347Y-23121525D01*
X168996347Y-23121525D01*
X168996347Y-24312001D01*
X168996347Y-27764382D02*
X168996347Y-28240573D01*
X168877300Y-28478668D01*
X168639204Y-28716763D01*
X168163014Y-28835811D01*
X167329680Y-28835811D01*
X166853490Y-28716763D01*
X166615395Y-28478668D01*
X166496347Y-28240573D01*
X166496347Y-27764382D01*
X166615395Y-27526287D01*
X166853490Y-27288192D01*
X167329680Y-27169144D01*
X168163014Y-27169144D01*
X168639204Y-27288192D01*
X168877300Y-27526287D01*
X168996347Y-27764382D01*
X168996347Y-29907240D02*
X166972538Y-29907240D01*
X166734442Y-30026287D01*
X166615395Y-30145335D01*
X166496347Y-30383430D01*
X166496347Y-30859620D01*
X166615395Y-31097716D01*
X166734442Y-31216763D01*
X166972538Y-31335811D01*
X168996347Y-31335811D01*
X168996347Y-32169144D02*
X168996347Y-33597716D01*
X166496347Y-32883430D02*
X168996347Y-32883430D01*
D10*
X147091400Y-123000000D02*
X193037460Y-123000000D01*
X147091400Y-79000000D02*
X193037460Y-79000000D01*
X147396200Y-35000000D02*
X193342260Y-35000000D01*
D13*
X156515327Y14259061D02*
X156324851Y14354300D01*
X156134375Y14544776D01*
X155848660Y14830490D01*
X155658184Y14925728D01*
X155467708Y14925728D01*
X155562946Y14449538D02*
X155372470Y14544776D01*
X155181994Y14735252D01*
X155086756Y15116204D01*
X155086756Y15782871D01*
X155181994Y16163823D01*
X155372470Y16354300D01*
X155562946Y16449538D01*
X155943899Y16449538D01*
X156134375Y16354300D01*
X156324851Y16163823D01*
X156420089Y15782871D01*
X156420089Y15116204D01*
X156324851Y14735252D01*
X156134375Y14544776D01*
X155943899Y14449538D01*
X155562946Y14449538D01*
X158134375Y15782871D02*
X158134375Y14449538D01*
X157277232Y15782871D02*
X157277232Y14735252D01*
X157372470Y14544776D01*
X157562946Y14449538D01*
X157848660Y14449538D01*
X158039137Y14544776D01*
X158134375Y14640014D01*
X159943899Y14449538D02*
X159943899Y15497157D01*
X159848660Y15687633D01*
X159658184Y15782871D01*
X159277232Y15782871D01*
X159086756Y15687633D01*
X159943899Y14544776D02*
X159753422Y14449538D01*
X159277232Y14449538D01*
X159086756Y14544776D01*
X158991518Y14735252D01*
X158991518Y14925728D01*
X159086756Y15116204D01*
X159277232Y15211442D01*
X159753422Y15211442D01*
X159943899Y15306680D01*
X161753422Y14449538D02*
X161753422Y16449538D01*
X161753422Y14544776D02*
X161562946Y14449538D01*
X161181994Y14449538D01*
X160991518Y14544776D01*
X160896280Y14640014D01*
X160801041Y14830490D01*
X160801041Y15401919D01*
X160896280Y15592395D01*
X160991518Y15687633D01*
X161181994Y15782871D01*
X161562946Y15782871D01*
X161753422Y15687633D01*
X165277232Y16354300D02*
X165086756Y16449538D01*
X164801041Y16449538D01*
X164515327Y16354300D01*
X164324851Y16163823D01*
X164229613Y15973347D01*
X164134375Y15592395D01*
X164134375Y15306680D01*
X164229613Y14925728D01*
X164324851Y14735252D01*
X164515327Y14544776D01*
X164801041Y14449538D01*
X164991518Y14449538D01*
X165277232Y14544776D01*
X165372470Y14640014D01*
X165372470Y15306680D01*
X164991518Y15306680D01*
X167086756Y14449538D02*
X167086756Y15497157D01*
X166991518Y15687633D01*
X166801041Y15782871D01*
X166420089Y15782871D01*
X166229613Y15687633D01*
X167086756Y14544776D02*
X166896280Y14449538D01*
X166420089Y14449538D01*
X166229613Y14544776D01*
X166134375Y14735252D01*
X166134375Y14925728D01*
X166229613Y15116204D01*
X166420089Y15211442D01*
X166896280Y15211442D01*
X167086756Y15306680D01*
X167753422Y15782871D02*
X168515327Y15782871D01*
X168039137Y16449538D02*
X168039137Y14735252D01*
X168134375Y14544776D01*
X168324851Y14449538D01*
X168515327Y14449538D01*
X169943899Y14544776D02*
X169753422Y14449538D01*
X169372470Y14449538D01*
X169181994Y14544776D01*
X169086756Y14735252D01*
X169086756Y15497157D01*
X169181994Y15687633D01*
X169372470Y15782871D01*
X169753422Y15782871D01*
X169943899Y15687633D01*
X170039137Y15497157D01*
X170039137Y15306680D01*
X169086756Y15116204D01*
X172134375Y16449538D02*
X173277232Y16449538D01*
X172705803Y14449538D02*
X172705803Y16449538D01*
X174229613Y14449538D02*
X174039137Y14544776D01*
X173943899Y14640014D01*
X173848660Y14830490D01*
X173848660Y15401919D01*
X173943899Y15592395D01*
X174039137Y15687633D01*
X174229613Y15782871D01*
X174515327Y15782871D01*
X174705803Y15687633D01*
X174801041Y15592395D01*
X174896280Y15401919D01*
X174896280Y14830490D01*
X174801041Y14640014D01*
X174705803Y14544776D01*
X174515327Y14449538D01*
X174229613Y14449538D01*
X176991518Y16449538D02*
X178134375Y16449538D01*
X177562946Y14449538D02*
X177562946Y16449538D01*
X178801041Y14449538D02*
X178801041Y15782871D01*
X178801041Y15401919D02*
X178896280Y15592395D01*
X178991518Y15687633D01*
X179181994Y15782871D01*
X179372470Y15782871D01*
X180039137Y14449538D02*
X180039137Y15782871D01*
X180039137Y16449538D02*
X179943899Y16354300D01*
X180039137Y16259061D01*
X180134375Y16354300D01*
X180039137Y16449538D01*
X180039137Y16259061D01*
X181848660Y15782871D02*
X181848660Y14163823D01*
X181753422Y13973347D01*
X181658184Y13878109D01*
X181467708Y13782871D01*
X181181994Y13782871D01*
X180991518Y13878109D01*
X181848660Y14544776D02*
X181658184Y14449538D01*
X181277232Y14449538D01*
X181086756Y14544776D01*
X180991518Y14640014D01*
X180896280Y14830490D01*
X180896280Y15401919D01*
X180991518Y15592395D01*
X181086756Y15687633D01*
X181277232Y15782871D01*
X181658184Y15782871D01*
X181848660Y15687633D01*
X183658184Y15782871D02*
X183658184Y14163823D01*
X183562946Y13973347D01*
X183467708Y13878109D01*
X183277232Y13782871D01*
X182991518Y13782871D01*
X182801041Y13878109D01*
X183658184Y14544776D02*
X183467708Y14449538D01*
X183086756Y14449538D01*
X182896280Y14544776D01*
X182801041Y14640014D01*
X182705803Y14830490D01*
X182705803Y15401919D01*
X182801041Y15592395D01*
X182896280Y15687633D01*
X183086756Y15782871D01*
X183467708Y15782871D01*
X183658184Y15687633D01*
X185372470Y14544776D02*
X185181994Y14449538D01*
X184801041Y14449538D01*
X184610565Y14544776D01*
X184515327Y14735252D01*
X184515327Y15497157D01*
X184610565Y15687633D01*
X184801041Y15782871D01*
X185181994Y15782871D01*
X185372470Y15687633D01*
X185467708Y15497157D01*
X185467708Y15306680D01*
X184515327Y15116204D01*
X186324851Y14449538D02*
X186324851Y15782871D01*
X186324851Y15401919D02*
X186420089Y15592395D01*
X186515327Y15687633D01*
X186705803Y15782871D01*
X186896280Y15782871D01*
D11*
X152478414Y20319477D02*
X154192700Y20319477D01*
X153335557Y17319477D02*
X153335557Y20319477D01*
X155192700Y17319477D02*
X155192700Y20319477D01*
X156478414Y17319477D02*
X156478414Y18890905D01*
X156335557Y19176620D01*
X156049842Y19319477D01*
X155621271Y19319477D01*
X155335557Y19176620D01*
X155192700Y19033762D01*
X159049842Y17462334D02*
X158764128Y17319477D01*
X158192700Y17319477D01*
X157906985Y17462334D01*
X157764128Y17748048D01*
X157764128Y18890905D01*
X157906985Y19176620D01*
X158192700Y19319477D01*
X158764128Y19319477D01*
X159049842Y19176620D01*
X159192700Y18890905D01*
X159192700Y18605191D01*
X157764128Y18319477D01*
X164192700Y17319477D02*
X162764128Y17319477D01*
X162764128Y20319477D01*
X165621271Y17319477D02*
X165335557Y17462334D01*
X165192700Y17748048D01*
X165192700Y20319477D01*
X167192700Y17319477D02*
X166906985Y17462334D01*
X166764128Y17605191D01*
X166621271Y17890905D01*
X166621271Y18748048D01*
X166764128Y19033762D01*
X166906985Y19176620D01*
X167192700Y19319477D01*
X167621271Y19319477D01*
X167906985Y19176620D01*
X168049842Y19033762D01*
X168192700Y18748048D01*
X168192700Y17890905D01*
X168049842Y17605191D01*
X167906985Y17462334D01*
X167621271Y17319477D01*
X167192700Y17319477D01*
X169192700Y19319477D02*
X169906985Y17319477D01*
X170621271Y19319477D02*
X169906985Y17319477D01*
X169621271Y16605191D01*
X169478414Y16462334D01*
X169192700Y16319477D01*
X173049842Y17319477D02*
X173049842Y20319477D01*
X173049842Y17462334D02*
X172764128Y17319477D01*
X172192700Y17319477D01*
X171906985Y17462334D01*
X171764128Y17605191D01*
X171621271Y17890905D01*
X171621271Y18748048D01*
X171764128Y19033762D01*
X171906985Y19176620D01*
X172192700Y19319477D01*
X172764128Y19319477D01*
X173049842Y19176620D01*
X174478414Y18462334D02*
X176764128Y18462334D01*
X178192700Y17319477D02*
X178192700Y20319477D01*
X179335557Y20319477D01*
X179621271Y20176620D01*
X179764128Y20033762D01*
X179906985Y19748048D01*
X179906985Y19319477D01*
X179764128Y19033762D01*
X179621271Y18890905D01*
X179335557Y18748048D01*
X178192700Y18748048D01*
X182478414Y17319477D02*
X182478414Y18890905D01*
X182335557Y19176620D01*
X182049842Y19319477D01*
X181478414Y19319477D01*
X181192700Y19176620D01*
X182478414Y17462334D02*
X182192700Y17319477D01*
X181478414Y17319477D01*
X181192700Y17462334D01*
X181049842Y17748048D01*
X181049842Y18033762D01*
X181192700Y18319477D01*
X181478414Y18462334D01*
X182192700Y18462334D01*
X182478414Y18605191D01*
X185192700Y17462334D02*
X184906985Y17319477D01*
X184335557Y17319477D01*
X184049842Y17462334D01*
X183906985Y17605191D01*
X183764128Y17890905D01*
X183764128Y18748048D01*
X183906985Y19033762D01*
X184049842Y19176620D01*
X184335557Y19319477D01*
X184906985Y19319477D01*
X185192700Y19176620D01*
X186478414Y17319477D02*
X186478414Y20319477D01*
X186764128Y18462334D02*
X187621271Y17319477D01*
X187621271Y19319477D02*
X186478414Y18176620D01*
D10*
X193085720Y-170195240D02*
X147144740Y-170195240D01*
X193131440Y-170146980D02*
X193131440Y12885420D01*
X147137120Y-124355860D02*
X147137120Y12872720D01*
X147162520Y-170210480D02*
X147162520Y-124172980D01*
X145077180Y-124172980D02*
X147129500Y-124172980D01*
X145000980Y-108186220D02*
X146839940Y-108186220D01*
X144922240Y-92146120D02*
X146753580Y-92146120D01*
X145041620Y-76113640D02*
X146502120Y-76113640D01*
X145232120Y-60152280D02*
X147424140Y-60152280D01*
X145041620Y-44221400D02*
X147510500Y-44221400D01*
X144909540Y-28079700D02*
X147101560Y-28079700D01*
X192834260Y-11930380D02*
X201261980Y-11930380D01*
X147187920Y12933680D02*
X193133980Y12933680D01*
X193454020Y-76162880D02*
X195011040Y-76162880D01*
X193525140Y-92162880D02*
X194955160Y-92162880D01*
X193690240Y-108162880D02*
X195501260Y-108162880D01*
X193807080Y-124178060D02*
X195023740Y-124178060D01*
X193796920Y-60162880D02*
X195226940Y-60162880D01*
X145105120Y3903980D02*
X147106640Y3903980D01*
X193118740Y-28162880D02*
X195546980Y-28162880D01*
X193929000Y-44162880D02*
X194965320Y-44162880D01*
X145013680Y-12162880D02*
X147119340Y-12162880D01*
D14*
X168636979Y-51738095D02*
X168904836Y-51500000D01*
X169410788Y-51261904D01*
X170601264Y-51261904D01*
X171047693Y-51500000D01*
X171256026Y-51738095D01*
X171434598Y-52214285D01*
X171375074Y-52690476D01*
X171047693Y-53404761D01*
X167833407Y-56261904D01*
X170928645Y-56261904D01*
X168458407Y-95261904D02*
X171553645Y-95261904D01*
X169648883Y-97166666D01*
X170363169Y-97166666D01*
X170809598Y-97404761D01*
X171017931Y-97642857D01*
X171196502Y-98119047D01*
X171047693Y-99309523D01*
X170750074Y-99785714D01*
X170482217Y-100023809D01*
X169976264Y-100261904D01*
X168547693Y-100261904D01*
X168101264Y-100023809D01*
X167892931Y-99785714D01*
X170869122Y-140928571D02*
X170452455Y-144261904D01*
X169916741Y-139023809D02*
X168279836Y-142595238D01*
X171375074Y-142595238D01*
D12*
X168035957Y594680D02*
X167797861Y713727D01*
X167440719Y713727D01*
X167083576Y594680D01*
X166845480Y356584D01*
X166726433Y118489D01*
X166607385Y-357700D01*
X166607385Y-714843D01*
X166726433Y-1191034D01*
X166845480Y-1429129D01*
X167083576Y-1667224D01*
X167440719Y-1786272D01*
X167678814Y-1786272D01*
X168035957Y-1667224D01*
X168155004Y-1548177D01*
X168155004Y-714843D01*
X167678814Y-714843D01*
X169107385Y-1071986D02*
X170297861Y-1071986D01*
X168869290Y-1786272D02*
X169702623Y713727D01*
X170535957Y-1786272D01*
X171012147Y713727D02*
X172440719Y713727D01*
X171726433Y-1786272D02*
X171726433Y713727D01*
X173274052Y-476748D02*
X174107385Y-476748D01*
X174464528Y-1786272D02*
X173274052Y-1786272D01*
X173274052Y713727D01*
X174464528Y713727D01*
X177440719Y-1786272D02*
X177440719Y713727D01*
X178631195Y-1786272D02*
X178631195Y713727D01*
X180059766Y-1786272D01*
X180059766Y713727D01*
D14*
X170928645Y-12261904D02*
X168071502Y-12261904D01*
X169500074Y-12261904D02*
X170125074Y-7261904D01*
X169559598Y-7976190D01*
X169023883Y-8452380D01*
X168517931Y-8690476D01*
D13*
X221285060Y-9405453D02*
X220808870Y-9738786D01*
X221285060Y-9976881D02*
X220285060Y-9976881D01*
X220285060Y-9595929D01*
X220332680Y-9500691D01*
X220380299Y-9453072D01*
X220475537Y-9405453D01*
X220618394Y-9405453D01*
X220713632Y-9453072D01*
X220761251Y-9500691D01*
X220808870Y-9595929D01*
X220808870Y-9976881D01*
X220761251Y-8976881D02*
X220761251Y-8643548D01*
X221285060Y-8500691D02*
X221285060Y-8976881D01*
X220285060Y-8976881D01*
X220285060Y-8500691D01*
X220761251Y-7738786D02*
X220761251Y-8072120D01*
X221285060Y-8072120D02*
X220285060Y-8072120D01*
X220285060Y-7595929D01*
X220285060Y-7072120D02*
X220523156Y-7072120D01*
X220427918Y-7310215D02*
X220523156Y-7072120D01*
X220427918Y-6834024D01*
X220713632Y-7214977D02*
X220523156Y-7072120D01*
X220713632Y-6929262D01*
X220285060Y-6310215D02*
X220523156Y-6310215D01*
X220427918Y-6548310D02*
X220523156Y-6310215D01*
X220427918Y-6072120D01*
X220713632Y-6453072D02*
X220523156Y-6310215D01*
X220713632Y-6167358D01*
X181478166Y-152413180D02*
X181478166Y-153127466D01*
X181430547Y-153270323D01*
X181335309Y-153365561D01*
X181192452Y-153413180D01*
X181097214Y-153413180D01*
X182001976Y-153413180D02*
X182192452Y-153413180D01*
X182287690Y-153365561D01*
X182335309Y-153317942D01*
X182430547Y-153175085D01*
X182478166Y-152984609D01*
X182478166Y-152603657D01*
X182430547Y-152508419D01*
X182382928Y-152460800D01*
X182287690Y-152413180D01*
X182097214Y-152413180D01*
X182001976Y-152460800D01*
X181954357Y-152508419D01*
X181906738Y-152603657D01*
X181906738Y-152841752D01*
X181954357Y-152936990D01*
X182001976Y-152984609D01*
X182097214Y-153032228D01*
X182287690Y-153032228D01*
X182382928Y-152984609D01*
X182430547Y-152936990D01*
X182478166Y-152841752D01*
X156478166Y-130413180D02*
X156478166Y-131127466D01*
X156430547Y-131270323D01*
X156335309Y-131365561D01*
X156192452Y-131413180D01*
X156097214Y-131413180D01*
X156859119Y-130413180D02*
X157478166Y-130413180D01*
X157144833Y-130794133D01*
X157287690Y-130794133D01*
X157382928Y-130841752D01*
X157430547Y-130889371D01*
X157478166Y-130984609D01*
X157478166Y-131222704D01*
X157430547Y-131317942D01*
X157382928Y-131365561D01*
X157287690Y-131413180D01*
X157001976Y-131413180D01*
X156906738Y-131365561D01*
X156859119Y-131317942D01*
X156001976Y-20413180D02*
X156001976Y-21127466D01*
X155954357Y-21270323D01*
X155859119Y-21365561D01*
X155716261Y-21413180D01*
X155621023Y-21413180D01*
X157001976Y-21413180D02*
X156430547Y-21413180D01*
X156716261Y-21413180D02*
X156716261Y-20413180D01*
X156621023Y-20556038D01*
X156525785Y-20651276D01*
X156430547Y-20698895D01*
X157621023Y-20413180D02*
X157716261Y-20413180D01*
X157811500Y-20460800D01*
X157859119Y-20508419D01*
X157906738Y-20603657D01*
X157954357Y-20794133D01*
X157954357Y-21032228D01*
X157906738Y-21222704D01*
X157859119Y-21317942D01*
X157811500Y-21365561D01*
X157716261Y-21413180D01*
X157621023Y-21413180D01*
X157525785Y-21365561D01*
X157478166Y-21317942D01*
X157430547Y-21222704D01*
X157382928Y-21032228D01*
X157382928Y-20794133D01*
X157430547Y-20603657D01*
X157478166Y-20508419D01*
X157525785Y-20460800D01*
X157621023Y-20413180D01*
X156478166Y1586819D02*
X156478166Y872533D01*
X156430547Y729676D01*
X156335309Y634438D01*
X156192452Y586819D01*
X156097214Y586819D01*
X156906738Y1491580D02*
X156954357Y1539200D01*
X157049595Y1586819D01*
X157287690Y1586819D01*
X157382928Y1539200D01*
X157430547Y1491580D01*
X157478166Y1396342D01*
X157478166Y1301104D01*
X157430547Y1158247D01*
X156859119Y586819D01*
X157478166Y586819D01*
X181478166Y-108413180D02*
X181478166Y-109127466D01*
X181430547Y-109270323D01*
X181335309Y-109365561D01*
X181192452Y-109413180D01*
X181097214Y-109413180D01*
X182097214Y-108841752D02*
X182001976Y-108794133D01*
X181954357Y-108746514D01*
X181906738Y-108651276D01*
X181906738Y-108603657D01*
X181954357Y-108508419D01*
X182001976Y-108460800D01*
X182097214Y-108413180D01*
X182287690Y-108413180D01*
X182382928Y-108460800D01*
X182430547Y-108508419D01*
X182478166Y-108603657D01*
X182478166Y-108651276D01*
X182430547Y-108746514D01*
X182382928Y-108794133D01*
X182287690Y-108841752D01*
X182097214Y-108841752D01*
X182001976Y-108889371D01*
X181954357Y-108936990D01*
X181906738Y-109032228D01*
X181906738Y-109222704D01*
X181954357Y-109317942D01*
X182001976Y-109365561D01*
X182097214Y-109413180D01*
X182287690Y-109413180D01*
X182382928Y-109365561D01*
X182430547Y-109317942D01*
X182478166Y-109222704D01*
X182478166Y-109032228D01*
X182430547Y-108936990D01*
X182382928Y-108889371D01*
X182287690Y-108841752D01*
X156478166Y-42413180D02*
X156478166Y-43127466D01*
X156430547Y-43270323D01*
X156335309Y-43365561D01*
X156192452Y-43413180D01*
X156097214Y-43413180D01*
X157430547Y-42413180D02*
X156954357Y-42413180D01*
X156906738Y-42889371D01*
X156954357Y-42841752D01*
X157049595Y-42794133D01*
X157287690Y-42794133D01*
X157382928Y-42841752D01*
X157430547Y-42889371D01*
X157478166Y-42984609D01*
X157478166Y-43222704D01*
X157430547Y-43317942D01*
X157382928Y-43365561D01*
X157287690Y-43413180D01*
X157049595Y-43413180D01*
X156954357Y-43365561D01*
X156906738Y-43317942D01*
X158289956Y-108413180D02*
X158289956Y-109127466D01*
X158242337Y-109270323D01*
X158147099Y-109365561D01*
X158004241Y-109413180D01*
X157909003Y-109413180D01*
X159289956Y-109413180D02*
X158718527Y-109413180D01*
X159004241Y-109413180D02*
X159004241Y-108413180D01*
X158909003Y-108556038D01*
X158813765Y-108651276D01*
X158718527Y-108698895D01*
X159670908Y-108508419D02*
X159718527Y-108460800D01*
X159813765Y-108413180D01*
X160051860Y-108413180D01*
X160147099Y-108460800D01*
X160194718Y-108508419D01*
X160242337Y-108603657D01*
X160242337Y-108698895D01*
X160194718Y-108841752D01*
X159623289Y-109413180D01*
X160242337Y-109413180D01*
X156001976Y-64413180D02*
X156001976Y-65127466D01*
X155954357Y-65270323D01*
X155859119Y-65365561D01*
X155716261Y-65413180D01*
X155621023Y-65413180D01*
X157001976Y-65413180D02*
X156430547Y-65413180D01*
X156716261Y-65413180D02*
X156716261Y-64413180D01*
X156621023Y-64556038D01*
X156525785Y-64651276D01*
X156430547Y-64698895D01*
X157954357Y-65413180D02*
X157382928Y-65413180D01*
X157668642Y-65413180D02*
X157668642Y-64413180D01*
X157573404Y-64556038D01*
X157478166Y-64651276D01*
X157382928Y-64698895D01*
X156478166Y-86413180D02*
X156478166Y-87127466D01*
X156430547Y-87270323D01*
X156335309Y-87365561D01*
X156192452Y-87413180D01*
X156097214Y-87413180D01*
X157478166Y-87413180D02*
X156906738Y-87413180D01*
X157192452Y-87413180D02*
X157192452Y-86413180D01*
X157097214Y-86556038D01*
X157001976Y-86651276D01*
X156906738Y-86698895D01*
X181478166Y-20413180D02*
X181478166Y-21127466D01*
X181430547Y-21270323D01*
X181335309Y-21365561D01*
X181192452Y-21413180D01*
X181097214Y-21413180D01*
X181859119Y-20413180D02*
X182525785Y-20413180D01*
X182097214Y-21413180D01*
X181478166Y-64413180D02*
X181478166Y-65127466D01*
X181430547Y-65270323D01*
X181335309Y-65365561D01*
X181192452Y-65413180D01*
X181097214Y-65413180D01*
X182382928Y-64746514D02*
X182382928Y-65413180D01*
X182144833Y-64365561D02*
X181906738Y-65079847D01*
X182525785Y-65079847D01*
X156001976Y-152413180D02*
X156001976Y-153127466D01*
X155954357Y-153270323D01*
X155859119Y-153365561D01*
X155716261Y-153413180D01*
X155621023Y-153413180D01*
X157001976Y-153413180D02*
X156430547Y-153413180D01*
X156716261Y-153413180D02*
X156716261Y-152413180D01*
X156621023Y-152556038D01*
X156525785Y-152651276D01*
X156430547Y-152698895D01*
X157335309Y-152413180D02*
X157954357Y-152413180D01*
X157621023Y-152794133D01*
X157763880Y-152794133D01*
X157859119Y-152841752D01*
X157906738Y-152889371D01*
X157954357Y-152984609D01*
X157954357Y-153222704D01*
X157906738Y-153317942D01*
X157859119Y-153365561D01*
X157763880Y-153413180D01*
X157478166Y-153413180D01*
X157382928Y-153365561D01*
X157335309Y-153317942D01*
M02*
